STARTFONT 2.1
COMMENT
COMMENT Converted from OpenType font "Q:\font stuff\winfont\Rationale-Regular.ttf" by "otf2bdf 3.0".
COMMENT
FONT -FreeType-Rationale-Medium-R-Normal--249-1800-100-100-P-755-ISO10646-1
SIZE 180 100 100
FONTBOUNDINGBOX 199 289 -8 -63
STARTPROPERTIES 19
FOUNDRY "FreeType"
FAMILY_NAME "Rationale"
WEIGHT_NAME "Medium"
SLANT "R"
SETWIDTH_NAME "Normal"
ADD_STYLE_NAME ""
PIXEL_SIZE 249
POINT_SIZE 1800
RESOLUTION_X 100
RESOLUTION_Y 100
SPACING "P"
AVERAGE_WIDTH 755
CHARSET_REGISTRY "ISO10646"
CHARSET_ENCODING "1"
FONT_ASCENT 225
FONT_DESCENT 62
COPYRIGHT "Copyright (c) 2011, Cyreal (www.cyreal.org) with Reserved Font Name "Rationale"."
_OTF_FONTFILE "Q:\font stuff\winfont\Rationale-Regular.ttf"
_OTF_PSNAME "Rationale-Regular"
ENDPROPERTIES
CHARS 214
STARTCHAR 0020
ENCODING 32
SWIDTH 196 0
DWIDTH 49 0
BBX 0 0 0 0
BITMAP
ENDCHAR
STARTCHAR 0021
ENCODING 33
SWIDTH 228 0
DWIDTH 57 0
BBX 22 175 18 0
BITMAP
1FFFF0
7FFFF0
7FFFF0
FFFFF0
FFFFF0
FFFFF0
FFFFF0
FFFFF0
FFFFF0
FFFFF0
FFFFF0
FFFFF0
FFFFF0
FFFFF0
FFFFF0
FFFFF0
FFFFF0
FFFFF0
FFFFF0
FFFFF0
FFFFF0
FFFFF0
FFFFF0
FFFFF0
FFFFF0
FFFFF0
FFFFF0
FFFFF0
FFFFF0
FFFFF0
FFFFF0
FFFFF0
FFFFF0
FFFFF0
FFFFF0
FFFFF0
FFFFF0
FFFFF0
FFFFF0
FFFFF0
FFFFF0
FFFFF0
FFFFF0
FFFFF0
FFFFF0
FFFFF0
FFFFF0
FFFFF0
FFFFF0
FFFFF0
FFFFF0
FFFFF0
FFFFF0
FFFFF0
FFFFF0
FFFFF0
FFFFF0
FFFFF0
FFFFF0
FFFFF0
FFFFF0
FFFFF0
FFFFF0
FFFFF0
FFFFF0
FFFFF0
FFFFF0
FFFFF0
FFFFF0
FFFFF0
FFFFF0
FFFFF0
FFFFF0
FFFFF0
FFFFF0
FFFFF0
FFFFF0
FFFFF0
FFFFF0
FFFFF0
FFFFF0
FFFFF0
FFFFF0
FFFFF0
FFFFF0
FFFFF0
FFFFF0
FFFFF0
FFFFF0
FFFFF0
FFFFF0
FFFFF0
FFFFF0
FFFFF0
FFFFF0
FFFFF0
FFFFF0
FFFFF0
FFFFF0
FFFFF0
FFFFF0
FFFFF0
FFFFF0
FFFFF0
FFFFF0
FFFFF0
FFFFF0
FFFFF0
FFFFF0
FFFFF0
FFFFF0
FFFFF0
FFFFF0
FFFFF0
FFFFF0
FFFFF0
FFFFF0
FFFFF0
FFFFF0
FFFFF0
FFFFF0
FFFFF0
FFFFF0
FFFFF0
FFFFF0
FFFFF0
FFFFF0
FFFFF0
FFFFF0
FFFFF0
FFFFF0
FFFFF0
FFFFE0
FFFFE0
FFFF80
000000
000000
000000
000000
000000
000000
000000
000000
000000
000000
000000
000000
000000
000000
000000
000000
000000
000000
000000
000000
FFFFE0
FFFFF8
FFFFF8
FFFFFC
FFFFFC
FFFFFC
FFFFFC
FFFFFC
FFFFFC
FFFFFC
FFFFFC
FFFFFC
FFFFFC
FFFFFC
FFFFFC
FFFFFC
FFFFFC
7FFFFC
7FFFFC
1FFFFC
ENDCHAR
STARTCHAR 0022
ENCODING 34
SWIDTH 320 0
DWIDTH 80 0
BBX 50 40 15 135
BITMAP
FFFC00007FFE00
FFFF00007FFF80
FFFF80007FFFC0
FFFF80007FFFC0
FFFF80007FFFC0
FFFF80007FFFC0
FFFF80007FFFC0
FFFF80007FFFC0
FFFF80007FFFC0
FFFF80007FFFC0
FFFF80007FFFC0
FFFF80007FFFC0
FFFF80007FFFC0
FFFF80007FFFC0
FFFF80007FFFC0
FFFF80007FFFC0
FFFF80007FFFC0
FFFF80007FFFC0
FFFF80007FFFC0
FFFF80007FFFC0
FFFF80007FFFC0
FFFF80007FFFC0
FFFF80007FFFC0
FFFF80007FFFC0
FFFF80007FFFC0
FFFF80007FFFC0
FFFF80007FFFC0
FFFF80007FFFC0
FFFF80007FFFC0
FFFF80007FFFC0
FFFF80007FFFC0
FFFF80007FFFC0
FFFF80007FFFC0
FFFF80007FFFC0
FFFF80007FFFC0
FFFF80007FFFC0
7FFF80003FFFC0
7FFF80003FFFC0
3FFF80001FFFC0
1FFF80000FFFC0
ENDCHAR
STARTCHAR 0023
ENCODING 35
SWIDTH 800 0
DWIDTH 200 0
BBX 169 175 18 0
BITMAP
1FFFF80000000000003FFFF000000000FFFFFFF00000
7FFFFC0000000000007FFFF00000001FFFFFFFFF0000
7FFFFC000000000000FFFFF00000007FFFFFFFFFC000
FFFFFC000000000000FFFFF0000000FFFFFFFFFFF000
FFFFFE000000000000FFFFF0000001FFFFFFFFFFF800
FFFFFE000000000000FFFFF0000003FFFFFFFFFFF800
FFFFFF000000000001FFFFF0000007FFFFFFFFFFFC00
FFFFFF000000000001FFFFF0000007FFFFFFFFFFFE00
FFFFFF000000000001FFFFF000000FFFFFFFFFFFFE00
FFFFFF800000000001FFFFF000000FFFFFFFFFFFFE00
FFFFFF800000000001FFFFF000000FFFFFFFFFFFFF00
FFFFFFC00000000001FFFFF000000FFFFFFFFFFFFF00
FFFFFFC00000000001FFFFF000000FFFFFFFFFFFFF00
FFFFFFE00000000001FFFFF000001FFFFF801FFFFF00
FFFFFFE00000000001FFFFF000001FFFFC0007FFFF00
FFFFFFE00000000001FFFFF000001FFFF80003FFFF00
FFFFFFF00000000001FFFFF000001FFFF00001FFFF00
FFFFFFF00000000001FFFFF000001FFFF00001FFFF00
FFFFFFF80000000001FFFFF000001FFFF00000FFFF00
FFFFFFF80000000001FFFFF000001FFFF00000FFFF00
FFFFFFF80000000001FFFFF000001FFFE00000FFFF00
FFFFFFFC0000000001FFFFF000001FFFE00000FFFF80
FFFFFFFC0000000001FFFFF000001FFFE00000FFFF80
FFFFFFFE0000000001FFFFF000001FFFE00000FFFF80
FFFFFFFE0000000001FFFFF000001FFFE00000FFFF80
FFFFFFFE0000000001FFFFF000001FFFE00000FFFF80
FFFFFFFF0000000001FFFFF000001FFFE00000FFFF80
FFFFFFFF0000000001FFFFF000001FFFE00000FFFF80
FFFFFFFF8000000001FFFFF000001FFFE00000FFFF80
FFFFFFFF8000000001FFFFF000001FFFE00000FFFF80
FFFFFFFFC000000001FFFFF000001FFFE00000FFFF80
FFFFFFFFC000000001FFFFF000001FFFE00000FFFF80
FFFFFFFFC000000001FFFFF000001FFFE00000FFFF80
FFFFFFFFE000000001FFFFF000001FFFE00000FFFF80
FFFFFFFFE000000001FFFFF000001FFFE00000FFFF80
FFFFFFFFF000000001FFFFF000001FFFE00000FFFF80
FFFFFFFFF000000001FFFFF000001FFFE00000FFFF80
FFFFDFFFF000000001FFFFF000001FFFE00000FFFF80
FFFFDFFFF800000001FFFFF000001FFFE00000FFFF80
FFFFDFFFF800000001FFFFF000001FFFE00000FFFF80
FFFFCFFFFC00000001FFFFF000001FFFE00000FFFF80
FFFFCFFFFC00000001FFFFF000001FFFE00000FFFF80
FFFFCFFFFC00000001FFFFF000001FFFE00000FFFF80
FFFFC7FFFE00000001FFFFF000001FFFE00000FFFF80
FFFFC7FFFE00000001FFFFF000001FFFE00000FFFF80
FFFFC7FFFF00000001FFFFF000001FFFE00000FFFF80
FFFFE3FFFF00000001FFFFF000001FFFE00000FFFF80
FFFFE3FFFF80000001FFFFF000001FFFE00000FFFF80
FFFFE3FFFF80000001FFFFF000001FFFE00000FFFF80
FFFFE1FFFF80000001FFFFF000001FFFE00000FFFF80
FFFFE1FFFFC0000001FFFFF000001FFFE00000FFFF80
FFFFE1FFFFC0000001FFFFF000001FFFE00000FFFF80
FFFFE0FFFFE0000001FFFFF000001FFFE00000FFFF00
FFFFE0FFFFE0000001FFFFF000001FFFF00000FFFF00
FFFFE0FFFFE0000001FFFFF000001FFFF00000FFFF00
FFFFE07FFFF0000001FFFFF000001FFFF00001FFFF00
FFFFE07FFFF0000001FFFFF000001FFFF00001FFFF00
FFFFE07FFFF8000001FFFFF000001FFFF80003FFFF00
FFFFE03FFFF8000001FFFFF000001FFFFC0007FFFF00
FFFFF03FFFF8000001FFFFF000001FFFFF801FFFFF00
FFFFF03FFFFC000001FFFFF000000FFFFFFFFFFFFF00
FFFFF01FFFFC000001FFFFF000000FFFFFFFFFFFFF00
FFFFF01FFFFE000001FFFFF000000FFFFFFFFFFFFF00
FFFFF01FFFFE000001FFFFF000000FFFFFFFFFFFFE00
FFFFF00FFFFF000001FFFFF000000FFFFFFFFFFFFE00
FFFFF00FFFFF000001FFFFF0000007FFFFFFFFFFFE00
FFFFF007FFFF000001FFFFF0000007FFFFFFFFFFFC00
FFFFF007FFFF800001FFFFF0000003FFFFFFFFFFFC00
FFFFF007FFFF800001FFFFF0000001FFFFFFFFFFF800
FFFFF003FFFFC00001FFFFF0000000FFFFFFFFFFF000
FFFFF003FFFFC00001FFFFF00000007FFFFFFFFFC000
FFFFF001FFFFC00001FFFFF00000001FFFFFFFFF0000
FFFFF001FFFFE00001FFFFF000000000FFFFFFF00000
FFFFF000FFFFE00001FFFFF000000000000000000000
FFFFF000FFFFF00001FFFFF000000000000000000000
FFFFF000FFFFF00001FFFFF000000000000000000000
FFFFF0007FFFF00001FFFFF000000000000000000000
FFFFF0007FFFF80001FFFFF000000000000000000000
FFFFF0003FFFF80001FFFFF000000000000000000000
FFFFF0003FFFFC0001FFFFF000000000000000000000
FFFFF0003FFFFC0001FFFFF000000000000000000000
FFFFF0001FFFFC0001FFFFF000000000000000000000
FFFFF0001FFFFE0001FFFFF000000000000000000000
FFFFF0000FFFFE0001FFFFF000000000000000000000
FFFFF0000FFFFF0001FFFFF000000000000000000000
FFFFF0000FFFFF0001FFFFF000000000000000000000
FFFFF00007FFFF8001FFFFF000001FFFFFFFFFFFF800
FFFFF00007FFFF8001FFFFF000001FFFFFFFFFFFFE00
FFFFF00003FFFF8001FFFFF000001FFFFFFFFFFFFF00
FFFFF00003FFFFC001FFFFF000001FFFFFFFFFFFFF00
FFFFF00001FFFFC001FFFFF000001FFFFFFFFFFFFF00
FFFFF00001FFFFE001FFFFF000001FFFFFFFFFFFFF00
FFFFF00001FFFFE001FFFFF000001FFFFFFFFFFFFF00
FFFFF00000FFFFE001FFFFF000001FFFFFFFFFFFFF80
FFFFF00000FFFFF001FFFFF000001FFFFFFFFFFFFF80
FFFFF000007FFFF001FFFFF000001FFFFFFFFFFFFF80
FFFFF000007FFFF801FFFFF000001FFFFFFFFFFFFF80
FFFFF000007FFFF801FFFFF000001FFFFFFFFFFFFF80
FFFFF000003FFFF801FFFFF000000FFFFFFFFFFFFF80
FFFFF000003FFFFC01FFFFF000000FFFFFFFFFFFFF80
FFFFF000001FFFFC01FFFFF0000003FFFFFFFFFFFF80
FFFFF000001FFFFE01FFFFF000000000000000000000
FFFFF000000FFFFE01FFFFF000000000000000000000
FFFFF000000FFFFF01FFFFF000000000000000000000
FFFFF000000FFFFF01FFFFF000000000000000000000
FFFFF0000007FFFF00FFFFF000000000000000000000
FFFFF0000007FFFF80FFFFF000000000000000000000
FFFFF0000003FFFF80FFFFF000000000000000000000
FFFFF0000003FFFF80FFFFF000000000000000000000
FFFFF0000003FFFFC0FFFFF000000000000000000000
FFFFF0000001FFFFC0FFFFF000000000000000000000
FFFFF0000001FFFFC0FFFFF000000000000000000000
FFFFF0000000FFFFE0FFFFF000000000000000000000
FFFFF0000000FFFFE0FFFFF000000000000000000000
FFFFF00000007FFFE0FFFFF000000000000000000000
FFFFF00000007FFFF0FFFFF000000000000000000000
FFFFF00000007FFFF0FFFFF000000000000000000000
FFFFF00000003FFFF07FFFF000000000000000000000
FFFFF00000003FFFF87FFFF000000000000000000000
FFFFF00000001FFFF87FFFF000000000000000000000
FFFFF00000001FFFF87FFFF000000000000000000000
FFFFF00000001FFFFC7FFFF000000000000000000000
FFFFF00000000FFFFC7FFFF000000000000000000000
FFFFF00000000FFFFC7FFFF000000000000000000000
FFFFF000000007FFFC7FFFF000000000000000000000
FFFFF000000007FFFE7FFFF000000000000000000000
FFFFF000000003FFFE7FFFF000000000000000000000
FFFFF000000003FFFE7FFFF000000000000000000000
FFFFF000000003FFFF7FFFF000000000000000000000
FFFFF000000001FFFF7FFFF000000000000000000000
FFFFF000000001FFFF3FFFF000000000000000000000
FFFFF000000000FFFFBFFFF000000000000000000000
FFFFF000000000FFFFBFFFF000000000000000000000
FFFFF000000000FFFFFFFFF000000000000000000000
FFFFF0000000007FFFFFFFF000000000000000000000
FFFFF0000000007FFFFFFFF000000000000000000000
FFFFF0000000003FFFFFFFF000000000000000000000
FFFFF0000000003FFFFFFFF000000000000000000000
FFFFF0000000001FFFFFFFF000000000000000000000
FFFFF0000000001FFFFFFFF000000000000000000000
FFFFF0000000001FFFFFFFF000000000000000000000
FFFFF0000000000FFFFFFFF000000000000000000000
FFFFF0000000000FFFFFFFF000000000000000000000
FFFFF00000000007FFFFFFF000000000000000000000
FFFFF00000000007FFFFFFF000000000000000000000
FFFFF00000000007FFFFFFF000000000000000000000
FFFFF00000000003FFFFFFF000000000000000000000
FFFFF00000000003FFFFFFF000000000000000000000
FFFFF00000000001FFFFFFF000000000000000000000
FFFFF00000000001FFFFFFF000000000000000000000
FFFFF00000000000FFFFFFF000000000000000000000
FFFFF00000000000FFFFFFF000000000000000000000
FFFFF00000000000FFFFFFF000000000000000000000
FFFFF000000000007FFFFFF000000000000000000000
FFFFF000000000007FFFFFF000000000000000000000
FFFFF000000000003FFFFFF000000000000000000000
FFFFF000000000003FFFFFF000000000000000000000
FFFFF000000000003FFFFFF000000000000000000000
FFFFF000000000001FFFFFF000000000000000000000
FFFFF000000000001FFFFFF000000000000000000000
FFFFF000000000000FFFFFF000000000000000000000
FFFFF000000000000FFFFFF000000000000000000000
FFFFF0000000000007FFFFF000000000000000000000
FFFFF0000000000007FFFFF000000000000000000000
FFFFF0000000000007FFFFF000000000000000000000
FFFFF0000000000003FFFFF000000000000000000000
FFFFF0000000000003FFFFF000000000000000000000
FFFFF0000000000001FFFFF000000000000000000000
FFFFF0000000000001FFFFE000000000000000000000
FFFFF0000000000001FFFFE000000000000000000000
FFFFF0000000000000FFFFE000000000000000000000
FFFFF0000000000000FFFFE000000000000000000000
FFFFE00000000000007FFFE000000000000000000000
FFFFE00000000000007FFFC000000000000000000000
FFFF800000000000003FFF8000000000000000000000
ENDCHAR
STARTCHAR 0024
ENCODING 36
SWIDTH 436 0
DWIDTH 109 0
BBX 77 175 16 0
BITMAP
000000003FFF00000000
00000000FFFF00000000
00000001FFFF00000000
00000001FFFF00000000
00000001FFFF00000000
00000001FFFF00000000
00000001FFFF00000000
00000001FFFF00000000
00000001FFFF00000000
00000001FFFF00000000
00000001FFFF00000000
00000001FFFF00000000
00000001FFFF00000000
00000001FFFF00000000
00000001FFFF00000000
00000001FFFF00000000
00000001FFFF00000000
00000001FFFF00000000
00000001FFFF00000000
00000001FFFF00000000
00000001FFFF00000000
00000001FFFF00000000
00007FFFFFFFFFFFE000
000FFFFFFFFFFFFFF800
003FFFFFFFFFFFFFFE00
00FFFFFFFFFFFFFFFF00
03FFFFFFFFFFFFFFFF00
07FFFFFFFFFFFFFFFF80
0FFFFFFFFFFFFFFFFF80
0FFFFFFFFFFFFFFFFF80
1FFFFFFFFFFFFFFFFFC0
1FFFFFFFFFFFFFFFFFC0
3FFFFFFFFFFFFFFFFFC0
3FFFFFFFFFFFFFFFFFC0
7FFFFFFFFFFFFFFFFFE0
7FFFFFFFFFFFFFFFFFE0
7FFFFFFFFFFFFFFFFFE0
7FFFFFE0000000000000
7FFFFF00000000000000
FFFFFE00000000000000
FFFFFC00000000000000
FFFFF800000000000000
FFFFF800000000000000
FFFFF800000000000000
FFFFF800000000000000
FFFFF000000000000000
FFFFF000000000000000
FFFFF000000000000000
FFFFF000000000000000
FFFFF000000000000000
FFFFF000000000000000
FFFFF000000000000000
FFFFF000000000000000
FFFFF000000000000000
FFFFF000000000000000
FFFFF000000000000000
FFFFF000000000000000
FFFFF000000000000000
FFFFF000000000000000
FFFFF000000000000000
FFFFF000000000000000
FFFFF000000000000000
FFFFF000000000000000
FFFFF000000000000000
FFFFF000000000000000
FFFFF000000000000000
FFFFF000000000000000
FFFFF000000000000000
FFFFF000000000000000
FFFFF800000000000000
FFFFF800000000000000
FFFFF800000000000000
FFFFF800000000000000
FFFFFC00000000000000
FFFFFE00000000000000
7FFFFF00000000000000
7FFFFFE0000000000000
7FFFFFFFFFFFFFF00000
7FFFFFFFFFFFFFFF8000
7FFFFFFFFFFFFFFFE000
3FFFFFFFFFFFFFFFF800
3FFFFFFFFFFFFFFFFC00
1FFFFFFFFFFFFFFFFE00
1FFFFFFFFFFFFFFFFF00
0FFFFFFFFFFFFFFFFF80
0FFFFFFFFFFFFFFFFFC0
07FFFFFFFFFFFFFFFFC0
03FFFFFFFFFFFFFFFFE0
00FFFFFFFFFFFFFFFFE0
003FFFFFFFFFFFFFFFE0
000FFFFFFFFFFFFFFFF0
00007FFFFFFFFFFFFFF0
0000000000003FFFFFF0
00000000000007FFFFF0
00000000000003FFFFF0
00000000000001FFFFF0
00000000000001FFFFF8
00000000000000FFFFF8
00000000000000FFFFF8
00000000000000FFFFF8
00000000000000FFFFF8
000000000000007FFFF8
000000000000007FFFF8
000000000000007FFFF8
000000000000007FFFF8
000000000000007FFFF8
000000000000007FFFF8
000000000000007FFFF8
000000000000007FFFF8
000000000000007FFFF8
000000000000007FFFF8
000000000000007FFFF8
000000000000007FFFF8
000000000000007FFFF8
000000000000007FFFF8
000000000000007FFFF8
000000000000007FFFF8
000000000000007FFFF8
000000000000007FFFF8
000000000000007FFFF8
000000000000007FFFF8
000000000000007FFFF8
000000000000007FFFF8
000000000000007FFFF8
000000000000007FFFF8
000000000000007FFFF8
000000000000007FFFF8
000000000000007FFFF8
000000000000007FFFF8
000000000000007FFFF8
000000000000007FFFF8
00000000000000FFFFF8
00000000000000FFFFF8
00000000000000FFFFF8
00000000000000FFFFF8
00000000000001FFFFF8
00000000000001FFFFF0
00000000000003FFFFF0
00000000000007FFFFF0
0000000000003FFFFFF0
FFFFFFFFFFFFFFFFFFF0
FFFFFFFFFFFFFFFFFFF0
FFFFFFFFFFFFFFFFFFE0
FFFFFFFFFFFFFFFFFFE0
7FFFFFFFFFFFFFFFFFE0
7FFFFFFFFFFFFFFFFFC0
7FFFFFFFFFFFFFFFFFC0
7FFFFFFFFFFFFFFFFF80
3FFFFFFFFFFFFFFFFF00
3FFFFFFFFFFFFFFFFF00
3FFFFFFFFFFFFFFFFC00
1FFFFFFFFFFFFFFFF800
0FFFFFFFFFFFFFFFE000
07FFFFFFFFFFFFFF8000
00FFFFFFFFFFFFF00000
00000001FFFF00000000
00000001FFFF00000000
00000001FFFF00000000
00000001FFFF00000000
00000001FFFF00000000
00000001FFFF00000000
00000001FFFF00000000
00000001FFFF00000000
00000001FFFF00000000
00000001FFFF00000000
00000001FFFF00000000
00000001FFFF00000000
00000001FFFF00000000
00000001FFFF00000000
00000001FFFF00000000
00000001FFFF00000000
00000001FFFF00000000
00000001FFFE00000000
00000001FFFE00000000
00000001FFF800000000
ENDCHAR
STARTCHAR 0025
ENCODING 37
SWIDTH 632 0
DWIDTH 158 0
BBX 132 175 13 0
BITMAP
0007FFFFFF800000000000001FFFF00000
00FFFFFFFFF80000000000007FFFE00000
03FFFFFFFFFE000000000001FFFFE00000
07FFFFFFFFFF800000000001FFFFC00000
0FFFFFFFFFFFC00000000003FFFFC00000
1FFFFFFFFFFFC00000000007FFFF800000
3FFFFFFFFFFFE00000000007FFFF800000
3FFFFFFFFFFFF0000000000FFFFF000000
7FFFFFFFFFFFF0000000000FFFFF000000
7FFFFFFFFFFFF0000000001FFFFE000000
7FFFFFFFFFFFF8000000001FFFFE000000
7FFFFFFFFFFFF8000000003FFFFC000000
7FFFFFFFFFFFF8000000003FFFFC000000
FFFFFC00FFFFF8000000007FFFF8000000
FFFFE0003FFFF8000000007FFFF8000000
FFFFC0001FFFF800000000FFFFF0000000
FFFF80000FFFF800000000FFFFF0000000
FFFF80000FFFF800000000FFFFE0000000
FFFF800007FFF800000001FFFFE0000000
FFFF800007FFF800000001FFFFE0000000
FFFF000007FFF800000003FFFFC0000000
FFFF000007FFFC00000003FFFFC0000000
FFFF000007FFFC00000007FFFF80000000
FFFF000007FFFC00000007FFFF80000000
FFFF000007FFFC0000000FFFFF00000000
FFFF000007FFFC0000000FFFFF00000000
FFFF000007FFFC0000001FFFFE00000000
FFFF000007FFFC0000001FFFFE00000000
FFFF000007FFFC0000003FFFFC00000000
FFFF000007FFFC0000003FFFFC00000000
FFFF000007FFFC0000007FFFF800000000
FFFF000007FFFC0000007FFFF800000000
FFFF000007FFFC000000FFFFF000000000
FFFF000007FFFC000000FFFFF000000000
FFFF000007FFFC000001FFFFE000000000
FFFF000007FFFC000001FFFFE000000000
FFFF000007FFFC000003FFFFC000000000
FFFF000007FFFC000003FFFFC000000000
FFFF000007FFFC000007FFFF8000000000
FFFF000007FFFC000007FFFF8000000000
FFFF000007FFFC00000FFFFF0000000000
FFFF000007FFFC00000FFFFF0000000000
FFFF000007FFFC00001FFFFE0000000000
FFFF000007FFFC00001FFFFE0000000000
FFFF000007FFFC00003FFFFC0000000000
FFFF000007FFFC00003FFFFC0000000000
FFFF000007FFFC00007FFFF80000000000
FFFF000007FFFC00007FFFF80000000000
FFFF000007FFFC0000FFFFF00000000000
FFFF000007FFFC0000FFFFF00000000000
FFFF000007FFFC0001FFFFE00000000000
FFFF000007FFFC0001FFFFE00000000000
FFFF000007FFF80003FFFFC00000000000
FFFF800007FFF80003FFFFC00000000000
FFFF800007FFF80007FFFF800000000000
FFFF80000FFFF80007FFFF800000000000
FFFF80000FFFF8000FFFFF000000000000
FFFFC0001FFFF8000FFFFF000000000000
FFFFE0003FFFF8000FFFFE000000000000
FFFFFC00FFFFF8001FFFFE000000000000
7FFFFFFFFFFFF8001FFFFE000000000000
7FFFFFFFFFFFF8003FFFFC000000000000
7FFFFFFFFFFFF8003FFFFC000000000000
7FFFFFFFFFFFF0007FFFF8000000000000
7FFFFFFFFFFFF0007FFFF8000000000000
3FFFFFFFFFFFF000FFFFF0000000000000
3FFFFFFFFFFFE000FFFFF0000000000000
1FFFFFFFFFFFE001FFFFE0000000000000
0FFFFFFFFFFFC001FFFFE0000000000000
07FFFFFFFFFF8003FFFFC0000000000000
03FFFFFFFFFE0003FFFFC0000000000000
00FFFFFFFFF80007FFFF80000000000000
0007FFFFFF800007FFFF80000000000000
000000000000000FFFFF00000000000000
000000000000000FFFFF00000000000000
000000000000001FFFFE00000000000000
000000000000001FFFFE00000000000000
000000000000003FFFFC00000000000000
000000000000003FFFFC00000000000000
000000000000007FFFF800000000000000
000000000000007FFFF800000000000000
00000000000000FFFFF000000000000000
00000000000000FFFFF000000000000000
00000000000001FFFFE000000000000000
00000000000001FFFFE000000000000000
00000000000003FFFFC000000000000000
00000000000003FFFFC000000000000000
00000000000007FFFF8000000000000000
00000000000007FFFF8000000000000000
0000000000000FFFFF0000000000000000
0000000000000FFFFF0000000000000000
0000000000001FFFFE0000000000000000
0000000000001FFFFE0000000000000000
0000000000003FFFFC0000000000000000
0000000000003FFFFC0000000000000000
0000000000007FFFF80000000000000000
0000000000007FFFF80000000000000000
0000000000007FFFF00000000000000000
000000000000FFFFF00000000000000000
000000000000FFFFF00000000000000000
000000000001FFFFE00000000000000000
000000000001FFFFE00000000000000000
000000000003FFFFC000001FFFFFFE0000
000000000003FFFFC00001FFFFFFFFE000
000000000007FFFF800007FFFFFFFFFC00
000000000007FFFF80001FFFFFFFFFFE00
00000000000FFFFF00003FFFFFFFFFFF00
00000000000FFFFF00003FFFFFFFFFFF80
00000000001FFFFE00007FFFFFFFFFFFC0
00000000001FFFFE0000FFFFFFFFFFFFC0
00000000003FFFFC0000FFFFFFFFFFFFC0
00000000003FFFFC0000FFFFFFFFFFFFE0
00000000007FFFF80001FFFFFFFFFFFFE0
00000000007FFFF80001FFFFFFFFFFFFE0
0000000000FFFFF00001FFFFFFFFFFFFE0
0000000000FFFFF00001FFFFF003FFFFF0
0000000001FFFFE00001FFFFC0007FFFF0
0000000001FFFFE00001FFFF80003FFFF0
0000000003FFFFC00001FFFF00001FFFF0
0000000003FFFFC00001FFFF00001FFFF0
0000000007FFFF800001FFFE00001FFFF0
0000000007FFFF800003FFFE00001FFFF0
000000000FFFFF000003FFFE00001FFFF0
000000000FFFFF000003FFFE00000FFFF0
000000001FFFFE000003FFFE00000FFFF0
000000001FFFFE000003FFFE00000FFFF0
000000003FFFFC000003FFFE00000FFFF0
000000003FFFFC000003FFFE00000FFFF0
000000007FFFF8000003FFFE00000FFFF0
000000007FFFF8000003FFFE00000FFFF0
00000000FFFFF0000003FFFE00000FFFF0
00000000FFFFF0000003FFFE00000FFFF0
00000001FFFFE0000003FFFE00000FFFF0
00000001FFFFE0000003FFFE00000FFFF0
00000003FFFFC0000003FFFE00000FFFF0
00000003FFFFC0000003FFFE00000FFFF0
00000003FFFF80000003FFFE00000FFFF0
00000007FFFF80000003FFFE00000FFFF0
00000007FFFF80000003FFFE00000FFFF0
0000000FFFFF00000003FFFE00000FFFF0
0000000FFFFF00000003FFFE00000FFFF0
0000001FFFFE00000003FFFE00000FFFF0
0000001FFFFE00000003FFFE00000FFFF0
0000003FFFFC00000003FFFE00000FFFF0
0000003FFFFC00000003FFFE00000FFFF0
0000007FFFF800000003FFFE00000FFFF0
0000007FFFF800000003FFFE00000FFFF0
000000FFFFF000000003FFFE00000FFFF0
000000FFFFF000000003FFFE00000FFFF0
000001FFFFE000000003FFFE00000FFFF0
000001FFFFE000000003FFFE00000FFFF0
000003FFFFC000000003FFFE00000FFFF0
000003FFFFC000000003FFFE00000FFFF0
000007FFFF8000000003FFFE00000FFFF0
000007FFFF8000000003FFFE00001FFFF0
00000FFFFF0000000003FFFE00001FFFF0
00000FFFFF0000000001FFFE00001FFFF0
00001FFFFE0000000001FFFF00001FFFF0
00001FFFFE0000000001FFFF00001FFFF0
00003FFFFC0000000001FFFF80003FFFF0
00003FFFFC0000000001FFFFC0007FFFF0
00007FFFF80000000001FFFFF003FFFFF0
00007FFFF80000000001FFFFFFFFFFFFE0
0000FFFFF00000000001FFFFFFFFFFFFE0
0000FFFFF00000000001FFFFFFFFFFFFE0
0001FFFFE00000000000FFFFFFFFFFFFE0
0001FFFFE00000000000FFFFFFFFFFFFE0
0003FFFFC00000000000FFFFFFFFFFFFC0
0003FFFFC000000000007FFFFFFFFFFFC0
0007FFFF8000000000007FFFFFFFFFFF80
0007FFFF8000000000003FFFFFFFFFFF00
000FFFFF0000000000001FFFFFFFFFFE00
000FFFFE00000000000007FFFFFFFFFC00
001FFFFC00000000000001FFFFFFFFF000
001FFFF0000000000000001FFFFFFE0000
ENDCHAR
STARTCHAR 0026
ENCODING 38
SWIDTH 452 0
DWIDTH 113 0
BBX 90 175 16 0
BITMAP
00007FFFFFFFFFF800000000
0007FFFFFFFFFFFE00000000
003FFFFFFFFFFFFF80000000
00FFFFFFFFFFFFFFC0000000
01FFFFFFFFFFFFFFC0000000
03FFFFFFFFFFFFFFE0000000
07FFFFFFFFFFFFFFE0000000
0FFFFFFFFFFFFFFFE0000000
0FFFFFFFFFFFFFFFF0000000
1FFFFFFFFFFFFFFFF0000000
1FFFFFFFFFFFFFFFF0000000
3FFFFFFFFFFFFFFFF0000000
3FFFFFFFFFFFFFFFF8000000
3FFFFFFFFFFFFFFFF8000000
7FFFFFFFFFFFFFFFF8000000
7FFFFFE00000000000000000
7FFFFF000000000000000000
7FFFFE000000000000000000
7FFFFC000000000000000000
7FFFFC000000000000000000
7FFFFC000000000000000000
7FFFF8000000000000000000
FFFFF8000000000000000000
FFFFF8000000000000000000
FFFFF8000000000000000000
FFFFF8000000000000000000
FFFFF8000000000000000000
FFFFF8000000000000000000
FFFFF8000000000000000000
FFFFF8000000000000000000
FFFFF8000000000000000000
FFFFF8000000000000000000
FFFFF8000000000000000000
FFFFF8000000000000000000
FFFFF8000000000000000000
FFFFF8000000000000000000
FFFFF8000000000000000000
FFFFF8000000000000000000
FFFFF8000000000000000000
FFFFF8000000000000000000
FFFFF8000000000000000000
FFFFF8000000000000000000
FFFFF8000000000000000000
FFFFF8000000000000000000
FFFFF8000000000000000000
FFFFF8000000000000000000
FFFFF8000000000000000000
FFFFF8000000000000000000
FFFFF8000000000000000000
FFFFF8000000000000000000
FFFFF8000000000000000000
FFFFF8000000000000000000
FFFFF8000000000000000000
FFFFF8000000000000000000
FFFFF8000000000000000000
FFFFF8000000000000000000
FFFFF8000000000000000000
FFFFF8000000000000000000
FFFFF8000000000000000000
FFFFF8000000000000000000
FFFFF8000000000000000000
FFFFF8000000000000000000
7FFFF8000000003FFFC00000
7FFFF8000000007FFFC00000
7FFFF800000000FFFFC00000
7FFFF800000000FFFFC00000
7FFFF800000001FFFFC00000
7FFFF800000001FFFFC00000
7FFFF800000001FFFFC00000
7FFFF800000001FFFFC00000
3FFFF800000001FFFFC00000
3FFFF800000001FFFFC00000
3FFFFC00000001FFFFC00000
3FFFFC00000001FFFFC00000
1FFFFE00000001FFFFC00000
1FFFFF00000001FFFFC00000
0FFFFFE0000001FFFFC00000
07FFFFFFFFFFFFFFFFFFFE00
03FFFFFFFFFFFFFFFFFFFF00
01FFFFFFFFFFFFFFFFFFFF80
00FFFFFFFFFFFFFFFFFFFF80
003FFFFFFFFFFFFFFFFFFF80
0007FFFFFFFFFFFFFFFFFF80
0003FFFFFFFFFFFFFFFFFF80
001FFFFFFFFFFFFFFFFFFFC0
007FFFFFFFFFFFFFFFFFFFC0
00FFFFFFFFFFFFFFFFFFFFC0
01FFFFFFFFFFFFFFFFFFFFC0
03FFFFFFFFFFFFFFFFFFFFC0
07FFFFFFFFFFFFFFFFFFFFC0
0FFFFFFFFFFFFFFFFFFFFFC0
0FFFFFFFFFFFFFFFFFFFFFC0
1FFFFFE0000001FFFFC00000
1FFFFF00000001FFFFC00000
3FFFFE00000001FFFFC00000
3FFFFC00000001FFFFC00000
3FFFFC00000001FFFFC00000
7FFFFC00000001FFFFC00000
7FFFF800000001FFFFC00000
7FFFF800000001FFFFC00000
7FFFF800000001FFFFC00000
7FFFF800000001FFFFC00000
7FFFF800000001FFFFC00000
7FFFF800000001FFFFC00000
FFFFF800000001FFFFC00000
FFFFF800000001FFFFC00000
FFFFF800000001FFFFC00000
FFFFF800000001FFFFC00000
FFFFF800000001FFFFC00000
FFFFF800000001FFFFC00000
FFFFF800000001FFFFC00000
FFFFF800000001FFFFC00000
FFFFF800000001FFFFC00000
FFFFF800000001FFFFC00000
FFFFF800000001FFFFC00000
FFFFF800000001FFFFC00000
FFFFF800000001FFFFC00000
FFFFF800000001FFFFC00000
FFFFF800000001FFFFC00000
FFFFF800000001FFFFC00000
FFFFF800000001FFFFC00000
FFFFF800000001FFFFC00000
FFFFF800000001FFFFC00000
FFFFF800000001FFFFC00000
FFFFF800000001FFFFC00000
FFFFF800000001FFFFC00000
FFFFF800000001FFFFC00000
FFFFF800000001FFFFC00000
FFFFF800000001FFFFC00000
FFFFF800000001FFFFC00000
FFFFF800000001FFFFC00000
FFFFF800000001FFFFC00000
FFFFF800000001FFFFC00000
FFFFF800000001FFFFC00000
FFFFF800000001FFFFC00000
FFFFF800000001FFFFC00000
FFFFF800000001FFFFC00000
FFFFF800000001FFFFC00000
FFFFF800000001FFFFC00000
FFFFF800000001FFFFC00000
FFFFF800000001FFFFC00000
FFFFF800000001FFFFC00000
FFFFF800000001FFFFC00000
FFFFF800000001FFFFC00000
FFFFF800000001FFFFC00000
FFFFF800000001FFFFC00000
FFFFF800000001FFFFC00000
FFFFF800000001FFFFC00000
FFFFF800000001FFFFC00000
FFFFF800000001FFFFC00000
FFFFF800000001FFFFC00000
FFFFF800000001FFFFC00000
FFFFF800000001FFFFC00000
7FFFF800000001FFFFC00000
7FFFF800000001FFFFC00000
7FFFFC00000001FFFFC00000
7FFFFC00000001FFFFC00000
7FFFFE00000001FFFFC00000
7FFFFF00000001FFFFC00000
7FFFFFE0000001FFFFC00000
7FFFFFFFFFF801FFFFC00000
3FFFFFFFFFF801FFFFC00000
3FFFFFFFFFF801FFFFC00000
3FFFFFFFFFF801FFFFC00000
1FFFFFFFFFF801FFFFC00000
1FFFFFFFFFF801FFFFC00000
0FFFFFFFFFF801FFFFC00000
0FFFFFFFFFF801FFFFC00000
07FFFFFFFFF801FFFFC00000
03FFFFFFFFF801FFFFC00000
01FFFFFFFFF801FFFFC00000
00FFFFFFFFF801FFFF800000
003FFFFFFFF801FFFF800000
0007FFFFFFF001FFFF800000
00007FFFFFE001FFFE000000
ENDCHAR
STARTCHAR 0027
ENCODING 39
SWIDTH 192 0
DWIDTH 48 0
BBX 17 40 15 135
BITMAP
FFFC00
FFFF00
FFFF80
FFFF80
FFFF80
FFFF80
FFFF80
FFFF80
FFFF80
FFFF80
FFFF80
FFFF80
FFFF80
FFFF80
FFFF80
FFFF80
FFFF80
FFFF80
FFFF80
FFFF80
FFFF80
FFFF80
FFFF80
FFFF80
FFFF80
FFFF80
FFFF80
FFFF80
FFFF80
FFFF80
FFFF80
FFFF80
FFFF80
FFFF80
FFFF80
FFFF80
7FFF80
7FFF80
3FFF80
1FFF80
ENDCHAR
STARTCHAR 0028
ENCODING 40
SWIDTH 280 0
DWIDTH 70 0
BBX 42 224 18 -33
BITMAP
0000FFFFFF00
001FFFFFFF80
007FFFFFFFC0
01FFFFFFFFC0
03FFFFFFFFC0
07FFFFFFFFC0
0FFFFFFFFFC0
1FFFFFFFFFC0
1FFFFFFFFFC0
3FFFFFFFFFC0
3FFFFFFFFFC0
7FFFFFFFFFC0
7FFFFFFFFFC0
7FFFFFFFFFC0
7FFFFFFFFFC0
FFFFFF800000
FFFFFE000000
FFFFF8000000
FFFFF8000000
FFFFF0000000
FFFFF0000000
FFFFF0000000
FFFFE0000000
FFFFE0000000
FFFFE0000000
FFFFE0000000
FFFFE0000000
FFFFE0000000
FFFFE0000000
FFFFE0000000
FFFFE0000000
FFFFE0000000
FFFFE0000000
FFFFE0000000
FFFFE0000000
FFFFE0000000
FFFFE0000000
FFFFE0000000
FFFFE0000000
FFFFE0000000
FFFFE0000000
FFFFE0000000
FFFFE0000000
FFFFE0000000
FFFFE0000000
FFFFE0000000
FFFFE0000000
FFFFE0000000
FFFFE0000000
FFFFE0000000
FFFFE0000000
FFFFE0000000
FFFFE0000000
FFFFE0000000
FFFFE0000000
FFFFE0000000
FFFFE0000000
FFFFE0000000
FFFFE0000000
FFFFE0000000
FFFFE0000000
FFFFE0000000
FFFFE0000000
FFFFE0000000
FFFFE0000000
FFFFE0000000
FFFFE0000000
FFFFE0000000
FFFFE0000000
FFFFE0000000
FFFFE0000000
FFFFE0000000
FFFFE0000000
FFFFE0000000
FFFFE0000000
FFFFE0000000
FFFFE0000000
FFFFE0000000
FFFFE0000000
FFFFE0000000
FFFFE0000000
FFFFE0000000
FFFFE0000000
FFFFE0000000
FFFFE0000000
FFFFE0000000
FFFFE0000000
FFFFE0000000
FFFFE0000000
FFFFE0000000
FFFFE0000000
FFFFE0000000
FFFFE0000000
FFFFE0000000
FFFFE0000000
FFFFE0000000
FFFFE0000000
FFFFE0000000
FFFFE0000000
FFFFE0000000
FFFFE0000000
FFFFE0000000
FFFFE0000000
FFFFE0000000
FFFFE0000000
FFFFE0000000
FFFFE0000000
FFFFE0000000
FFFFE0000000
FFFFE0000000
FFFFE0000000
FFFFE0000000
FFFFE0000000
FFFFE0000000
FFFFE0000000
FFFFE0000000
FFFFE0000000
FFFFE0000000
FFFFE0000000
FFFFE0000000
FFFFE0000000
FFFFE0000000
FFFFE0000000
FFFFE0000000
FFFFE0000000
FFFFE0000000
FFFFE0000000
FFFFE0000000
FFFFE0000000
FFFFE0000000
FFFFE0000000
FFFFE0000000
FFFFE0000000
FFFFE0000000
FFFFE0000000
FFFFE0000000
FFFFE0000000
FFFFE0000000
FFFFE0000000
FFFFE0000000
FFFFE0000000
FFFFE0000000
FFFFE0000000
FFFFE0000000
FFFFE0000000
FFFFE0000000
FFFFE0000000
FFFFE0000000
FFFFE0000000
FFFFE0000000
FFFFE0000000
FFFFE0000000
FFFFE0000000
FFFFE0000000
FFFFE0000000
FFFFE0000000
FFFFE0000000
FFFFE0000000
FFFFE0000000
FFFFE0000000
FFFFE0000000
FFFFE0000000
FFFFE0000000
FFFFE0000000
FFFFE0000000
FFFFE0000000
FFFFE0000000
FFFFE0000000
FFFFE0000000
FFFFE0000000
FFFFE0000000
FFFFE0000000
FFFFE0000000
FFFFE0000000
FFFFE0000000
FFFFE0000000
FFFFE0000000
FFFFE0000000
FFFFE0000000
FFFFE0000000
FFFFE0000000
FFFFE0000000
FFFFE0000000
FFFFE0000000
FFFFE0000000
FFFFE0000000
FFFFE0000000
FFFFE0000000
FFFFE0000000
FFFFE0000000
FFFFE0000000
FFFFE0000000
FFFFE0000000
FFFFE0000000
FFFFE0000000
FFFFE0000000
FFFFE0000000
FFFFE0000000
FFFFE0000000
FFFFE0000000
FFFFE0000000
FFFFE0000000
FFFFE0000000
FFFFF0000000
FFFFF0000000
FFFFF8000000
FFFFF8000000
FFFFFE000000
FFFFFF800000
7FFFFFFFFFC0
7FFFFFFFFFC0
7FFFFFFFFFC0
7FFFFFFFFFC0
3FFFFFFFFFC0
3FFFFFFFFFC0
1FFFFFFFFFC0
1FFFFFFFFFC0
0FFFFFFFFFC0
07FFFFFFFFC0
03FFFFFFFFC0
01FFFFFFFFC0
007FFFFFFFC0
001FFFFFFF80
0001FFFFFF00
ENDCHAR
STARTCHAR 0029
ENCODING 41
SWIDTH 280 0
DWIDTH 70 0
BBX 43 224 10 -33
BITMAP
1FFFFFE00000
7FFFFFFE0000
FFFFFFFFC000
FFFFFFFFE000
FFFFFFFFF800
FFFFFFFFFC00
FFFFFFFFFC00
FFFFFFFFFE00
FFFFFFFFFF00
FFFFFFFFFF00
FFFFFFFFFF80
FFFFFFFFFF80
FFFFFFFFFF80
FFFFFFFFFF80
FFFFFFFFFFC0
00007FFFFFC0
00000FFFFFC0
000007FFFFC0
000003FFFFC0
000003FFFFC0
000003FFFFC0
000001FFFFC0
000001FFFFC0
000001FFFFC0
000001FFFFE0
000001FFFFE0
000001FFFFE0
000001FFFFE0
000001FFFFE0
000001FFFFE0
000001FFFFE0
000001FFFFE0
000001FFFFE0
000001FFFFE0
000001FFFFE0
000001FFFFE0
000001FFFFE0
000001FFFFE0
000001FFFFE0
000001FFFFE0
000001FFFFE0
000001FFFFE0
000001FFFFE0
000001FFFFE0
000001FFFFE0
000001FFFFE0
000001FFFFE0
000001FFFFE0
000001FFFFE0
000001FFFFE0
000001FFFFE0
000001FFFFE0
000001FFFFE0
000001FFFFE0
000001FFFFE0
000001FFFFE0
000001FFFFE0
000001FFFFE0
000001FFFFE0
000001FFFFE0
000001FFFFE0
000001FFFFE0
000001FFFFE0
000001FFFFE0
000001FFFFE0
000001FFFFE0
000001FFFFE0
000001FFFFE0
000001FFFFE0
000001FFFFE0
000001FFFFE0
000001FFFFE0
000001FFFFE0
000001FFFFE0
000001FFFFE0
000001FFFFE0
000001FFFFE0
000001FFFFE0
000001FFFFE0
000001FFFFE0
000001FFFFE0
000001FFFFE0
000001FFFFE0
000001FFFFE0
000001FFFFE0
000001FFFFE0
000001FFFFE0
000001FFFFE0
000001FFFFE0
000001FFFFE0
000001FFFFE0
000001FFFFE0
000001FFFFE0
000001FFFFE0
000001FFFFE0
000001FFFFE0
000001FFFFE0
000001FFFFE0
000001FFFFE0
000001FFFFE0
000001FFFFE0
000001FFFFE0
000001FFFFE0
000001FFFFE0
000001FFFFE0
000001FFFFE0
000001FFFFE0
000001FFFFE0
000001FFFFE0
000001FFFFE0
000001FFFFE0
000001FFFFE0
000001FFFFE0
000001FFFFE0
000001FFFFE0
000001FFFFE0
000001FFFFE0
000001FFFFE0
000001FFFFE0
000001FFFFE0
000001FFFFE0
000001FFFFE0
000001FFFFE0
000001FFFFE0
000001FFFFE0
000001FFFFE0
000001FFFFE0
000001FFFFE0
000001FFFFE0
000001FFFFE0
000001FFFFE0
000001FFFFE0
000001FFFFE0
000001FFFFE0
000001FFFFE0
000001FFFFE0
000001FFFFE0
000001FFFFE0
000001FFFFE0
000001FFFFE0
000001FFFFE0
000001FFFFE0
000001FFFFE0
000001FFFFE0
000001FFFFE0
000001FFFFE0
000001FFFFE0
000001FFFFE0
000001FFFFE0
000001FFFFE0
000001FFFFE0
000001FFFFE0
000001FFFFE0
000001FFFFE0
000001FFFFE0
000001FFFFE0
000001FFFFE0
000001FFFFE0
000001FFFFE0
000001FFFFE0
000001FFFFE0
000001FFFFE0
000001FFFFE0
000001FFFFE0
000001FFFFE0
000001FFFFE0
000001FFFFE0
000001FFFFE0
000001FFFFE0
000001FFFFE0
000001FFFFE0
000001FFFFE0
000001FFFFE0
000001FFFFE0
000001FFFFE0
000001FFFFE0
000001FFFFE0
000001FFFFE0
000001FFFFE0
000001FFFFE0
000001FFFFE0
000001FFFFE0
000001FFFFE0
000001FFFFE0
000001FFFFE0
000001FFFFE0
000001FFFFE0
000001FFFFE0
000001FFFFE0
000001FFFFE0
000001FFFFE0
000001FFFFE0
000001FFFFE0
000001FFFFE0
000001FFFFE0
000001FFFFE0
000001FFFFE0
000001FFFFE0
000001FFFFE0
000001FFFFE0
000001FFFFE0
000001FFFFC0
000001FFFFC0
000003FFFFC0
000003FFFFC0
000003FFFFC0
000007FFFFC0
00000FFFFFC0
00007FFFFFC0
FFFFFFFFFFC0
FFFFFFFFFF80
FFFFFFFFFF80
FFFFFFFFFF80
FFFFFFFFFF80
FFFFFFFFFF00
FFFFFFFFFF00
FFFFFFFFFE00
FFFFFFFFFE00
FFFFFFFFFC00
FFFFFFFFF800
FFFFFFFFE000
FFFFFFFFC000
7FFFFFFE0000
3FFFFFE00000
ENDCHAR
STARTCHAR 002A
ENCODING 42
SWIDTH 440 0
DWIDTH 110 0
BBX 84 90 13 90
BITMAP
0000000003FF8000000000
000000000FFF8000000000
000000001FFF8000000000
000000001FFF8000000000
000000001FFF8000000000
000000001FFF8000000000
000000001FFF8000000000
000000001FFF8000000000
000000001FFF8000000000
000000001FFF8000000000
000000001FFF8000000000
000000001FFF8000000000
000000001FFF8000000000
000000001FFF8000000000
000000001FFF8000000000
000000001FFF8000000000
000000001FFF8000000000
038000001FFF8000000000
07E000001FFF8000003C00
07F000001FFF800000FE00
0FFC00001FFF800003FF00
0FFF00001FFF80000FFF00
1FFF80001FFF80003FFF80
1FFFE0001FFF80007FFF80
3FFFF8001FFF8001FFFFC0
3FFFFE001FFF8007FFFFE0
7FFFFF001FFF800FFFFFE0
7FFFFFC01FFF803FFFFFF0
7FFFFFF01FFF80FFFFFFF0
3FFFFFF81FFF83FFFFFFE0
1FFFFFFE1FFF87FFFFFFC0
0FFFFFFF9FFF9FFFFFFF00
03FFFFFFFFFFFFFFFFFC00
00FFFFFFFFFFFFFFFFF800
007FFFFFFFFFFFFFFFE000
001FFFFFFFFFFFFFFF8000
0007FFFFFFFFFFFFFE0000
0003FFFFFFFFFFFFFC0000
0000FFFFFFFFFFFFF00000
00003FFFFFFFFFFFC00000
00000FFFFFFFFFFF000000
000007FFFFFFFFFE000000
000001FFFFFFFFF8000000
0000007FFFFFFFE0000000
0000003FFFFFFFC0000000
0000001FFFFFFF80000000
0000007FFFFFFFE0000000
000001FFFFFFFFF8000000
000003FFFFFFFFFC000000
00000FFFFFFFFFFF000000
00003FFFFFFFFFFFC00000
0000FFFFFFFFFFFFF00000
0001FFFFFFFFFFFFF80000
0007FFFFFFFFFFFFFE0000
001FFFFFFFFFFFFFFF8000
007FFFFFFFFFFFFFFFE000
00FFFFFFFFFFFFFFFFF000
03FFFFFFFFFFFFFFFFFC00
0FFFFFFF9FFF9FFFFFFF00
3FFFFFFF1FFF8FFFFFFF80
7FFFFFFC1FFF83FFFFFFC0
FFFFFFF01FFF80FFFFFFE0
FFFFFFC01FFF803FFFFFE0
7FFFFF801FFF801FFFFFE0
7FFFFE001FFF8007FFFFC0
3FFFF8001FFF8001FFFFC0
1FFFE0001FFF80007FFF80
1FFFC0001FFF80003FFF80
0FFF00001FFF80000FFF00
0FFC00001FFF800003FF00
07F000001FFF800000FE00
03C000001FFF8000007E00
000000001FFF8000001C00
000000001FFF8000000000
000000001FFF8000000000
000000001FFF8000000000
000000001FFF8000000000
000000001FFF8000000000
000000001FFF8000000000
000000001FFF8000000000
000000001FFF8000000000
000000001FFF8000000000
000000001FFF8000000000
000000001FFF8000000000
000000001FFF8000000000
000000001FFF8000000000
000000001FFF8000000000
000000001FFF8000000000
000000001FFF0000000000
000000001FFC0000000000
ENDCHAR
STARTCHAR 002B
ENCODING 43
SWIDTH 436 0
DWIDTH 109 0
BBX 75 76 17 53
BITMAP
000000007FF800000000
00000000FFF800000000
00000001FFF800000000
00000001FFF800000000
00000003FFF800000000
00000003FFF800000000
00000003FFF800000000
00000003FFF800000000
00000003FFF800000000
00000003FFF800000000
00000003FFF800000000
00000003FFF800000000
00000003FFF800000000
00000003FFF800000000
00000003FFF800000000
00000003FFF800000000
00000003FFF800000000
00000003FFF800000000
00000003FFF800000000
00000003FFF800000000
00000003FFF800000000
00000003FFF800000000
00000003FFF800000000
00000003FFF800000000
00000003FFF800000000
00000003FFF800000000
00000003FFF800000000
00000003FFF800000000
00000003FFF800000000
00000003FFF800000000
FFFFFFFFFFFFFFFFFF00
FFFFFFFFFFFFFFFFFFC0
FFFFFFFFFFFFFFFFFFC0
FFFFFFFFFFFFFFFFFFE0
FFFFFFFFFFFFFFFFFFE0
FFFFFFFFFFFFFFFFFFE0
FFFFFFFFFFFFFFFFFFE0
FFFFFFFFFFFFFFFFFFE0
FFFFFFFFFFFFFFFFFFE0
FFFFFFFFFFFFFFFFFFE0
FFFFFFFFFFFFFFFFFFE0
FFFFFFFFFFFFFFFFFFE0
7FFFFFFFFFFFFFFFFFE0
7FFFFFFFFFFFFFFFFFE0
1FFFFFFFFFFFFFFFFFE0
00000003FFF800000000
00000003FFF800000000
00000003FFF800000000
00000003FFF800000000
00000003FFF800000000
00000003FFF800000000
00000003FFF800000000
00000003FFF800000000
00000003FFF800000000
00000003FFF800000000
00000003FFF800000000
00000003FFF800000000
00000003FFF800000000
00000003FFF800000000
00000003FFF800000000
00000003FFF800000000
00000003FFF800000000
00000003FFF800000000
00000003FFF800000000
00000003FFF800000000
00000003FFF800000000
00000003FFF800000000
00000003FFF800000000
00000003FFF800000000
00000003FFF800000000
00000003FFF800000000
00000003FFF800000000
00000003FFF000000000
00000003FFF000000000
00000003FFE000000000
00000003FFC000000000
ENDCHAR
STARTCHAR 002C
ENCODING 44
SWIDTH 216 0
DWIDTH 54 0
BBX 22 54 16 -34
BITMAP
FFFFE0
FFFFF8
FFFFFC
FFFFFC
FFFFFC
FFFFFC
FFFFFC
FFFFFC
FFFFFC
FFFFFC
FFFFFC
FFFFFC
FFFFFC
FFFFFC
FFFFFC
FFFFFC
7FFFFC
7FFFFC
3FFFFC
1FFFFC
00FFFC
00FFFC
00FFFC
00FFFC
00FFFC
00FFFC
00FFFC
00FFFC
00FFFC
00FFFC
00FFFC
00FFFC
00FFFC
00FFFC
00FFFC
00FFFC
00FFF8
00FFF8
00FFF8
00FFF8
00FFF0
00FFF0
00FFE0
00FFE0
00FFE0
00FFC0
00FF80
00FF80
00FF00
00FE00
00FC00
00F800
00F000
008000
ENDCHAR
STARTCHAR 002D
ENCODING 45
SWIDTH 432 0
DWIDTH 108 0
BBX 76 15 16 84
BITMAP
FFFFFFFFFFFFFFFFFF00
FFFFFFFFFFFFFFFFFFC0
FFFFFFFFFFFFFFFFFFE0
FFFFFFFFFFFFFFFFFFE0
FFFFFFFFFFFFFFFFFFE0
FFFFFFFFFFFFFFFFFFE0
FFFFFFFFFFFFFFFFFFE0
FFFFFFFFFFFFFFFFFFF0
FFFFFFFFFFFFFFFFFFF0
7FFFFFFFFFFFFFFFFFF0
7FFFFFFFFFFFFFFFFFF0
7FFFFFFFFFFFFFFFFFF0
7FFFFFFFFFFFFFFFFFF0
3FFFFFFFFFFFFFFFFFF0
0FFFFFFFFFFFFFFFFFF0
ENDCHAR
STARTCHAR 002E
ENCODING 46
SWIDTH 216 0
DWIDTH 54 0
BBX 22 20 16 0
BITMAP
FFFFE0
FFFFF8
FFFFFC
FFFFFC
FFFFFC
FFFFFC
FFFFFC
FFFFFC
FFFFFC
FFFFFC
FFFFFC
FFFFFC
FFFFFC
FFFFFC
FFFFFC
FFFFFC
7FFFFC
7FFFFC
3FFFFC
1FFFFC
ENDCHAR
STARTCHAR 002F
ENCODING 47
SWIDTH 392 0
DWIDTH 98 0
BBX 78 220 10 -30
BITMAP
0000000000000003FFFC
000000000000000FFFF8
000000000000001FFFF8
000000000000003FFFF8
000000000000003FFFF8
000000000000007FFFF0
000000000000007FFFF0
000000000000007FFFF0
000000000000007FFFE0
00000000000000FFFFE0
00000000000000FFFFE0
00000000000000FFFFE0
00000000000001FFFFC0
00000000000001FFFFC0
00000000000001FFFFC0
00000000000001FFFFC0
00000000000003FFFF80
00000000000003FFFF80
00000000000003FFFF80
00000000000003FFFF80
00000000000007FFFF00
00000000000007FFFF00
00000000000007FFFF00
00000000000007FFFF00
0000000000000FFFFE00
0000000000000FFFFE00
0000000000000FFFFE00
0000000000001FFFFC00
0000000000001FFFFC00
0000000000001FFFFC00
0000000000001FFFFC00
0000000000003FFFF800
0000000000003FFFF800
0000000000003FFFF800
0000000000003FFFF800
0000000000007FFFF000
0000000000007FFFF000
0000000000007FFFF000
0000000000007FFFF000
000000000000FFFFE000
000000000000FFFFE000
000000000000FFFFE000
000000000001FFFFC000
000000000001FFFFC000
000000000001FFFFC000
000000000001FFFFC000
000000000003FFFF8000
000000000003FFFF8000
000000000003FFFF8000
000000000003FFFF8000
000000000007FFFF0000
000000000007FFFF0000
000000000007FFFF0000
000000000007FFFF0000
00000000000FFFFE0000
00000000000FFFFE0000
00000000000FFFFE0000
00000000001FFFFC0000
00000000001FFFFC0000
00000000001FFFFC0000
00000000001FFFFC0000
00000000003FFFF80000
00000000003FFFF80000
00000000003FFFF80000
00000000003FFFF80000
00000000007FFFF00000
00000000007FFFF00000
00000000007FFFF00000
00000000007FFFF00000
0000000000FFFFE00000
0000000000FFFFE00000
0000000000FFFFE00000
0000000001FFFFC00000
0000000001FFFFC00000
0000000001FFFFC00000
0000000001FFFFC00000
0000000003FFFF800000
0000000003FFFF800000
0000000003FFFF800000
0000000003FFFF800000
0000000007FFFF000000
0000000007FFFF000000
0000000007FFFF000000
0000000007FFFF000000
000000000FFFFE000000
000000000FFFFE000000
000000000FFFFE000000
000000000FFFFC000000
000000001FFFFC000000
000000001FFFFC000000
000000001FFFFC000000
000000003FFFF8000000
000000003FFFF8000000
000000003FFFF8000000
000000003FFFF8000000
000000007FFFF0000000
000000007FFFF0000000
000000007FFFF0000000
000000007FFFF0000000
00000000FFFFE0000000
00000000FFFFE0000000
00000000FFFFE0000000
00000000FFFFC0000000
00000001FFFFC0000000
00000001FFFFC0000000
00000001FFFFC0000000
00000003FFFF80000000
00000003FFFF80000000
00000003FFFF80000000
00000003FFFF80000000
00000007FFFF00000000
00000007FFFF00000000
00000007FFFF00000000
00000007FFFF00000000
0000000FFFFE00000000
0000000FFFFE00000000
0000000FFFFE00000000
0000000FFFFC00000000
0000001FFFFC00000000
0000001FFFFC00000000
0000001FFFFC00000000
0000003FFFF800000000
0000003FFFF800000000
0000003FFFF800000000
0000003FFFF800000000
0000007FFFF000000000
0000007FFFF000000000
0000007FFFF000000000
0000007FFFF000000000
000000FFFFE000000000
000000FFFFE000000000
000000FFFFE000000000
000000FFFFC000000000
000001FFFFC000000000
000001FFFFC000000000
000001FFFFC000000000
000003FFFF8000000000
000003FFFF8000000000
000003FFFF8000000000
000003FFFF8000000000
000007FFFF0000000000
000007FFFF0000000000
000007FFFF0000000000
000007FFFF0000000000
00000FFFFE0000000000
00000FFFFE0000000000
00000FFFFE0000000000
00000FFFFE0000000000
00001FFFFC0000000000
00001FFFFC0000000000
00001FFFFC0000000000
00003FFFF80000000000
00003FFFF80000000000
00003FFFF80000000000
00003FFFF80000000000
00007FFFF00000000000
00007FFFF00000000000
00007FFFF00000000000
00007FFFF00000000000
0000FFFFE00000000000
0000FFFFE00000000000
0000FFFFE00000000000
0000FFFFE00000000000
0001FFFFC00000000000
0001FFFFC00000000000
0001FFFFC00000000000
0003FFFF800000000000
0003FFFF800000000000
0003FFFF800000000000
0003FFFF800000000000
0007FFFF000000000000
0007FFFF000000000000
0007FFFF000000000000
0007FFFF000000000000
000FFFFE000000000000
000FFFFE000000000000
000FFFFE000000000000
000FFFFE000000000000
001FFFFC000000000000
001FFFFC000000000000
001FFFFC000000000000
003FFFF8000000000000
003FFFF8000000000000
003FFFF8000000000000
003FFFF8000000000000
007FFFF0000000000000
007FFFF0000000000000
007FFFF0000000000000
007FFFF0000000000000
00FFFFE0000000000000
00FFFFE0000000000000
00FFFFE0000000000000
00FFFFE0000000000000
01FFFFC0000000000000
01FFFFC0000000000000
01FFFFC0000000000000
03FFFF80000000000000
03FFFF80000000000000
03FFFF80000000000000
03FFFF80000000000000
07FFFF00000000000000
07FFFF00000000000000
07FFFF00000000000000
07FFFF00000000000000
0FFFFE00000000000000
0FFFFE00000000000000
0FFFFE00000000000000
0FFFFE00000000000000
1FFFFC00000000000000
1FFFFC00000000000000
1FFFFC00000000000000
1FFFF800000000000000
3FFFF800000000000000
3FFFF800000000000000
3FFFF800000000000000
7FFFF000000000000000
7FFFF000000000000000
7FFFE000000000000000
7FFFC000000000000000
FFFF0000000000000000
ENDCHAR
STARTCHAR 0030
ENCODING 48
SWIDTH 440 0
DWIDTH 110 0
BBX 75 175 17 0
BITMAP
00007FFFFFFFFFC00000
0007FFFFFFFFFFFE0000
003FFFFFFFFFFFFFC000
00FFFFFFFFFFFFFFE000
01FFFFFFFFFFFFFFF800
03FFFFFFFFFFFFFFFC00
07FFFFFFFFFFFFFFFE00
0FFFFFFFFFFFFFFFFF00
0FFFFFFFFFFFFFFFFF00
1FFFFFFFFFFFFFFFFF80
1FFFFFFFFFFFFFFFFF80
3FFFFFFFFFFFFFFFFFC0
3FFFFFFFFFFFFFFFFFC0
3FFFFFFFFFFFFFFFFFC0
7FFFFFFFFFFFFFFFFFC0
7FFFFFC000003FFFFFE0
7FFFFE00000007FFFFE0
7FFFFC00000003FFFFE0
7FFFF800000001FFFFE0
7FFFF800000001FFFFE0
7FFFF000000001FFFFE0
7FFFF000000000FFFFE0
FFFFF000000000FFFFE0
FFFFF000000000FFFFE0
FFFFE000000000FFFFE0
FFFFE000000000FFFFE0
FFFFE000000000FFFFE0
FFFFE000000000FFFFE0
FFFFE000000000FFFFE0
FFFFE000000000FFFFE0
FFFFE000000000FFFFE0
FFFFE000000000FFFFE0
FFFFE000000000FFFFE0
FFFFE000000000FFFFE0
FFFFE000000000FFFFE0
FFFFE000000000FFFFE0
FFFFE000000000FFFFE0
FFFFE000000000FFFFE0
FFFFE000000000FFFFE0
FFFFE000000000FFFFE0
FFFFE000000000FFFFE0
FFFFE000000000FFFFE0
FFFFE000000000FFFFE0
FFFFE000000000FFFFE0
FFFFE000000000FFFFE0
FFFFE000000000FFFFE0
FFFFE000000000FFFFE0
FFFFE000000000FFFFE0
FFFFE000000000FFFFE0
FFFFE000000000FFFFE0
FFFFE000000000FFFFE0
FFFFE000000000FFFFE0
FFFFE000000000FFFFE0
FFFFE000000000FFFFE0
FFFFE000000000FFFFE0
FFFFE000000000FFFFE0
FFFFE000000000FFFFE0
FFFFE000000000FFFFE0
FFFFE000000000FFFFE0
FFFFE000000000FFFFE0
FFFFE000000000FFFFE0
FFFFE000000000FFFFE0
FFFFE000000000FFFFE0
FFFFE000000000FFFFE0
FFFFE000000000FFFFE0
FFFFE000000000FFFFE0
FFFFE000000000FFFFE0
FFFFE000000000FFFFE0
FFFFE000000000FFFFE0
FFFFE000000000FFFFE0
FFFFE000000000FFFFE0
FFFFE000000000FFFFE0
FFFFE000000000FFFFE0
FFFFE000000000FFFFE0
FFFFE000000000FFFFE0
FFFFE000000000FFFFE0
FFFFE000000000FFFFE0
FFFFE000000000FFFFE0
FFFFE000000000FFFFE0
FFFFE000000000FFFFE0
FFFFE000000000FFFFE0
FFFFE000000000FFFFE0
FFFFE000000000FFFFE0
FFFFE000000000FFFFE0
FFFFE000000000FFFFE0
FFFFE000000000FFFFE0
FFFFE000000000FFFFE0
FFFFE000000000FFFFE0
FFFFE000000000FFFFE0
FFFFE000000000FFFFE0
FFFFE000000000FFFFE0
FFFFE000000000FFFFE0
FFFFE000000000FFFFE0
FFFFE000000000FFFFE0
FFFFE000000000FFFFE0
FFFFE000000000FFFFE0
FFFFE000000000FFFFE0
FFFFE000000000FFFFE0
FFFFE000000000FFFFE0
FFFFE000000000FFFFE0
FFFFE000000000FFFFE0
FFFFE000000000FFFFE0
FFFFE000000000FFFFE0
FFFFE000000000FFFFE0
FFFFE000000000FFFFE0
FFFFE000000000FFFFE0
FFFFE000000000FFFFE0
FFFFE000000000FFFFE0
FFFFE000000000FFFFE0
FFFFE000000000FFFFE0
FFFFE000000000FFFFE0
FFFFE000000000FFFFE0
FFFFE000000000FFFFE0
FFFFE000000000FFFFE0
FFFFE000000000FFFFE0
FFFFE000000000FFFFE0
FFFFE000000000FFFFE0
FFFFE000000000FFFFE0
FFFFE000000000FFFFE0
FFFFE000000000FFFFE0
FFFFE000000000FFFFE0
FFFFE000000000FFFFE0
FFFFE000000000FFFFE0
FFFFE000000000FFFFE0
FFFFE000000000FFFFE0
FFFFE000000000FFFFE0
FFFFE000000000FFFFE0
FFFFE000000000FFFFE0
FFFFE000000000FFFFE0
FFFFE000000000FFFFE0
FFFFE000000000FFFFE0
FFFFE000000000FFFFE0
FFFFE000000000FFFFE0
FFFFE000000000FFFFE0
FFFFE000000000FFFFE0
FFFFE000000000FFFFE0
FFFFE000000000FFFFE0
FFFFE000000000FFFFE0
FFFFE000000000FFFFE0
FFFFE000000000FFFFE0
FFFFE000000000FFFFE0
FFFFE000000000FFFFE0
FFFFE000000000FFFFE0
FFFFE000000000FFFFE0
FFFFE000000000FFFFE0
FFFFE000000000FFFFE0
FFFFE000000000FFFFE0
FFFFE000000000FFFFE0
FFFFE000000000FFFFE0
FFFFE000000000FFFFE0
FFFFE000000000FFFFE0
FFFFF000000000FFFFE0
7FFFF000000000FFFFE0
7FFFF000000000FFFFE0
7FFFF000000001FFFFE0
7FFFF800000001FFFFE0
7FFFF800000001FFFFE0
7FFFFC00000003FFFFE0
7FFFFE00000007FFFFE0
7FFFFFC000003FFFFFE0
7FFFFFFFFFFFFFFFFFC0
3FFFFFFFFFFFFFFFFFC0
3FFFFFFFFFFFFFFFFFC0
3FFFFFFFFFFFFFFFFFC0
1FFFFFFFFFFFFFFFFF80
1FFFFFFFFFFFFFFFFF80
0FFFFFFFFFFFFFFFFF00
0FFFFFFFFFFFFFFFFF00
07FFFFFFFFFFFFFFFE00
03FFFFFFFFFFFFFFFC00
01FFFFFFFFFFFFFFF800
00FFFFFFFFFFFFFFF000
003FFFFFFFFFFFFFC000
0007FFFFFFFFFFFE0000
00007FFFFFFFFFE00000
ENDCHAR
STARTCHAR 0031
ENCODING 49
SWIDTH 224 0
DWIDTH 56 0
BBX 20 175 18 0
BITMAP
000030
0003F0
001FF0
007FF0
01FFF0
03FFF0
07FFF0
0FFFF0
1FFFF0
3FFFF0
3FFFF0
7FFFF0
7FFFF0
7FFFF0
7FFFF0
FFFFF0
FFFFF0
FFFFF0
FFFFF0
FFFFF0
FFFFF0
FFFFF0
FFFFF0
FFFFF0
FFFFF0
FFFFF0
FFFFF0
FFFFF0
FFFFF0
FFFFF0
FFFFF0
FFFFF0
FFFFF0
FFFFF0
FFFFF0
FFFFF0
FFFFF0
FFFFF0
FFFFF0
FFFFF0
FFFFF0
FFFFF0
FFFFF0
FFFFF0
FFFFF0
FFFFF0
FFFFF0
FFFFF0
FFFFF0
FFFFF0
FFFFF0
FFFFF0
FFFFF0
FFFFF0
FFFFF0
FFFFF0
FFFFF0
FFFFF0
FFFFF0
FFFFF0
FFFFF0
FFFFF0
FFFFF0
FFFFF0
FFFFF0
FFFFF0
FFFFF0
FFFFF0
FFFFF0
FFFFF0
FFFFF0
FFFFF0
FFFFF0
FFFFF0
FFFFF0
FFFFF0
FFFFF0
FFFFF0
FFFFF0
FFFFF0
FFFFF0
FFFFF0
FFFFF0
FFFFF0
FFFFF0
FFFFF0
FFFFF0
FFFFF0
FFFFF0
FFFFF0
FFFFF0
FFFFF0
FFFFF0
FFFFF0
FFFFF0
FFFFF0
FFFFF0
FFFFF0
FFFFF0
FFFFF0
FFFFF0
FFFFF0
FFFFF0
FFFFF0
FFFFF0
FFFFF0
FFFFF0
FFFFF0
FFFFF0
FFFFF0
FFFFF0
FFFFF0
FFFFF0
FFFFF0
FFFFF0
FFFFF0
FFFFF0
FFFFF0
FFFFF0
FFFFF0
FFFFF0
FFFFF0
FFFFF0
FFFFF0
FFFFF0
FFFFF0
FFFFF0
FFFFF0
FFFFF0
FFFFF0
FFFFF0
FFFFF0
FFFFF0
FFFFF0
FFFFF0
FFFFF0
FFFFF0
FFFFF0
FFFFF0
FFFFF0
FFFFF0
FFFFF0
FFFFF0
FFFFF0
FFFFF0
FFFFF0
FFFFF0
FFFFF0
FFFFF0
FFFFF0
FFFFF0
FFFFF0
FFFFF0
FFFFF0
FFFFF0
FFFFF0
FFFFF0
FFFFF0
FFFFF0
FFFFF0
FFFFF0
FFFFF0
FFFFF0
FFFFF0
FFFFF0
FFFFF0
FFFFF0
FFFFF0
FFFFF0
FFFFF0
FFFFF0
FFFFF0
FFFFE0
FFFFE0
FFFF80
ENDCHAR
STARTCHAR 0032
ENCODING 50
SWIDTH 404 0
DWIDTH 101 0
BBX 70 175 15 0
BITMAP
000FFFFFFFFFF80000
007FFFFFFFFFFFC000
01FFFFFFFFFFFFF000
03FFFFFFFFFFFFFC00
03FFFFFFFFFFFFFF00
07FFFFFFFFFFFFFF80
0FFFFFFFFFFFFFFFC0
0FFFFFFFFFFFFFFFC0
1FFFFFFFFFFFFFFFE0
1FFFFFFFFFFFFFFFE0
1FFFFFFFFFFFFFFFF0
3FFFFFFFFFFFFFFFF0
3FFFFFFFFFFFFFFFF8
3FFFFFFFFFFFFFFFF8
3FFFFFFFFFFFFFFFF8
00000000001FFFFFF8
000000000003FFFFF8
000000000001FFFFFC
000000000000FFFFFC
0000000000007FFFFC
0000000000007FFFFC
0000000000007FFFFC
0000000000007FFFFC
0000000000003FFFFC
0000000000003FFFFC
0000000000003FFFFC
0000000000003FFFFC
0000000000003FFFFC
0000000000003FFFFC
0000000000003FFFFC
0000000000003FFFFC
0000000000003FFFFC
0000000000003FFFFC
0000000000003FFFFC
0000000000003FFFFC
0000000000003FFFFC
0000000000003FFFFC
0000000000003FFFFC
0000000000003FFFFC
0000000000003FFFFC
0000000000003FFFFC
0000000000003FFFFC
0000000000003FFFFC
0000000000003FFFFC
0000000000003FFFFC
0000000000003FFFFC
0000000000003FFFFC
0000000000003FFFFC
0000000000003FFFFC
0000000000003FFFFC
0000000000003FFFFC
0000000000003FFFFC
0000000000003FFFFC
0000000000003FFFFC
0000000000003FFFFC
0000000000003FFFFC
0000000000003FFFFC
0000000000003FFFFC
0000000000003FFFFC
0000000000003FFFFC
0000000000003FFFFC
0000000000003FFFFC
0000000000003FFFFC
0000000000003FFFFC
0000000000003FFFFC
0000000000003FFFFC
0000000000003FFFFC
0000000000003FFFFC
0000000000003FFFFC
0000000000003FFFFC
0000000000003FFFFC
0000000000007FFFFC
0000000000007FFFFC
0000000000007FFFFC
000000000000FFFFFC
000000000001FFFFFC
00000000000FFFFFFC
0001FFFFFFFFFFFFF8
003FFFFFFFFFFFFFF8
00FFFFFFFFFFFFFFF8
03FFFFFFFFFFFFFFF8
07FFFFFFFFFFFFFFF0
0FFFFFFFFFFFFFFFF0
1FFFFFFFFFFFFFFFF0
1FFFFFFFFFFFFFFFE0
3FFFFFFFFFFFFFFFE0
3FFFFFFFFFFFFFFFC0
7FFFFFFFFFFFFFFF80
7FFFFFFFFFFFFFFF00
7FFFFFFFFFFFFFFC00
7FFFFFFFFFFFFFF000
7FFFFFFFFFFFFE0000
FFFFFFC00000000000
FFFFFE000000000000
FFFFFC000000000000
FFFFF8000000000000
FFFFF8000000000000
FFFFF8000000000000
FFFFF0000000000000
FFFFF0000000000000
FFFFF0000000000000
FFFFF0000000000000
FFFFF0000000000000
FFFFF0000000000000
FFFFF0000000000000
FFFFF0000000000000
FFFFF0000000000000
FFFFF0000000000000
FFFFF0000000000000
FFFFF0000000000000
FFFFF0000000000000
FFFFF0000000000000
FFFFF0000000000000
FFFFF0000000000000
FFFFF0000000000000
FFFFF0000000000000
FFFFF0000000000000
FFFFF0000000000000
FFFFF0000000000000
FFFFF0000000000000
FFFFF0000000000000
FFFFF0000000000000
FFFFF0000000000000
FFFFF0000000000000
FFFFF0000000000000
FFFFF0000000000000
FFFFF0000000000000
FFFFF0000000000000
FFFFF0000000000000
FFFFF0000000000000
FFFFF0000000000000
FFFFF0000000000000
FFFFF0000000000000
FFFFF0000000000000
FFFFF0000000000000
FFFFF0000000000000
FFFFF0000000000000
FFFFF0000000000000
FFFFF0000000000000
FFFFF0000000000000
FFFFF0000000000000
FFFFF0000000000000
FFFFF0000000000000
FFFFF0000000000000
FFFFF0000000000000
FFFFF0000000000000
FFFFF0000000000000
FFFFF0000000000000
FFFFF0000000000000
FFFFF0000000000000
FFFFF0000000000000
FFFFF0000000000000
FFFFF8000000000000
FFFFF8000000000000
FFFFF8000000000000
FFFFF8000000000000
FFFFFC000000000000
FFFFFE000000000000
7FFFFF000000000000
7FFFFFE00000000000
7FFFFFFFFFFFFFFFFC
7FFFFFFFFFFFFFFFFC
7FFFFFFFFFFFFFFFFC
3FFFFFFFFFFFFFFFFC
3FFFFFFFFFFFFFFFFC
1FFFFFFFFFFFFFFFFC
1FFFFFFFFFFFFFFFFC
0FFFFFFFFFFFFFFFFC
0FFFFFFFFFFFFFFFFC
07FFFFFFFFFFFFFFFC
03FFFFFFFFFFFFFFFC
00FFFFFFFFFFFFFFFC
003FFFFFFFFFFFFFF8
000FFFFFFFFFFFFFF8
00007FFFFFFFFFFFE0
ENDCHAR
STARTCHAR 0033
ENCODING 51
SWIDTH 392 0
DWIDTH 98 0
BBX 71 175 11 0
BITMAP
003FFFFFFFFFF00000
01FFFFFFFFFFFF0000
03FFFFFFFFFFFFE000
07FFFFFFFFFFFFF800
0FFFFFFFFFFFFFFC00
1FFFFFFFFFFFFFFE00
1FFFFFFFFFFFFFFF00
3FFFFFFFFFFFFFFF80
3FFFFFFFFFFFFFFF80
7FFFFFFFFFFFFFFFC0
7FFFFFFFFFFFFFFFC0
7FFFFFFFFFFFFFFFE0
7FFFFFFFFFFFFFFFE0
FFFFFFFFFFFFFFFFE0
FFFFFFFFFFFFFFFFF0
00000000003FFFFFF0
000000000007FFFFF0
000000000003FFFFF0
000000000001FFFFF0
000000000001FFFFF0
000000000001FFFFF0
000000000000FFFFF0
000000000000FFFFF0
000000000000FFFFF0
000000000000FFFFF8
000000000000FFFFF8
000000000000FFFFF8
000000000000FFFFF8
000000000000FFFFF8
000000000000FFFFF8
000000000000FFFFF8
000000000000FFFFF8
000000000000FFFFF8
000000000000FFFFF8
000000000000FFFFF8
000000000000FFFFF8
000000000000FFFFF8
000000000000FFFFF8
000000000000FFFFF8
000000000000FFFFF8
000000000000FFFFF8
000000000000FFFFF8
000000000000FFFFF8
000000000000FFFFF8
000000000000FFFFF8
000000000000FFFFF8
000000000000FFFFF8
000000000000FFFFF8
000000000000FFFFF8
000000000000FFFFF8
000000000000FFFFF8
000000000000FFFFF8
000000000000FFFFF8
000000000000FFFFF8
000000000000FFFFF8
000000000000FFFFF8
000000000000FFFFF8
000000000000FFFFF8
000000000000FFFFF8
000000000000FFFFF8
000000000000FFFFF8
000000000000FFFFF0
000000000000FFFFF0
000000000000FFFFF0
000000000000FFFFF0
000000000000FFFFF0
000000000000FFFFF0
000000000000FFFFF0
000000000000FFFFF0
000000000000FFFFF0
000000000000FFFFF0
000000000001FFFFF0
000000000001FFFFE0
000000000003FFFFE0
000000000003FFFFE0
00000000000FFFFFC0
00000000003FFFFFC0
00003FFFFFFFFFFF80
00007FFFFFFFFFFF80
0000FFFFFFFFFFFF00
0000FFFFFFFFFFFE00
0001FFFFFFFFFFF800
0001FFFFFFFFFFC000
0001FFFFFFFFFFC000
0001FFFFFFFFFFF000
0001FFFFFFFFFFFC00
0001FFFFFFFFFFFE00
0001FFFFFFFFFFFF80
0001FFFFFFFFFFFFC0
0001FFFFFFFFFFFFC0
0001FFFFFFFFFFFFE0
0001FFFFFFFFFFFFF0
00000000003FFFFFF0
000000000007FFFFF0
000000000003FFFFF8
000000000000FFFFF8
000000000000FFFFF8
0000000000007FFFFC
0000000000007FFFFC
0000000000003FFFFC
0000000000003FFFFC
0000000000003FFFFC
0000000000003FFFFC
0000000000003FFFFC
0000000000003FFFFC
0000000000003FFFFC
0000000000003FFFFE
0000000000003FFFFE
0000000000003FFFFE
0000000000003FFFFE
0000000000003FFFFE
0000000000003FFFFE
0000000000003FFFFE
0000000000003FFFFE
0000000000003FFFFE
0000000000003FFFFE
0000000000003FFFFE
0000000000003FFFFE
0000000000003FFFFE
0000000000003FFFFE
0000000000003FFFFE
0000000000003FFFFE
0000000000003FFFFE
0000000000003FFFFE
0000000000003FFFFE
0000000000003FFFFE
0000000000003FFFFE
0000000000003FFFFE
0000000000003FFFFE
0000000000003FFFFE
0000000000003FFFFE
0000000000003FFFFE
0000000000003FFFFE
0000000000003FFFFE
0000000000003FFFFE
0000000000003FFFFE
0000000000003FFFFE
0000000000003FFFFE
0000000000003FFFFE
0000000000003FFFFE
0000000000003FFFFE
0000000000003FFFFE
0000000000003FFFFE
0000000000003FFFFE
0000000000003FFFFE
0000000000003FFFFE
0000000000003FFFFE
0000000000003FFFFE
0000000000003FFFFE
0000000000003FFFFE
0000000000003FFFFE
0000000000003FFFFE
0000000000003FFFFC
0000000000003FFFFC
0000000000007FFFFC
0000000000007FFFFC
0000000000007FFFFC
000000000000FFFFFC
000000000001FFFFFC
00000000000FFFFFFC
3FFFFFFFFFFFFFFFFC
3FFFFFFFFFFFFFFFF8
1FFFFFFFFFFFFFFFF8
1FFFFFFFFFFFFFFFF8
1FFFFFFFFFFFFFFFF0
1FFFFFFFFFFFFFFFF0
0FFFFFFFFFFFFFFFE0
0FFFFFFFFFFFFFFFE0
07FFFFFFFFFFFFFFC0
07FFFFFFFFFFFFFF80
03FFFFFFFFFFFFFF00
01FFFFFFFFFFFFFE00
00FFFFFFFFFFFFF800
007FFFFFFFFFFFC000
000FFFFFFFFFFC0000
ENDCHAR
STARTCHAR 0034
ENCODING 52
SWIDTH 432 0
DWIDTH 108 0
BBX 78 175 12 0
BITMAP
1FFFF0000000000FFFFC
7FFFF0000000001FFFFC
7FFFF0000000003FFFFC
FFFFF0000000003FFFFC
FFFFF0000000003FFFFC
FFFFF0000000003FFFFC
FFFFF0000000007FFFFC
FFFFF0000000007FFFFC
FFFFF0000000007FFFFC
FFFFF0000000007FFFFC
FFFFF0000000007FFFFC
FFFFF0000000007FFFFC
FFFFF0000000007FFFFC
FFFFF0000000007FFFFC
FFFFF0000000007FFFFC
FFFFF0000000007FFFFC
FFFFF0000000007FFFFC
FFFFF0000000007FFFFC
FFFFF0000000007FFFFC
FFFFF0000000007FFFFC
FFFFF0000000007FFFFC
FFFFF0000000007FFFFC
FFFFF0000000007FFFFC
FFFFF0000000007FFFFC
FFFFF0000000007FFFFC
FFFFF0000000007FFFFC
FFFFF0000000007FFFFC
FFFFF0000000007FFFFC
FFFFF0000000007FFFFC
FFFFF0000000007FFFFC
FFFFF0000000007FFFFC
FFFFF0000000007FFFFC
FFFFF0000000007FFFFC
FFFFF0000000007FFFFC
FFFFF0000000007FFFFC
FFFFF0000000007FFFFC
FFFFF0000000007FFFFC
FFFFF0000000007FFFFC
FFFFF0000000007FFFFC
FFFFF0000000007FFFFC
FFFFF0000000007FFFFC
FFFFF0000000007FFFFC
FFFFF0000000007FFFFC
FFFFF0000000007FFFFC
FFFFF0000000007FFFFC
FFFFF0000000007FFFFC
FFFFF0000000007FFFFC
FFFFF0000000007FFFFC
FFFFF0000000007FFFFC
FFFFF0000000007FFFFC
FFFFF0000000007FFFFC
FFFFF0000000007FFFFC
FFFFF0000000007FFFFC
FFFFF0000000007FFFFC
FFFFF0000000007FFFFC
FFFFF0000000007FFFFC
FFFFF0000000007FFFFC
FFFFF0000000007FFFFC
FFFFF0000000007FFFFC
FFFFF0000000007FFFFC
FFFFF0000000007FFFFC
FFFFF0000000007FFFFC
FFFFF0000000007FFFFC
FFFFF0000000007FFFFC
FFFFF0000000007FFFFC
FFFFF0000000007FFFFC
FFFFF0000000007FFFFC
FFFFF0000000007FFFFC
FFFFF0000000007FFFFC
FFFFF0000000007FFFFC
FFFFF0000000007FFFFC
FFFFF8000000007FFFFC
FFFFF8000000007FFFFC
FFFFF8000000007FFFFC
FFFFFC000000007FFFFC
FFFFFE000000007FFFFC
FFFFFFC00000007FFFFC
7FFFFFFFFFFFFFFFFFFC
7FFFFFFFFFFFFFFFFFFC
7FFFFFFFFFFFFFFFFFFC
7FFFFFFFFFFFFFFFFFFC
7FFFFFFFFFFFFFFFFFFC
3FFFFFFFFFFFFFFFFFFC
3FFFFFFFFFFFFFFFFFFC
1FFFFFFFFFFFFFFFFFFC
1FFFFFFFFFFFFFFFFFFC
0FFFFFFFFFFFFFFFFFFC
07FFFFFFFFFFFFFFFFFC
03FFFFFFFFFFFFFFFFFC
00FFFFFFFFFFFFFFFFFC
003FFFFFFFFFFFFFFFFC
0001FFFFFFFFFFFFFFFC
000000000000007FFFFC
000000000000007FFFFC
000000000000007FFFFC
000000000000007FFFFC
000000000000007FFFFC
000000000000007FFFFC
000000000000007FFFFC
000000000000007FFFFC
000000000000007FFFFC
000000000000007FFFFC
000000000000007FFFFC
000000000000007FFFFC
000000000000007FFFFC
000000000000007FFFFC
000000000000007FFFFC
000000000000007FFFFC
000000000000007FFFFC
000000000000007FFFFC
000000000000007FFFFC
000000000000007FFFFC
000000000000007FFFFC
000000000000007FFFFC
000000000000007FFFFC
000000000000007FFFFC
000000000000007FFFFC
000000000000007FFFFC
000000000000007FFFFC
000000000000007FFFFC
000000000000007FFFFC
000000000000007FFFFC
000000000000007FFFFC
000000000000007FFFFC
000000000000007FFFFC
000000000000007FFFFC
000000000000007FFFFC
000000000000007FFFFC
000000000000007FFFFC
000000000000007FFFFC
000000000000007FFFFC
000000000000007FFFFC
000000000000007FFFFC
000000000000007FFFFC
000000000000007FFFFC
000000000000007FFFFC
000000000000007FFFFC
000000000000007FFFFC
000000000000007FFFFC
000000000000007FFFFC
000000000000007FFFFC
000000000000007FFFFC
000000000000007FFFFC
000000000000007FFFFC
000000000000007FFFFC
000000000000007FFFFC
000000000000007FFFFC
000000000000007FFFFC
000000000000007FFFFC
000000000000007FFFFC
000000000000007FFFFC
000000000000007FFFFC
000000000000007FFFFC
000000000000007FFFFC
000000000000007FFFFC
000000000000007FFFFC
000000000000007FFFFC
000000000000007FFFFC
000000000000007FFFFC
000000000000007FFFFC
000000000000007FFFFC
000000000000007FFFFC
000000000000007FFFFC
000000000000007FFFFC
000000000000007FFFFC
000000000000007FFFFC
000000000000007FFFFC
000000000000007FFFFC
000000000000007FFFF8
000000000000007FFFF8
000000000000007FFFF8
000000000000007FFFF8
000000000000007FFFF8
000000000000007FFFF0
000000000000007FFFE0
ENDCHAR
STARTCHAR 0035
ENCODING 53
SWIDTH 412 0
DWIDTH 103 0
BBX 73 175 15 0
BITMAP
07FFFFFFFFFFFFFFFC00
1FFFFFFFFFFFFFFFFC00
3FFFFFFFFFFFFFFFFC00
3FFFFFFFFFFFFFFFFC00
3FFFFFFFFFFFFFFFFC00
3FFFFFFFFFFFFFFFFC00
7FFFFFFFFFFFFFFFFC00
7FFFFFFFFFFFFFFFFC00
7FFFFFFFFFFFFFFFFC00
7FFFFFFFFFFFFFFFFC00
7FFFFFFFFFFFFFFFFC00
7FFFFFFFFFFFFFFFF800
7FFFFFFFFFFFFFFFF800
7FFFFFFFFFFFFFFFF800
7FFFFFFFFFFFFFFFE000
7FFFF800000000000000
7FFFF800000000000000
7FFFF800000000000000
7FFFF800000000000000
7FFFF000000000000000
7FFFF000000000000000
7FFFF000000000000000
7FFFF000000000000000
7FFFF000000000000000
7FFFF000000000000000
7FFFF000000000000000
7FFFF000000000000000
7FFFF000000000000000
7FFFF000000000000000
7FFFF000000000000000
7FFFF000000000000000
7FFFF000000000000000
7FFFF000000000000000
7FFFF000000000000000
7FFFF000000000000000
7FFFF000000000000000
7FFFF000000000000000
7FFFF000000000000000
7FFFF000000000000000
7FFFF000000000000000
7FFFF000000000000000
7FFFF000000000000000
7FFFF000000000000000
7FFFF000000000000000
7FFFF000000000000000
7FFFF000000000000000
7FFFF000000000000000
7FFFF000000000000000
7FFFF000000000000000
7FFFF000000000000000
7FFFF000000000000000
7FFFF000000000000000
7FFFF000000000000000
7FFFF000000000000000
7FFFF000000000000000
7FFFF000000000000000
7FFFF000000000000000
7FFFF000000000000000
7FFFF000000000000000
7FFFF000000000000000
7FFFF000000000000000
7FFFF000000000000000
7FFFF000000000000000
7FFFF000000000000000
7FFFF000000000000000
7FFFF000000000000000
7FFFF000000000000000
7FFFF000000000000000
7FFFF000000000000000
7FFFF000000000000000
7FFFF000000000000000
7FFFF000000000000000
7FFFF000000000000000
7FFFF000000000000000
7FFFF000000000000000
7FFFF000000000000000
7FFFF000000000000000
7FFFFFFFFFFFFF000000
7FFFFFFFFFFFFFF80000
7FFFFFFFFFFFFFFE0000
7FFFFFFFFFFFFFFF8000
7FFFFFFFFFFFFFFFE000
7FFFFFFFFFFFFFFFF000
7FFFFFFFFFFFFFFFF800
7FFFFFFFFFFFFFFFF800
7FFFFFFFFFFFFFFFFC00
3FFFFFFFFFFFFFFFFC00
3FFFFFFFFFFFFFFFFE00
3FFFFFFFFFFFFFFFFE00
3FFFFFFFFFFFFFFFFF00
1FFFFFFFFFFFFFFFFF00
0FFFFFFFFFFFFFFFFF00
000000000003FFFFFF00
0000000000007FFFFF00
0000000000003FFFFF80
0000000000001FFFFF80
0000000000000FFFFF80
0000000000000FFFFF80
0000000000000FFFFF80
0000000000000FFFFF80
00000000000007FFFF80
00000000000007FFFF80
00000000000007FFFF80
00000000000007FFFF80
00000000000007FFFF80
00000000000007FFFF80
00000000000007FFFF80
00000000000007FFFF80
00000000000007FFFF80
00000000000007FFFF80
00000000000007FFFF80
00000000000007FFFF80
00000000000007FFFF80
00000000000007FFFF80
00000000000007FFFF80
00000000000007FFFF80
00000000000007FFFF80
00000000000007FFFF80
00000000000007FFFF80
00000000000007FFFF80
00000000000007FFFF80
00000000000007FFFF80
00000000000007FFFF80
00000000000007FFFF80
00000000000007FFFF80
00000000000007FFFF80
00000000000007FFFF80
00000000000007FFFF80
00000000000007FFFF80
00000000000007FFFF80
00000000000007FFFF80
00000000000007FFFF80
00000000000007FFFF80
00000000000007FFFF80
00000000000007FFFF80
00000000000007FFFF80
00000000000007FFFF80
00000000000007FFFF80
00000000000007FFFF80
00000000000007FFFF80
00000000000007FFFF80
00000000000007FFFF80
00000000000007FFFF80
00000000000007FFFF80
00000000000007FFFF80
00000000000007FFFF80
00000000000007FFFF80
00000000000007FFFF80
00000000000007FFFF80
00000000000007FFFF80
00000000000007FFFF80
00000000000007FFFF80
0000000000000FFFFF80
0000000000000FFFFF80
0000000000000FFFFF80
0000000000000FFFFF80
0000000000001FFFFF80
0000000000003FFFFF80
0000000000007FFFFF00
000000000003FFFFFF00
FFFFFFFFFFFFFFFFFF00
7FFFFFFFFFFFFFFFFF00
7FFFFFFFFFFFFFFFFF00
7FFFFFFFFFFFFFFFFE00
7FFFFFFFFFFFFFFFFE00
3FFFFFFFFFFFFFFFFC00
3FFFFFFFFFFFFFFFFC00
1FFFFFFFFFFFFFFFF800
1FFFFFFFFFFFFFFFF800
0FFFFFFFFFFFFFFFF000
0FFFFFFFFFFFFFFFE000
07FFFFFFFFFFFFFF8000
03FFFFFFFFFFFFFE0000
00FFFFFFFFFFFFF80000
001FFFFFFFFFFF000000
ENDCHAR
STARTCHAR 0036
ENCODING 54
SWIDTH 436 0
DWIDTH 109 0
BBX 78 175 17 0
BITMAP
00007FFFFFFFFFFF0000
0007FFFFFFFFFFFFC000
003FFFFFFFFFFFFFF000
00FFFFFFFFFFFFFFF800
01FFFFFFFFFFFFFFFC00
03FFFFFFFFFFFFFFFE00
07FFFFFFFFFFFFFFFE00
0FFFFFFFFFFFFFFFFF00
0FFFFFFFFFFFFFFFFF00
1FFFFFFFFFFFFFFFFF00
1FFFFFFFFFFFFFFFFF80
3FFFFFFFFFFFFFFFFF80
3FFFFFFFFFFFFFFFFF80
3FFFFFFFFFFFFFFFFFC0
7FFFFFFFFFFFFFFFFFC0
7FFFFFE0000000000000
7FFFFF00000000000000
7FFFFE00000000000000
7FFFFC00000000000000
7FFFFC00000000000000
7FFFFC00000000000000
7FFFF800000000000000
FFFFF800000000000000
FFFFF800000000000000
FFFFF800000000000000
FFFFF800000000000000
FFFFF800000000000000
FFFFF800000000000000
FFFFF800000000000000
FFFFF800000000000000
FFFFF800000000000000
FFFFF800000000000000
FFFFF800000000000000
FFFFF800000000000000
FFFFF800000000000000
FFFFF800000000000000
FFFFF800000000000000
FFFFF800000000000000
FFFFF800000000000000
FFFFF800000000000000
FFFFF800000000000000
FFFFF800000000000000
FFFFF800000000000000
FFFFF800000000000000
FFFFF800000000000000
FFFFF800000000000000
FFFFF800000000000000
FFFFF800000000000000
FFFFF800000000000000
FFFFF800000000000000
FFFFF800000000000000
FFFFF800000000000000
FFFFF800000000000000
FFFFF800000000000000
FFFFF800000000000000
FFFFF800000000000000
FFFFF800000000000000
FFFFF800000000000000
FFFFF800000000000000
FFFFF800000000000000
FFFFF800000000000000
FFFFF800000000000000
FFFFF800000000000000
FFFFF800000000000000
FFFFF800000000000000
FFFFF800000000000000
FFFFF800000000000000
FFFFF800000000000000
FFFFF800000000000000
FFFFF800000000000000
FFFFF800000000000000
FFFFF800000000000000
FFFFF800000000000000
FFFFF800000000000000
FFFFF800000000000000
FFFFF800000000000000
FFFFF800000000000000
FFFFF8007FFFFFF80000
FFFFF800FFFFFFFFC000
FFFFF801FFFFFFFFF000
FFFFF801FFFFFFFFFC00
FFFFF801FFFFFFFFFE00
FFFFF801FFFFFFFFFF00
FFFFF803FFFFFFFFFF80
FFFFF803FFFFFFFFFFC0
FFFFF803FFFFFFFFFFE0
FFFFF803FFFFFFFFFFE0
FFFFF803FFFFFFFFFFF0
FFFFF803FFFFFFFFFFF0
FFFFF803FFFFFFFFFFF0
FFFFF803FFFFFFFFFFF8
FFFFF803FFFFFFFFFFF8
FFFFF80000001FFFFFF8
FFFFF800000003FFFFF8
FFFFF800000001FFFFF8
FFFFF800000000FFFFF8
FFFFF800000000FFFFFC
FFFFF8000000007FFFFC
FFFFF8000000007FFFFC
FFFFF8000000007FFFFC
FFFFF8000000007FFFFC
FFFFF8000000003FFFFC
FFFFF8000000003FFFFC
FFFFF8000000003FFFFC
FFFFF8000000003FFFFC
FFFFF8000000003FFFFC
FFFFF8000000003FFFFC
FFFFF8000000003FFFFC
FFFFF8000000003FFFFC
FFFFF8000000003FFFFC
FFFFF8000000003FFFFC
FFFFF8000000003FFFFC
FFFFF8000000003FFFFC
FFFFF8000000003FFFFC
FFFFF8000000003FFFFC
FFFFF8000000003FFFFC
FFFFF8000000003FFFFC
FFFFF8000000003FFFFC
FFFFF8000000003FFFFC
FFFFF8000000003FFFFC
FFFFF8000000003FFFFC
FFFFF8000000003FFFFC
FFFFF8000000003FFFFC
FFFFF8000000003FFFFC
FFFFF8000000003FFFFC
FFFFF8000000003FFFFC
FFFFF8000000003FFFFC
FFFFF8000000003FFFFC
FFFFF8000000003FFFFC
FFFFF8000000003FFFFC
FFFFF8000000003FFFFC
FFFFF8000000003FFFFC
FFFFF8000000003FFFFC
FFFFF8000000003FFFFC
FFFFF8000000003FFFFC
FFFFF8000000003FFFFC
FFFFF8000000003FFFFC
FFFFF8000000003FFFFC
FFFFF8000000003FFFFC
FFFFF8000000003FFFFC
FFFFF8000000003FFFFC
FFFFF8000000003FFFFC
FFFFF8000000003FFFFC
FFFFF8000000003FFFFC
FFFFF8000000003FFFFC
FFFFF8000000003FFFFC
FFFFF8000000003FFFFC
FFFFF8000000003FFFFC
FFFFF8000000003FFFFC
FFFFF8000000003FFFFC
FFFFF8000000003FFFFC
FFFFF8000000007FFFFC
7FFFF8000000007FFFFC
7FFFF8000000007FFFFC
7FFFF8000000007FFFFC
7FFFFC00000000FFFFFC
7FFFFC00000000FFFFF8
7FFFFE00000001FFFFF8
7FFFFF00000003FFFFF8
7FFFFFE000001FFFFFF8
7FFFFFFFFFFFFFFFFFF8
3FFFFFFFFFFFFFFFFFF8
3FFFFFFFFFFFFFFFFFF0
3FFFFFFFFFFFFFFFFFF0
1FFFFFFFFFFFFFFFFFF0
1FFFFFFFFFFFFFFFFFE0
0FFFFFFFFFFFFFFFFFE0
0FFFFFFFFFFFFFFFFFC0
07FFFFFFFFFFFFFFFF80
03FFFFFFFFFFFFFFFF80
01FFFFFFFFFFFFFFFE00
00FFFFFFFFFFFFFFFC00
003FFFFFFFFFFFFFF000
0007FFFFFFFFFFFFC000
00007FFFFFFFFFF80000
ENDCHAR
STARTCHAR 0037
ENCODING 55
SWIDTH 360 0
DWIDTH 90 0
BBX 74 175 8 0
BITMAP
1FFFFFFFFFFFFFFFFE00
3FFFFFFFFFFFFFFFFF00
7FFFFFFFFFFFFFFFFF80
7FFFFFFFFFFFFFFFFF80
FFFFFFFFFFFFFFFFFF80
FFFFFFFFFFFFFFFFFF80
FFFFFFFFFFFFFFFFFF80
FFFFFFFFFFFFFFFFFFC0
FFFFFFFFFFFFFFFFFFC0
FFFFFFFFFFFFFFFFFFC0
FFFFFFFFFFFFFFFFFFC0
FFFFFFFFFFFFFFFFFFC0
FFFFFFFFFFFFFFFFFFC0
FFFFFFFFFFFFFFFFFFC0
FFFFFFFFFFFFFFFFFFC0
00000000000003FFFF80
00000000000003FFFF80
00000000000003FFFF80
00000000000007FFFF80
00000000000007FFFF00
00000000000007FFFF00
00000000000007FFFF00
0000000000000FFFFF00
0000000000000FFFFE00
0000000000000FFFFE00
0000000000001FFFFE00
0000000000001FFFFC00
0000000000001FFFFC00
0000000000001FFFFC00
0000000000003FFFFC00
0000000000003FFFF800
0000000000003FFFF800
0000000000003FFFF800
0000000000007FFFF800
0000000000007FFFF000
0000000000007FFFF000
000000000000FFFFF000
000000000000FFFFE000
000000000000FFFFE000
000000000000FFFFE000
000000000001FFFFE000
000000000001FFFFC000
000000000001FFFFC000
000000000001FFFFC000
000000000003FFFFC000
000000000003FFFF8000
000000000003FFFF8000
000000000003FFFF8000
000000000007FFFF8000
000000000007FFFF0000
000000000007FFFF0000
00000000000FFFFF0000
00000000000FFFFE0000
00000000000FFFFE0000
00000000000FFFFE0000
00000000001FFFFE0000
00000000001FFFFC0000
00000000001FFFFC0000
00000000001FFFFC0000
00000000003FFFFC0000
00000000003FFFF80000
00000000003FFFF80000
00000000003FFFF80000
00000000007FFFF00000
00000000007FFFF00000
00000000007FFFF00000
0000000000FFFFF00000
0000000000FFFFE00000
0000000000FFFFE00000
0000000000FFFFE00000
0000000001FFFFE00000
0000000001FFFFC00000
0000000001FFFFC00000
0000000001FFFFC00000
0000000003FFFFC00000
0000000003FFFF800000
0000000003FFFF800000
0000000003FFFF800000
0000000007FFFF000000
0000000007FFFF000000
0000000007FFFF000000
000000000FFFFF000000
000000000FFFFE000000
000000000FFFFE000000
000000000FFFFE000000
000000001FFFFE000000
000000001FFFFC000000
000000001FFFFC000000
000000001FFFFC000000
000000003FFFFC000000
000000003FFFF8000000
000000003FFFF8000000
000000003FFFF8000000
000000007FFFF0000000
000000007FFFF0000000
000000007FFFF0000000
00000000FFFFF0000000
00000000FFFFE0000000
00000000FFFFE0000000
00000000FFFFE0000000
00000001FFFFE0000000
00000001FFFFC0000000
00000001FFFFC0000000
00000001FFFFC0000000
00000003FFFF80000000
00000003FFFF80000000
00000003FFFF80000000
00000003FFFF80000000
00000007FFFF00000000
00000007FFFF00000000
00000007FFFF00000000
0000000FFFFF00000000
0000000FFFFE00000000
0000000FFFFE00000000
0000000FFFFE00000000
0000001FFFFE00000000
0000001FFFFC00000000
0000001FFFFC00000000
0000001FFFFC00000000
0000003FFFF800000000
0000003FFFF800000000
0000003FFFF800000000
0000003FFFF800000000
0000007FFFF000000000
0000007FFFF000000000
0000007FFFF000000000
000000FFFFF000000000
000000FFFFE000000000
000000FFFFE000000000
000000FFFFE000000000
000001FFFFC000000000
000001FFFFC000000000
000001FFFFC000000000
000001FFFFC000000000
000003FFFF8000000000
000003FFFF8000000000
000003FFFF8000000000
000003FFFF8000000000
000007FFFF0000000000
000007FFFF0000000000
000007FFFF0000000000
00000FFFFF0000000000
00000FFFFE0000000000
00000FFFFE0000000000
00000FFFFE0000000000
00001FFFFC0000000000
00001FFFFC0000000000
00001FFFFC0000000000
00001FFFFC0000000000
00003FFFF80000000000
00003FFFF80000000000
00003FFFF80000000000
00003FFFF80000000000
00007FFFF00000000000
00007FFFF00000000000
00007FFFF00000000000
0000FFFFE00000000000
0000FFFFE00000000000
0000FFFFE00000000000
0000FFFFE00000000000
0001FFFFC00000000000
0001FFFFC00000000000
0001FFFFC00000000000
0001FFFFC00000000000
0003FFFF800000000000
0003FFFF800000000000
0003FFFF800000000000
0007FFFF800000000000
0007FFFF000000000000
0007FFFF000000000000
0007FFFF000000000000
000FFFFE000000000000
000FFFFE000000000000
000FFFFE000000000000
000FFFFE000000000000
ENDCHAR
STARTCHAR 0038
ENCODING 56
SWIDTH 444 0
DWIDTH 111 0
BBX 77 175 17 0
BITMAP
0000FFFFFFFFFFF80000
001FFFFFFFFFFFFFC000
007FFFFFFFFFFFFFF000
01FFFFFFFFFFFFFFFC00
03FFFFFFFFFFFFFFFE00
07FFFFFFFFFFFFFFFF00
0FFFFFFFFFFFFFFFFF80
1FFFFFFFFFFFFFFFFF80
1FFFFFFFFFFFFFFFFFC0
3FFFFFFFFFFFFFFFFFC0
3FFFFFFFFFFFFFFFFFE0
3FFFFFFFFFFFFFFFFFE0
7FFFFFFFFFFFFFFFFFE0
7FFFFFFFFFFFFFFFFFF0
7FFFFFE000003FFFFFF0
7FFFFF00000007FFFFF0
7FFFFE00000003FFFFF0
7FFFFC00000001FFFFF0
FFFFFC00000001FFFFF8
FFFFF800000000FFFFF8
FFFFF800000000FFFFF8
FFFFF800000000FFFFF8
FFFFF800000000FFFFF8
FFFFF0000000007FFFF8
FFFFF0000000007FFFF8
FFFFF0000000007FFFF8
FFFFF0000000007FFFF8
FFFFF0000000007FFFF8
FFFFF0000000007FFFF8
FFFFF0000000007FFFF8
FFFFF0000000007FFFF8
FFFFF0000000007FFFF8
FFFFF0000000007FFFF8
FFFFF0000000007FFFF8
FFFFF0000000007FFFF8
FFFFF0000000007FFFF8
FFFFF0000000007FFFF8
FFFFF0000000007FFFF8
FFFFF0000000007FFFF8
FFFFF0000000007FFFF8
FFFFF0000000007FFFF8
FFFFF0000000007FFFF8
FFFFF0000000007FFFF8
FFFFF0000000007FFFF8
FFFFF0000000007FFFF8
FFFFF0000000007FFFF8
FFFFF0000000007FFFF8
FFFFF0000000007FFFF8
FFFFF0000000007FFFF8
FFFFF0000000007FFFF8
FFFFF0000000007FFFF8
FFFFF0000000007FFFF8
FFFFF0000000007FFFF8
FFFFF0000000007FFFF8
FFFFF0000000007FFFF8
FFFFF0000000007FFFF8
FFFFF0000000007FFFF8
FFFFF0000000007FFFF8
FFFFF0000000007FFFF8
FFFFF0000000007FFFF8
FFFFF0000000007FFFF8
FFFFF0000000007FFFF8
FFFFF0000000007FFFF8
FFFFF0000000007FFFF8
FFFFF0000000007FFFF8
FFFFF0000000007FFFF8
7FFFF0000000007FFFF0
7FFFF0000000007FFFF0
7FFFF800000000FFFFF0
7FFFF800000000FFFFF0
7FFFF800000000FFFFF0
3FFFF800000000FFFFE0
3FFFFC00000001FFFFE0
3FFFFC00000001FFFFE0
1FFFFE00000003FFFFC0
1FFFFF00000007FFFFC0
0FFFFFE000003FFFFF80
07FFFFFFFFFFFFFFFF00
03FFFFFFFFFFFFFFFE00
01FFFFFFFFFFFFFFFC00
00FFFFFFFFFFFFFFF800
003FFFFFFFFFFFFFE000
000FFFFFFFFFFFFF8000
0007FFFFFFFFFFFF0000
003FFFFFFFFFFFFFE000
007FFFFFFFFFFFFFF000
01FFFFFFFFFFFFFFFC00
03FFFFFFFFFFFFFFFE00
07FFFFFFFFFFFFFFFF00
0FFFFFFFFFFFFFFFFF80
0FFFFFFFFFFFFFFFFF80
1FFFFFFFFFFFFFFFFFC0
1FFFFFE000003FFFFFC0
3FFFFF00000007FFFFE0
3FFFFE00000003FFFFE0
3FFFFC00000001FFFFE0
7FFFFC00000001FFFFF0
7FFFF800000000FFFFF0
7FFFF800000000FFFFF0
7FFFF800000000FFFFF0
7FFFF800000000FFFFF0
FFFFF0000000007FFFF8
FFFFF0000000007FFFF8
FFFFF0000000007FFFF8
FFFFF0000000007FFFF8
FFFFF0000000007FFFF8
FFFFF0000000007FFFF8
FFFFF0000000007FFFF8
FFFFF0000000007FFFF8
FFFFF0000000007FFFF8
FFFFF0000000007FFFF8
FFFFF0000000007FFFF8
FFFFF0000000007FFFF8
FFFFF0000000007FFFF8
FFFFF0000000007FFFF8
FFFFF0000000007FFFF8
FFFFF0000000007FFFF8
FFFFF0000000007FFFF8
FFFFF0000000007FFFF8
FFFFF0000000007FFFF8
FFFFF0000000007FFFF8
FFFFF0000000007FFFF8
FFFFF0000000007FFFF8
FFFFF0000000007FFFF8
FFFFF0000000007FFFF8
FFFFF0000000007FFFF8
FFFFF0000000007FFFF8
FFFFF0000000007FFFF8
FFFFF0000000007FFFF8
FFFFF0000000007FFFF8
FFFFF0000000007FFFF8
FFFFF0000000007FFFF8
FFFFF0000000007FFFF8
FFFFF0000000007FFFF8
FFFFF0000000007FFFF8
FFFFF0000000007FFFF8
FFFFF0000000007FFFF8
FFFFF0000000007FFFF8
FFFFF0000000007FFFF8
FFFFF0000000007FFFF8
FFFFF0000000007FFFF8
FFFFF0000000007FFFF8
FFFFF0000000007FFFF8
FFFFF0000000007FFFF8
FFFFF0000000007FFFF8
FFFFF0000000007FFFF8
FFFFF0000000007FFFF8
FFFFF0000000007FFFF8
FFFFF0000000007FFFF8
FFFFF0000000007FFFF8
FFFFF0000000007FFFF8
FFFFF800000000FFFFF8
FFFFF800000000FFFFF8
FFFFF800000000FFFFF8
FFFFF800000000FFFFF8
FFFFFC00000001FFFFF8
FFFFFC00000001FFFFF8
7FFFFE00000003FFFFF0
7FFFFF00000007FFFFF0
7FFFFFE000003FFFFFF0
7FFFFFFFFFFFFFFFFFF0
7FFFFFFFFFFFFFFFFFF0
7FFFFFFFFFFFFFFFFFF0
3FFFFFFFFFFFFFFFFFE0
3FFFFFFFFFFFFFFFFFE0
3FFFFFFFFFFFFFFFFFE0
1FFFFFFFFFFFFFFFFFC0
1FFFFFFFFFFFFFFFFFC0
0FFFFFFFFFFFFFFFFF80
07FFFFFFFFFFFFFFFF00
03FFFFFFFFFFFFFFFF00
01FFFFFFFFFFFFFFFC00
007FFFFFFFFFFFFFF800
001FFFFFFFFFFFFFC000
0000FFFFFFFFFFFC0000
ENDCHAR
STARTCHAR 0039
ENCODING 57
SWIDTH 428 0
DWIDTH 107 0
BBX 75 175 14 0
BITMAP
00007FFFFFFFFFC00000
0007FFFFFFFFFFFE0000
003FFFFFFFFFFFFFC000
00FFFFFFFFFFFFFFE000
01FFFFFFFFFFFFFFF800
03FFFFFFFFFFFFFFFC00
07FFFFFFFFFFFFFFFE00
0FFFFFFFFFFFFFFFFF00
0FFFFFFFFFFFFFFFFF00
1FFFFFFFFFFFFFFFFF80
1FFFFFFFFFFFFFFFFF80
3FFFFFFFFFFFFFFFFFC0
3FFFFFFFFFFFFFFFFFC0
3FFFFFFFFFFFFFFFFFC0
7FFFFFE000007FFFFFC0
7FFFFF0000001FFFFFE0
7FFFFE00000007FFFFE0
7FFFFC00000007FFFFE0
7FFFFC00000003FFFFE0
7FFFFC00000003FFFFE0
7FFFF800000001FFFFE0
7FFFF800000001FFFFE0
FFFFF800000001FFFFE0
FFFFF800000001FFFFE0
FFFFF800000001FFFFE0
FFFFF800000001FFFFE0
FFFFF800000001FFFFE0
FFFFF800000001FFFFE0
FFFFF800000001FFFFE0
FFFFF800000001FFFFE0
FFFFF800000001FFFFE0
FFFFF800000001FFFFE0
FFFFF800000001FFFFE0
FFFFF800000001FFFFE0
FFFFF800000001FFFFE0
FFFFF800000001FFFFE0
FFFFF800000001FFFFE0
FFFFF800000001FFFFE0
FFFFF800000001FFFFE0
FFFFF800000001FFFFE0
FFFFF800000001FFFFE0
FFFFF800000001FFFFE0
FFFFF800000001FFFFE0
FFFFF800000001FFFFE0
FFFFF800000001FFFFE0
FFFFF800000001FFFFE0
FFFFF800000001FFFFE0
FFFFF800000001FFFFE0
FFFFF800000001FFFFE0
FFFFF800000001FFFFE0
FFFFF800000001FFFFE0
FFFFF800000001FFFFE0
FFFFF800000001FFFFE0
FFFFF800000001FFFFE0
FFFFF800000001FFFFE0
FFFFF800000001FFFFE0
FFFFF800000001FFFFE0
FFFFF800000001FFFFE0
FFFFF800000001FFFFE0
FFFFF800000001FFFFE0
FFFFF800000001FFFFE0
FFFFF800000001FFFFE0
FFFFF800000001FFFFE0
FFFFF800000001FFFFE0
FFFFF800000001FFFFE0
FFFFF800000001FFFFE0
FFFFF800000001FFFFE0
FFFFF800000001FFFFE0
FFFFF800000001FFFFE0
FFFFF800000001FFFFE0
FFFFF800000001FFFFE0
FFFFF800000001FFFFE0
FFFFF800000001FFFFE0
FFFFF800000001FFFFE0
FFFFF800000001FFFFE0
7FFFF800000001FFFFE0
7FFFF800000001FFFFE0
7FFFF800000001FFFFE0
7FFFFC00000001FFFFE0
7FFFFC00000001FFFFE0
7FFFFE00000001FFFFE0
7FFFFF00000001FFFFE0
7FFFFFE0000001FFFFE0
7FFFFFFFFFF801FFFFE0
3FFFFFFFFFF801FFFFE0
3FFFFFFFFFF801FFFFE0
3FFFFFFFFFF801FFFFE0
1FFFFFFFFFF801FFFFE0
1FFFFFFFFFF801FFFFE0
0FFFFFFFFFF801FFFFE0
0FFFFFFFFFF801FFFFE0
07FFFFFFFFF801FFFFE0
03FFFFFFFFF801FFFFE0
01FFFFFFFFF801FFFFE0
00FFFFFFFFF801FFFFE0
003FFFFFFFF801FFFFE0
0007FFFFFFF001FFFFE0
00007FFFFFE001FFFFE0
00000000000001FFFFE0
00000000000001FFFFE0
00000000000001FFFFE0
00000000000001FFFFE0
00000000000001FFFFE0
00000000000001FFFFE0
00000000000001FFFFE0
00000000000001FFFFE0
00000000000001FFFFE0
00000000000001FFFFE0
00000000000001FFFFE0
00000000000001FFFFE0
00000000000001FFFFE0
00000000000001FFFFE0
00000000000001FFFFE0
00000000000001FFFFE0
00000000000001FFFFE0
00000000000001FFFFE0
00000000000001FFFFE0
00000000000001FFFFE0
00000000000001FFFFE0
00000000000001FFFFE0
00000000000001FFFFE0
00000000000001FFFFE0
00000000000001FFFFE0
00000000000001FFFFE0
00000000000001FFFFE0
00000000000001FFFFE0
00000000000001FFFFE0
00000000000001FFFFE0
00000000000001FFFFE0
00000000000001FFFFE0
00000000000001FFFFE0
00000000000001FFFFE0
00000000000001FFFFE0
00000000000001FFFFE0
00000000000001FFFFE0
00000000000001FFFFE0
00000000000001FFFFE0
00000000000001FFFFE0
00000000000001FFFFE0
00000000000001FFFFE0
00000000000001FFFFE0
00000000000001FFFFE0
00000000000001FFFFE0
00000000000001FFFFE0
00000000000001FFFFE0
00000000000001FFFFE0
00000000000001FFFFE0
00000000000001FFFFE0
00000000000001FFFFE0
00000000000001FFFFE0
00000000000001FFFFE0
00000000000001FFFFE0
00000000000001FFFFE0
00000000000001FFFFE0
00000000000003FFFFE0
00000000000003FFFFE0
00000000000007FFFFE0
00000000000007FFFFE0
0000000000001FFFFFE0
0000000000007FFFFFE0
0FFFFFFFFFFFFFFFFFC0
0FFFFFFFFFFFFFFFFFC0
07FFFFFFFFFFFFFFFFC0
07FFFFFFFFFFFFFFFFC0
07FFFFFFFFFFFFFFFF80
07FFFFFFFFFFFFFFFF80
03FFFFFFFFFFFFFFFF00
03FFFFFFFFFFFFFFFF00
01FFFFFFFFFFFFFFFE00
01FFFFFFFFFFFFFFFC00
00FFFFFFFFFFFFFFF800
007FFFFFFFFFFFFFF000
003FFFFFFFFFFFFFC000
001FFFFFFFFFFFFE0000
0003FFFFFFFFFFE00000
ENDCHAR
STARTCHAR 003A
ENCODING 58
SWIDTH 220 0
DWIDTH 55 0
BBX 23 113 16 0
BITMAP
FFFFF0
FFFFF8
FFFFFC
FFFFFC
FFFFFC
FFFFFC
FFFFFC
FFFFFE
FFFFFE
FFFFFE
FFFFFE
FFFFFE
FFFFFE
FFFFFE
7FFFFE
7FFFFE
7FFFFE
7FFFFE
3FFFFE
1FFFFE
000000
000000
000000
000000
000000
000000
000000
000000
000000
000000
000000
000000
000000
000000
000000
000000
000000
000000
000000
000000
000000
000000
000000
000000
000000
000000
000000
000000
000000
000000
000000
000000
000000
000000
000000
000000
000000
000000
000000
000000
000000
000000
000000
000000
000000
000000
000000
000000
000000
000000
000000
000000
000000
000000
000000
000000
000000
000000
000000
000000
000000
000000
000000
000000
000000
000000
000000
000000
000000
000000
000000
000000
000000
FFFFF0
FFFFF8
FFFFFC
FFFFFC
FFFFFC
FFFFFC
FFFFFC
FFFFFE
FFFFFE
FFFFFE
FFFFFE
FFFFFE
FFFFFE
FFFFFE
7FFFFE
7FFFFE
7FFFFE
7FFFFE
3FFFFE
1FFFFE
ENDCHAR
STARTCHAR 003B
ENCODING 59
SWIDTH 220 0
DWIDTH 55 0
BBX 22 147 16 -34
BITMAP
FFFFE0
FFFFF8
FFFFFC
FFFFFC
FFFFFC
FFFFFC
FFFFFC
FFFFFC
FFFFFC
FFFFFC
FFFFFC
FFFFFC
FFFFFC
FFFFFC
FFFFFC
FFFFFC
7FFFFC
7FFFFC
3FFFFC
1FFFFC
000000
000000
000000
000000
000000
000000
000000
000000
000000
000000
000000
000000
000000
000000
000000
000000
000000
000000
000000
000000
000000
000000
000000
000000
000000
000000
000000
000000
000000
000000
000000
000000
000000
000000
000000
000000
000000
000000
000000
000000
000000
000000
000000
000000
000000
000000
000000
000000
000000
000000
000000
000000
000000
000000
000000
000000
000000
000000
000000
000000
000000
000000
000000
000000
000000
000000
000000
000000
000000
000000
000000
000000
000000
FFFFE0
FFFFF8
FFFFFC
FFFFFC
FFFFFC
FFFFFC
FFFFFC
FFFFFC
FFFFFC
FFFFFC
FFFFFC
FFFFFC
FFFFFC
FFFFFC
FFFFFC
FFFFFC
7FFFFC
7FFFFC
3FFFFC
1FFFFC
00FFFC
00FFFC
00FFFC
00FFFC
00FFFC
00FFFC
00FFFC
00FFFC
00FFFC
00FFFC
00FFFC
00FFFC
00FFFC
00FFFC
00FFFC
00FFFC
00FFF8
00FFF8
00FFF8
00FFF8
00FFF0
00FFF0
00FFE0
00FFE0
00FFE0
00FFC0
00FF80
00FF80
00FF00
00FE00
00FC00
00F800
00F000
008000
ENDCHAR
STARTCHAR 003C
ENCODING 60
SWIDTH 348 0
DWIDTH 87 0
BBX 62 111 11 31
BITMAP
0000000000000400
0000000000000E00
0000000000001F00
0000000000003F80
0000000000007FC0
000000000000FFE0
000000000001FFF0
000000000003FFF8
000000000007FFF8
00000000000FFFFC
00000000001FFFFC
00000000003FFFFC
00000000007FFFF8
0000000000FFFFF0
0000000001FFFFF0
0000000003FFFFE0
0000000007FFFFC0
000000000FFFFF80
000000001FFFFF00
000000003FFFFE00
000000007FFFFC00
00000000FFFFF800
00000001FFFFF000
00000003FFFFE000
00000007FFFFC000
0000000FFFFF8000
0000001FFFFF0000
0000003FFFFE0000
0000007FFFFC0000
000000FFFFF80000
000001FFFFF00000
000003FFFFE00000
000007FFFFC00000
00000FFFFF800000
00001FFFFF000000
00003FFFFE000000
00007FFFFC000000
0000FFFFF8000000
0001FFFFF0000000
0003FFFFE0000000
0007FFFFC0000000
000FFFFF80000000
001FFFFF00000000
003FFFFE00000000
007FFFFC00000000
00FFFFF800000000
01FFFFF000000000
03FFFFE000000000
07FFFFC000000000
0FFFFF8000000000
1FFFFF0000000000
3FFFFE0000000000
7FFFFC0000000000
FFFFF80000000000
FFFFF00000000000
FFFFE00000000000
FFFFF00000000000
FFFFF80000000000
7FFFFC0000000000
3FFFFE0000000000
1FFFFF0000000000
0FFFFF8000000000
07FFFFC000000000
03FFFFE000000000
01FFFFF000000000
00FFFFF800000000
007FFFFC00000000
003FFFFE00000000
001FFFFF00000000
000FFFFF80000000
0007FFFFC0000000
0003FFFFE0000000
0001FFFFF0000000
0000FFFFF8000000
00007FFFFC000000
00003FFFFE000000
00001FFFFF000000
00000FFFFF800000
000007FFFFC00000
000003FFFFE00000
000001FFFFF00000
000000FFFFF80000
0000007FFFFC0000
0000003FFFFE0000
0000001FFFFF0000
0000000FFFFF8000
00000007FFFFC000
00000003FFFFE000
00000001FFFFF000
00000000FFFFF800
000000007FFFFC00
000000003FFFFE00
000000001FFFFF00
000000000FFFFF80
0000000007FFFFC0
0000000003FFFFE0
0000000001FFFFF0
0000000000FFFFF0
00000000007FFFF8
00000000003FFFFC
00000000001FFFFC
00000000000FFFFC
000000000007FFF8
000000000003FFF8
000000000001FFF0
000000000000FFE0
0000000000007FC0
0000000000003F80
0000000000001F00
0000000000000E00
0000000000000400
ENDCHAR
STARTCHAR 003D
ENCODING 61
SWIDTH 436 0
DWIDTH 109 0
BBX 75 49 17 62
BITMAP
FFFFFFFFFFFFFFFFFF00
FFFFFFFFFFFFFFFFFFC0
FFFFFFFFFFFFFFFFFFC0
FFFFFFFFFFFFFFFFFFE0
FFFFFFFFFFFFFFFFFFE0
FFFFFFFFFFFFFFFFFFE0
FFFFFFFFFFFFFFFFFFE0
FFFFFFFFFFFFFFFFFFE0
FFFFFFFFFFFFFFFFFFE0
FFFFFFFFFFFFFFFFFFE0
FFFFFFFFFFFFFFFFFFE0
FFFFFFFFFFFFFFFFFFE0
7FFFFFFFFFFFFFFFFFE0
7FFFFFFFFFFFFFFFFFE0
1FFFFFFFFFFFFFFFFFE0
00000000000000000000
00000000000000000000
00000000000000000000
00000000000000000000
00000000000000000000
00000000000000000000
00000000000000000000
00000000000000000000
00000000000000000000
00000000000000000000
00000000000000000000
00000000000000000000
00000000000000000000
00000000000000000000
00000000000000000000
00000000000000000000
00000000000000000000
00000000000000000000
00000000000000000000
FFFFFFFFFFFFFFFFFF00
FFFFFFFFFFFFFFFFFFC0
FFFFFFFFFFFFFFFFFFC0
FFFFFFFFFFFFFFFFFFE0
FFFFFFFFFFFFFFFFFFE0
FFFFFFFFFFFFFFFFFFE0
FFFFFFFFFFFFFFFFFFE0
FFFFFFFFFFFFFFFFFFE0
FFFFFFFFFFFFFFFFFFE0
FFFFFFFFFFFFFFFFFFE0
FFFFFFFFFFFFFFFFFFE0
FFFFFFFFFFFFFFFFFFE0
7FFFFFFFFFFFFFFFFFE0
7FFFFFFFFFFFFFFFFFE0
1FFFFFFFFFFFFFFFFFE0
ENDCHAR
STARTCHAR 003E
ENCODING 62
SWIDTH 348 0
DWIDTH 87 0
BBX 62 111 14 31
BITMAP
0080000000000000
01C0000000000000
03E0000000000000
07F0000000000000
0FF8000000000000
1FFC000000000000
3FFE000000000000
7FFF000000000000
7FFF800000000000
FFFFC00000000000
FFFFE00000000000
FFFFF00000000000
7FFFF80000000000
3FFFFC0000000000
3FFFFE0000000000
1FFFFF0000000000
0FFFFF8000000000
07FFFFC000000000
03FFFFE000000000
01FFFFF000000000
00FFFFF800000000
007FFFFC00000000
003FFFFE00000000
001FFFFF00000000
000FFFFF80000000
0007FFFFC0000000
0003FFFFE0000000
0001FFFFF0000000
0000FFFFF8000000
00007FFFFC000000
00003FFFFE000000
00001FFFFF000000
00000FFFFF800000
000007FFFFC00000
000003FFFFE00000
000001FFFFF00000
000000FFFFF80000
0000007FFFFC0000
0000003FFFFE0000
0000001FFFFF0000
0000000FFFFF8000
00000007FFFFC000
00000003FFFFE000
00000001FFFFF000
00000000FFFFF800
000000007FFFFC00
000000003FFFFE00
000000001FFFFF00
000000000FFFFF80
0000000007FFFFC0
0000000003FFFFE0
0000000001FFFFF0
0000000000FFFFF8
00000000007FFFFC
00000000003FFFFC
00000000001FFFFC
00000000003FFFFC
00000000007FFFFC
0000000000FFFFF8
0000000001FFFFF0
0000000003FFFFE0
0000000007FFFFC0
000000000FFFFF80
000000001FFFFF00
000000003FFFFE00
000000007FFFFC00
00000000FFFFF800
00000001FFFFF000
00000003FFFFE000
00000007FFFFC000
0000000FFFFF8000
0000001FFFFF0000
0000003FFFFE0000
0000007FFFFC0000
000000FFFFF80000
000001FFFFF00000
000003FFFFE00000
000007FFFFC00000
00000FFFFF800000
00001FFFFF000000
00003FFFFE000000
00007FFFFC000000
0000FFFFF8000000
0001FFFFF0000000
0003FFFFE0000000
0007FFFFC0000000
000FFFFF80000000
001FFFFF00000000
003FFFFE00000000
007FFFFC00000000
00FFFFF800000000
01FFFFF000000000
03FFFFE000000000
07FFFFC000000000
0FFFFF8000000000
1FFFFF0000000000
3FFFFE0000000000
3FFFFC0000000000
7FFFF80000000000
FFFFF00000000000
FFFFE00000000000
FFFFC00000000000
7FFF800000000000
7FFF000000000000
3FFE000000000000
1FFC000000000000
0FF8000000000000
07F0000000000000
03E0000000000000
01C0000000000000
0080000000000000
ENDCHAR
STARTCHAR 003F
ENCODING 63
SWIDTH 380 0
DWIDTH 95 0
BBX 69 175 12 0
BITMAP
001FFFFFFFFFF00000
00FFFFFFFFFFFF8000
03FFFFFFFFFFFFF000
07FFFFFFFFFFFFF800
0FFFFFFFFFFFFFFE00
0FFFFFFFFFFFFFFF00
1FFFFFFFFFFFFFFF80
1FFFFFFFFFFFFFFFC0
3FFFFFFFFFFFFFFFC0
3FFFFFFFFFFFFFFFE0
7FFFFFFFFFFFFFFFE0
7FFFFFFFFFFFFFFFF0
7FFFFFFFFFFFFFFFF0
7FFFFFFFFFFFFFFFF0
FFFFFFFFFFFFFFFFF0
00000000001FFFFFF8
000000000007FFFFF8
000000000001FFFFF8
000000000001FFFFF8
000000000000FFFFF8
000000000000FFFFF8
0000000000007FFFF8
0000000000007FFFF8
0000000000007FFFF8
0000000000007FFFF8
0000000000007FFFF8
0000000000007FFFF8
0000000000007FFFF8
0000000000007FFFF8
0000000000007FFFF8
0000000000007FFFF8
0000000000007FFFF8
0000000000007FFFF8
0000000000007FFFF8
0000000000007FFFF8
0000000000007FFFF8
0000000000007FFFF8
0000000000007FFFF8
0000000000007FFFF8
0000000000007FFFF8
0000000000007FFFF8
0000000000007FFFF8
0000000000007FFFF8
0000000000007FFFF8
0000000000007FFFF8
0000000000007FFFF8
0000000000007FFFF8
0000000000007FFFF8
0000000000007FFFF8
0000000000007FFFF8
0000000000007FFFF8
0000000000007FFFF8
0000000000007FFFF8
0000000000007FFFF8
0000000000007FFFF8
0000000000007FFFF8
0000000000007FFFF8
0000000000007FFFF8
0000000000007FFFF8
0000000000007FFFF8
0000000000007FFFF8
0000000000007FFFF8
0000000000007FFFF8
0000000000007FFFF8
0000000000007FFFF8
0000000000007FFFF8
000000000000FFFFF8
000000000000FFFFF8
000000000001FFFFF8
000000000001FFFFF8
000000000007FFFFF8
00000000001FFFFFF8
00000007FFFFFFFFF0
000000FFFFFFFFFFF0
000003FFFFFFFFFFF0
00000FFFFFFFFFFFF0
00003FFFFFFFFFFFE0
00007FFFFFFFFFFFE0
0000FFFFFFFFFFFFC0
0000FFFFFFFFFFFFC0
0001FFFFFFFFFFFF80
0001FFFFFFFFFFFF00
0003FFFFFFFFFFFE00
0003FFFFFFFFFFFC00
0007FFFFFFFFFFF000
0007FFFFFFFFFF8000
0007FFFFFFFFF80000
0007FFFFFE00000000
0007FFFFF000000000
000FFFFFE000000000
000FFFFFC000000000
000FFFFF8000000000
000FFFFF8000000000
000FFFFF8000000000
000FFFFF8000000000
000FFFFF0000000000
000FFFFF0000000000
000FFFFF0000000000
000FFFFF0000000000
000FFFFF0000000000
000FFFFF0000000000
000FFFFF0000000000
000FFFFF0000000000
000FFFFF0000000000
000FFFFF0000000000
000FFFFF0000000000
000FFFFF0000000000
000FFFFF0000000000
000FFFFF0000000000
000FFFFF0000000000
000FFFFF0000000000
000FFFFF0000000000
000FFFFF0000000000
000FFFFF0000000000
000FFFFF0000000000
000FFFFF0000000000
000FFFFF0000000000
000FFFFF0000000000
000FFFFF0000000000
000FFFFF0000000000
000FFFFF0000000000
000FFFFF0000000000
000FFFFF0000000000
000FFFFF0000000000
000FFFFF0000000000
000FFFFF0000000000
000FFFFF0000000000
000FFFFF0000000000
000FFFFF0000000000
000FFFFF0000000000
000FFFFF0000000000
000FFFFF0000000000
000FFFFF0000000000
000FFFFE0000000000
000FFFFE0000000000
000FFFF80000000000
000000000000000000
000000000000000000
000000000000000000
000000000000000000
000000000000000000
000000000000000000
000000000000000000
000000000000000000
000000000000000000
000000000000000000
000000000000000000
000000000000000000
000000000000000000
000000000000000000
000000000000000000
000000000000000000
000000000000000000
000000000000000000
000000000000000000
000FFFFE0000000000
000FFFFF8000000000
000FFFFF8000000000
000FFFFFC000000000
000FFFFFC000000000
000FFFFFC000000000
000FFFFFC000000000
000FFFFFC000000000
000FFFFFC000000000
000FFFFFC000000000
000FFFFFC000000000
000FFFFFC000000000
000FFFFFC000000000
000FFFFFC000000000
000FFFFFC000000000
000FFFFFC000000000
000FFFFFC000000000
0007FFFFC000000000
0007FFFFC000000000
0001FFFFC000000000
ENDCHAR
STARTCHAR 0040
ENCODING 64
SWIDTH 500 0
DWIDTH 125 0
BBX 93 124 16 0
BITMAP
00007FFFFFFFFFFFFFF80000
0007FFFFFFFFFFFFFFFFC000
003FFFFFFFFFFFFFFFFFF000
00FFFFFFFFFFFFFFFFFFFC00
01FFFFFFFFFFFFFFFFFFFE00
03FFFFFFFFFFFFFFFFFFFF00
07FFFFFFFFFFFFFFFFFFFF80
0FFFFFFFFFFFFFFFFFFFFFC0
0FFFFFFFFFFFFFFFFFFFFFC0
1FFFFFFFFFFFFFFFFFFFFFE0
1FFFFFFFFFFFFFFFFFFFFFE0
3FFFFFFFFFFFFFFFFFFFFFE0
3FFFFFFFFFFFFFFFFFFFFFF0
3FFFFFFFFFFFFFFFFFFFFFF0
7FFFFFFFFFFFFFFFFFFFFFF0
7FFFFFC0000000000FFFFFF0
7FFFFE000000000003FFFFF0
7FFFFC000000000000FFFFF0
7FFFF80000000000007FFFF8
7FFFF80000000000007FFFF8
7FFFF00000000000007FFFF8
7FFFF00000000000003FFFF8
FFFFF00000000000003FFFF8
FFFFF00000000000003FFFF8
FFFFE00000000000003FFFF8
FFFFE00000000000003FFFF8
FFFFE00000000000003FFFF8
FFFFE00000000000003FFFF8
FFFFE00000000000003FFFF8
FFFFE00000000000003FFFF8
FFFFE00000000000003FFFF8
FFFFE00000000000003FFFF8
FFFFE000000007FFFFFFFFF8
FFFFE0000000FFFFFFFFFFF8
FFFFE0000003FFFFFFFFFFF8
FFFFE000000FFFFFFFFFFFF8
FFFFE000001FFFFFFFFFFFF8
FFFFE000007FFFFFFFFFFFF8
FFFFE000007FFFFFFFFFFFF8
FFFFE00000FFFFFFFFFFFFF8
FFFFE00001FFFFFFFFFFFFF8
FFFFE00001FFFFFFFFFFFFF8
FFFFE00003FFFFFFFFFFFFF8
FFFFE00003FFFFFFFFFFFFF8
FFFFE00003FFFFFFFFFFFFF8
FFFFE00007FFFFFFFFFFFFF8
FFFFE00007FFFFFFFFFFFFF8
FFFFE00007FFFFE0003FFFF8
FFFFE00007FFFF00003FFFF8
FFFFE00007FFFE00003FFFF8
FFFFE0000FFFFE00003FFFF8
FFFFE0000FFFFC00003FFFF8
FFFFE0000FFFFC00003FFFF8
FFFFE0000FFFFC00003FFFF8
FFFFE0000FFFFC00003FFFF8
FFFFE0000FFFFC00003FFFF8
FFFFE0000FFFFC00003FFFF8
FFFFE0000FFFFC00003FFFF8
FFFFE0000FFFFC00003FFFF8
FFFFE0000FFFFC00003FFFF8
FFFFE0000FFFFC00003FFFF8
FFFFE0000FFFFC00003FFFF8
FFFFE0000FFFFC00003FFFF8
FFFFE0000FFFFC00003FFFF8
FFFFE0000FFFFC00003FFFF8
FFFFE0000FFFFC00003FFFF8
FFFFE0000FFFFC00003FFFF8
FFFFE0000FFFFC00003FFFF8
FFFFE0000FFFFC00003FFFF8
FFFFE0000FFFFC00003FFFF8
FFFFE0000FFFFC00003FFFF8
FFFFE0000FFFFC00003FFFF8
FFFFE0000FFFFE00003FFFF8
FFFFE0000FFFFE00003FFFF8
FFFFE00007FFFF00003FFFF8
FFFFE00007FFFF80003FFFF8
FFFFE00007FFFFE0003FFFF8
FFFFE00007FFFFFFE03FFFF8
FFFFE00007FFFFFFE03FFFF8
FFFFE00003FFFFFFE03FFFF8
FFFFE00003FFFFFFE03FFFF8
FFFFE00003FFFFFFE03FFFF8
FFFFE00001FFFFFFE03FFFF8
FFFFE00001FFFFFFE03FFFF8
FFFFE00000FFFFFFE03FFFF8
FFFFE000007FFFFFE03FFFF8
FFFFE000007FFFFFE01FFFF8
FFFFE000001FFFFFE01FFFF8
FFFFE000000FFFFFC01FFFF8
FFFFE0000003FFFFC01FFFF8
FFFFE0000000FFFFC00FFFF8
FFFFE000000007FF0007FFF8
FFFFE0000000000000000000
FFFFE0000000000000000000
FFFFE0000000000000000000
FFFFE0000000000000000000
FFFFE0000000000000000000
FFFFE0000000000000000000
FFFFE0000000000000000000
FFFFE0000000000000000000
FFFFF0000000000000000000
FFFFF0000000000000000000
7FFFF0000000000000000000
7FFFF0000000000000000000
7FFFF8000000000000000000
7FFFF8000000000000000000
7FFFFC000000000000000000
7FFFFE000000000000000000
7FFFFFC00000000000000000
7FFFFFFFFFFFFFFFFFFFFFC0
3FFFFFFFFFFFFFFFFFFFFFC0
3FFFFFFFFFFFFFFFFFFFFFC0
3FFFFFFFFFFFFFFFFFFFFFC0
1FFFFFFFFFFFFFFFFFFFFFC0
1FFFFFFFFFFFFFFFFFFFFFC0
0FFFFFFFFFFFFFFFFFFFFFC0
0FFFFFFFFFFFFFFFFFFFFFC0
07FFFFFFFFFFFFFFFFFFFFC0
03FFFFFFFFFFFFFFFFFFFFC0
01FFFFFFFFFFFFFFFFFFFFC0
00FFFFFFFFFFFFFFFFFFFFC0
003FFFFFFFFFFFFFFFFFFFC0
0007FFFFFFFFFFFFFFFFFF80
00007FFFFFFFFFFFFFFFFE00
ENDCHAR
STARTCHAR 0041
ENCODING 65
SWIDTH 476 0
DWIDTH 119 0
BBX 84 175 18 0
BITMAP
00007FFFFFFFFFFFE00000
000FFFFFFFFFFFFFFE0000
003FFFFFFFFFFFFFFFC000
00FFFFFFFFFFFFFFFFF000
03FFFFFFFFFFFFFFFFF800
07FFFFFFFFFFFFFFFFFC00
0FFFFFFFFFFFFFFFFFFE00
0FFFFFFFFFFFFFFFFFFF00
1FFFFFFFFFFFFFFFFFFF00
1FFFFFFFFFFFFFFFFFFF80
3FFFFFFFFFFFFFFFFFFF80
3FFFFFFFFFFFFFFFFFFFC0
7FFFFFFFFFFFFFFFFFFFC0
7FFFFFFFFFFFFFFFFFFFC0
7FFFFFFFFFFFFFFFFFFFE0
7FFFFFE0000000FFFFFFE0
FFFFFF000000001FFFFFE0
FFFFFE0000000007FFFFE0
FFFFFC0000000007FFFFE0
FFFFF80000000003FFFFE0
FFFFF80000000003FFFFE0
FFFFF80000000001FFFFE0
FFFFF80000000001FFFFE0
FFFFF00000000001FFFFE0
FFFFF00000000001FFFFF0
FFFFF00000000001FFFFF0
FFFFF00000000001FFFFF0
FFFFF00000000001FFFFF0
FFFFF00000000001FFFFF0
FFFFF00000000001FFFFF0
FFFFF00000000001FFFFF0
FFFFF00000000001FFFFF0
FFFFF00000000001FFFFF0
FFFFF00000000001FFFFF0
FFFFF00000000001FFFFF0
FFFFF00000000001FFFFF0
FFFFF00000000001FFFFF0
FFFFF00000000001FFFFF0
FFFFF00000000001FFFFF0
FFFFF00000000001FFFFF0
FFFFF00000000001FFFFF0
FFFFF00000000001FFFFF0
FFFFF00000000001FFFFF0
FFFFF00000000001FFFFF0
FFFFF00000000001FFFFF0
FFFFF00000000001FFFFF0
FFFFF00000000001FFFFF0
FFFFF00000000001FFFFF0
FFFFF00000000001FFFFF0
FFFFF00000000001FFFFF0
FFFFF00000000001FFFFF0
FFFFF00000000001FFFFF0
FFFFF00000000001FFFFF0
FFFFF00000000001FFFFF0
FFFFF00000000001FFFFF0
FFFFF00000000001FFFFF0
FFFFF00000000001FFFFF0
FFFFF00000000001FFFFF0
FFFFF00000000001FFFFF0
FFFFF00000000001FFFFF0
FFFFF00000000001FFFFF0
FFFFF00000000001FFFFF0
FFFFF00000000001FFFFF0
FFFFF00000000001FFFFF0
FFFFF00000000001FFFFF0
FFFFF00000000001FFFFF0
FFFFF00000000001FFFFF0
FFFFF00000000001FFFFF0
FFFFF00000000001FFFFF0
FFFFF00000000001FFFFF0
FFFFF00000000001FFFFF0
FFFFF00000000001FFFFF0
FFFFF00000000001FFFFF0
FFFFF00000000001FFFFF0
FFFFF00000000001FFFFF0
FFFFF00000000001FFFFF0
FFFFF00000000001FFFFF0
FFFFFFFFFFFFFC01FFFFF0
FFFFFFFFFFFFFC01FFFFF0
FFFFFFFFFFFFFC01FFFFF0
FFFFFFFFFFFFFC01FFFFF0
FFFFFFFFFFFFFC01FFFFF0
FFFFFFFFFFFFFC01FFFFF0
FFFFFFFFFFFFFC01FFFFF0
FFFFFFFFFFFFFC01FFFFF0
FFFFFFFFFFFFF801FFFFF0
FFFFFFFFFFFFF801FFFFF0
FFFFFFFFFFFFF801FFFFF0
FFFFFFFFFFFFF801FFFFF0
FFFFFFFFFFFFF801FFFFF0
FFFFFFFFFFFFF001FFFFF0
FFFFFFFFFFFFE001FFFFF0
FFFFF00000000001FFFFF0
FFFFF00000000001FFFFF0
FFFFF00000000001FFFFF0
FFFFF00000000001FFFFF0
FFFFF00000000001FFFFF0
FFFFF00000000001FFFFF0
FFFFF00000000001FFFFF0
FFFFF00000000001FFFFF0
FFFFF00000000001FFFFF0
FFFFF00000000001FFFFF0
FFFFF00000000001FFFFF0
FFFFF00000000001FFFFF0
FFFFF00000000001FFFFF0
FFFFF00000000001FFFFF0
FFFFF00000000001FFFFF0
FFFFF00000000001FFFFF0
FFFFF00000000001FFFFF0
FFFFF00000000001FFFFF0
FFFFF00000000001FFFFF0
FFFFF00000000001FFFFF0
FFFFF00000000001FFFFF0
FFFFF00000000001FFFFF0
FFFFF00000000001FFFFF0
FFFFF00000000001FFFFF0
FFFFF00000000001FFFFF0
FFFFF00000000001FFFFF0
FFFFF00000000001FFFFF0
FFFFF00000000001FFFFF0
FFFFF00000000001FFFFF0
FFFFF00000000001FFFFF0
FFFFF00000000001FFFFF0
FFFFF00000000001FFFFF0
FFFFF00000000001FFFFF0
FFFFF00000000001FFFFF0
FFFFF00000000001FFFFF0
FFFFF00000000001FFFFF0
FFFFF00000000001FFFFF0
FFFFF00000000001FFFFF0
FFFFF00000000001FFFFF0
FFFFF00000000001FFFFF0
FFFFF00000000001FFFFF0
FFFFF00000000001FFFFF0
FFFFF00000000001FFFFF0
FFFFF00000000001FFFFF0
FFFFF00000000001FFFFF0
FFFFF00000000001FFFFF0
FFFFF00000000001FFFFF0
FFFFF00000000001FFFFF0
FFFFF00000000001FFFFF0
FFFFF00000000001FFFFF0
FFFFF00000000001FFFFF0
FFFFF00000000001FFFFF0
FFFFF00000000001FFFFF0
FFFFF00000000001FFFFF0
FFFFF00000000001FFFFF0
FFFFF00000000001FFFFF0
FFFFF00000000001FFFFF0
FFFFF00000000001FFFFF0
FFFFF00000000001FFFFF0
FFFFF00000000001FFFFF0
FFFFF00000000001FFFFF0
FFFFF00000000001FFFFF0
FFFFF00000000001FFFFF0
FFFFF00000000001FFFFF0
FFFFF00000000001FFFFF0
FFFFF00000000001FFFFF0
FFFFF00000000001FFFFF0
FFFFF00000000001FFFFF0
FFFFF00000000001FFFFF0
FFFFF00000000001FFFFF0
FFFFF00000000001FFFFF0
FFFFF00000000001FFFFF0
FFFFF00000000001FFFFF0
FFFFF00000000001FFFFF0
FFFFF00000000001FFFFF0
FFFFF00000000001FFFFF0
FFFFF00000000001FFFFE0
FFFFF00000000001FFFFE0
FFFFF00000000001FFFFE0
FFFFF00000000001FFFFE0
FFFFE00000000001FFFFE0
FFFFE00000000001FFFFC0
FFFF800000000001FFFF80
ENDCHAR
STARTCHAR 0042
ENCODING 66
SWIDTH 464 0
DWIDTH 116 0
BBX 81 175 18 0
BITMAP
1FFFFFFFFFFFFFFF000000
7FFFFFFFFFFFFFFFF80000
7FFFFFFFFFFFFFFFFE0000
FFFFFFFFFFFFFFFFFF8000
FFFFFFFFFFFFFFFFFFE000
FFFFFFFFFFFFFFFFFFF000
FFFFFFFFFFFFFFFFFFF800
FFFFFFFFFFFFFFFFFFF800
FFFFFFFFFFFFFFFFFFFC00
FFFFFFFFFFFFFFFFFFFC00
FFFFFFFFFFFFFFFFFFFE00
FFFFFFFFFFFFFFFFFFFE00
FFFFFFFFFFFFFFFFFFFF00
FFFFFFFFFFFFFFFFFFFF00
FFFFFFFFFFFFFFFFFFFF00
FFFFF000000003FFFFFF00
FFFFF0000000007FFFFF00
FFFFF0000000003FFFFF80
FFFFF0000000001FFFFF80
FFFFF0000000000FFFFF80
FFFFF0000000000FFFFF80
FFFFF0000000000FFFFF80
FFFFF0000000000FFFFF80
FFFFF00000000007FFFF80
FFFFF00000000007FFFF80
FFFFF00000000007FFFF80
FFFFF00000000007FFFF80
FFFFF00000000007FFFF80
FFFFF00000000007FFFF80
FFFFF00000000007FFFF80
FFFFF00000000007FFFF80
FFFFF00000000007FFFF80
FFFFF00000000007FFFF80
FFFFF00000000007FFFF80
FFFFF00000000007FFFF80
FFFFF00000000007FFFF80
FFFFF00000000007FFFF80
FFFFF00000000007FFFF80
FFFFF00000000007FFFF80
FFFFF00000000007FFFF80
FFFFF00000000007FFFF80
FFFFF00000000007FFFF80
FFFFF00000000007FFFF80
FFFFF00000000007FFFF80
FFFFF00000000007FFFF80
FFFFF00000000007FFFF80
FFFFF00000000007FFFF80
FFFFF00000000007FFFF80
FFFFF00000000007FFFF80
FFFFF00000000007FFFF80
FFFFF00000000007FFFF80
FFFFF00000000007FFFF80
FFFFF00000000007FFFF80
FFFFF00000000007FFFF80
FFFFF00000000007FFFF80
FFFFF00000000007FFFF80
FFFFF00000000007FFFF80
FFFFF00000000007FFFF80
FFFFF00000000007FFFF80
FFFFF00000000007FFFF80
FFFFF00000000007FFFF80
FFFFF00000000007FFFF80
FFFFF00000000007FFFF80
FFFFF00000000007FFFF80
FFFFF00000000007FFFF80
FFFFF00000000007FFFF80
FFFFF00000000007FFFF80
FFFFF00000000007FFFF00
FFFFF00000000007FFFF00
FFFFF0000000000FFFFF00
FFFFF0000000000FFFFF00
FFFFF0000000000FFFFE00
FFFFF0000000000FFFFE00
FFFFF0000000001FFFFE00
FFFFF0000000003FFFFC00
FFFFF0000000007FFFFC00
FFFFF000000003FFFFF800
FFFFFFFFFFFFFFFFFFF000
FFFFFFFFFFFFFFFFFFE000
FFFFFFFFFFFFFFFFFFC000
FFFFFFFFFFFFFFFFFF8000
FFFFFFFFFFFFFFFFFE0000
FFFFFFFFFFFFFFFFF00000
FFFFFFFFFFFFFFFFF00000
FFFFFFFFFFFFFFFFFE0000
FFFFFFFFFFFFFFFFFF8000
FFFFFFFFFFFFFFFFFFC000
FFFFFFFFFFFFFFFFFFE000
FFFFFFFFFFFFFFFFFFF000
FFFFFFFFFFFFFFFFFFF800
FFFFFFFFFFFFFFFFFFFC00
FFFFFFFFFFFFFFFFFFFC00
FFFFF000000003FFFFFE00
FFFFF0000000007FFFFE00
FFFFF0000000003FFFFF00
FFFFF0000000001FFFFF00
FFFFF0000000000FFFFF00
FFFFF0000000000FFFFF00
FFFFF0000000000FFFFF00
FFFFF0000000000FFFFF80
FFFFF00000000007FFFF80
FFFFF00000000007FFFF80
FFFFF00000000007FFFF80
FFFFF00000000007FFFF80
FFFFF00000000007FFFF80
FFFFF00000000007FFFF80
FFFFF00000000007FFFF80
FFFFF00000000007FFFF80
FFFFF00000000007FFFF80
FFFFF00000000007FFFF80
FFFFF00000000007FFFF80
FFFFF00000000007FFFF80
FFFFF00000000007FFFF80
FFFFF00000000007FFFF80
FFFFF00000000007FFFF80
FFFFF00000000007FFFF80
FFFFF00000000007FFFF80
FFFFF00000000007FFFF80
FFFFF00000000007FFFF80
FFFFF00000000007FFFF80
FFFFF00000000007FFFF80
FFFFF00000000007FFFF80
FFFFF00000000007FFFF80
FFFFF00000000007FFFF80
FFFFF00000000007FFFF80
FFFFF00000000007FFFF80
FFFFF00000000007FFFF80
FFFFF00000000007FFFF80
FFFFF00000000007FFFF80
FFFFF00000000007FFFF80
FFFFF00000000007FFFF80
FFFFF00000000007FFFF80
FFFFF00000000007FFFF80
FFFFF00000000007FFFF80
FFFFF00000000007FFFF80
FFFFF00000000007FFFF80
FFFFF00000000007FFFF80
FFFFF00000000007FFFF80
FFFFF00000000007FFFF80
FFFFF00000000007FFFF80
FFFFF00000000007FFFF80
FFFFF00000000007FFFF80
FFFFF00000000007FFFF80
FFFFF00000000007FFFF80
FFFFF00000000007FFFF80
FFFFF00000000007FFFF80
FFFFF00000000007FFFF80
FFFFF00000000007FFFF80
FFFFF00000000007FFFF80
FFFFF00000000007FFFF80
FFFFF00000000007FFFF80
FFFFF00000000007FFFF80
FFFFF0000000000FFFFF80
FFFFF0000000000FFFFF80
FFFFF0000000000FFFFF80
FFFFF0000000000FFFFF80
FFFFF0000000001FFFFF80
FFFFF0000000003FFFFF80
FFFFF0000000007FFFFF00
FFFFF000000003FFFFFF00
FFFFF003FFFFFFFFFFFF00
FFFFF003FFFFFFFFFFFF00
FFFFF003FFFFFFFFFFFF00
FFFFF003FFFFFFFFFFFE00
FFFFF003FFFFFFFFFFFE00
FFFFF003FFFFFFFFFFFC00
FFFFF003FFFFFFFFFFFC00
FFFFF003FFFFFFFFFFF800
FFFFF003FFFFFFFFFFF800
FFFFF003FFFFFFFFFFF000
FFFFF003FFFFFFFFFFE000
FFFFF003FFFFFFFFFF8000
FFFFF001FFFFFFFFFE0000
FFFFF001FFFFFFFFF80000
FFFFF0007FFFFFFF000000
ENDCHAR
STARTCHAR 0043
ENCODING 67
SWIDTH 392 0
DWIDTH 98 0
BBX 72 175 17 0
BITMAP
00007FFFFFFFFFF800
0007FFFFFFFFFFFF00
003FFFFFFFFFFFFFC0
00FFFFFFFFFFFFFFE0
01FFFFFFFFFFFFFFE0
03FFFFFFFFFFFFFFF0
07FFFFFFFFFFFFFFF8
0FFFFFFFFFFFFFFFF8
0FFFFFFFFFFFFFFFFC
1FFFFFFFFFFFFFFFFC
1FFFFFFFFFFFFFFFFC
3FFFFFFFFFFFFFFFFE
3FFFFFFFFFFFFFFFFE
3FFFFFFFFFFFFFFFFE
7FFFFFFFFFFFFFFFFE
7FFFFFE00000000000
7FFFFF000000000000
7FFFFE000000000000
7FFFFC000000000000
7FFFFC000000000000
7FFFFC000000000000
7FFFF8000000000000
FFFFF8000000000000
FFFFF8000000000000
FFFFF8000000000000
FFFFF8000000000000
FFFFF8000000000000
FFFFF8000000000000
FFFFF8000000000000
FFFFF8000000000000
FFFFF8000000000000
FFFFF8000000000000
FFFFF8000000000000
FFFFF8000000000000
FFFFF8000000000000
FFFFF8000000000000
FFFFF8000000000000
FFFFF8000000000000
FFFFF8000000000000
FFFFF8000000000000
FFFFF8000000000000
FFFFF8000000000000
FFFFF8000000000000
FFFFF8000000000000
FFFFF8000000000000
FFFFF8000000000000
FFFFF8000000000000
FFFFF8000000000000
FFFFF8000000000000
FFFFF8000000000000
FFFFF8000000000000
FFFFF8000000000000
FFFFF8000000000000
FFFFF8000000000000
FFFFF8000000000000
FFFFF8000000000000
FFFFF8000000000000
FFFFF8000000000000
FFFFF8000000000000
FFFFF8000000000000
FFFFF8000000000000
FFFFF8000000000000
FFFFF8000000000000
FFFFF8000000000000
FFFFF8000000000000
FFFFF8000000000000
FFFFF8000000000000
FFFFF8000000000000
FFFFF8000000000000
FFFFF8000000000000
FFFFF8000000000000
FFFFF8000000000000
FFFFF8000000000000
FFFFF8000000000000
FFFFF8000000000000
FFFFF8000000000000
FFFFF8000000000000
FFFFF8000000000000
FFFFF8000000000000
FFFFF8000000000000
FFFFF8000000000000
FFFFF8000000000000
FFFFF8000000000000
FFFFF8000000000000
FFFFF8000000000000
FFFFF8000000000000
FFFFF8000000000000
FFFFF8000000000000
FFFFF8000000000000
FFFFF8000000000000
FFFFF8000000000000
FFFFF8000000000000
FFFFF8000000000000
FFFFF8000000000000
FFFFF8000000000000
FFFFF8000000000000
FFFFF8000000000000
FFFFF8000000000000
FFFFF8000000000000
FFFFF8000000000000
FFFFF8000000000000
FFFFF8000000000000
FFFFF8000000000000
FFFFF8000000000000
FFFFF8000000000000
FFFFF8000000000000
FFFFF8000000000000
FFFFF8000000000000
FFFFF8000000000000
FFFFF8000000000000
FFFFF8000000000000
FFFFF8000000000000
FFFFF8000000000000
FFFFF8000000000000
FFFFF8000000000000
FFFFF8000000000000
FFFFF8000000000000
FFFFF8000000000000
FFFFF8000000000000
FFFFF8000000000000
FFFFF8000000000000
FFFFF8000000000000
FFFFF8000000000000
FFFFF8000000000000
FFFFF8000000000000
FFFFF8000000000000
FFFFF8000000000000
FFFFF8000000000000
FFFFF8000000000000
FFFFF8000000000000
FFFFF8000000000000
FFFFF8000000000000
FFFFF8000000000000
FFFFF8000000000000
FFFFF8000000000000
FFFFF8000000000000
FFFFF8000000000000
FFFFF8000000000000
FFFFF8000000000000
FFFFF8000000000000
FFFFF8000000000000
FFFFF8000000000000
FFFFF8000000000000
FFFFF8000000000000
FFFFF8000000000000
FFFFF8000000000000
FFFFF8000000000000
FFFFF8000000000000
FFFFF8000000000000
FFFFF8000000000000
FFFFF8000000000000
FFFFF8000000000000
7FFFF8000000000000
7FFFF8000000000000
7FFFF8000000000000
7FFFFC000000000000
7FFFFC000000000000
7FFFFE000000000000
7FFFFF000000000000
7FFFFFE00000000000
7FFFFFFFFFFFFFFFFF
3FFFFFFFFFFFFFFFFF
3FFFFFFFFFFFFFFFFF
3FFFFFFFFFFFFFFFFF
1FFFFFFFFFFFFFFFFF
1FFFFFFFFFFFFFFFFF
0FFFFFFFFFFFFFFFFF
0FFFFFFFFFFFFFFFFF
07FFFFFFFFFFFFFFFE
03FFFFFFFFFFFFFFFE
01FFFFFFFFFFFFFFFE
00FFFFFFFFFFFFFFFE
003FFFFFFFFFFFFFFE
0007FFFFFFFFFFFFFC
00007FFFFFFFFFFFF8
ENDCHAR
STARTCHAR 0044
ENCODING 68
SWIDTH 476 0
DWIDTH 119 0
BBX 84 175 18 0
BITMAP
1FFFFFFFFFFFFFFFE00000
7FFFFFFFFFFFFFFFFE0000
7FFFFFFFFFFFFFFFFFC000
FFFFFFFFFFFFFFFFFFF000
FFFFFFFFFFFFFFFFFFF800
FFFFFFFFFFFFFFFFFFFC00
FFFFFFFFFFFFFFFFFFFE00
FFFFFFFFFFFFFFFFFFFF00
FFFFFFFFFFFFFFFFFFFF00
FFFFFFFFFFFFFFFFFFFF80
FFFFFFFFFFFFFFFFFFFF80
FFFFFFFFFFFFFFFFFFFFC0
FFFFFFFFFFFFFFFFFFFFC0
FFFFFFFFFFFFFFFFFFFFC0
FFFFFFFFFFFFFFFFFFFFE0
FFFFF0000000007FFFFFE0
FFFFF0000000000FFFFFE0
FFFFF00000000007FFFFE0
FFFFF00000000003FFFFE0
FFFFF00000000003FFFFE0
FFFFF00000000003FFFFE0
FFFFF00000000001FFFFE0
FFFFF00000000001FFFFE0
FFFFF00000000001FFFFE0
FFFFF00000000001FFFFF0
FFFFF00000000001FFFFF0
FFFFF00000000001FFFFF0
FFFFF00000000001FFFFF0
FFFFF00000000001FFFFF0
FFFFF00000000001FFFFF0
FFFFF00000000001FFFFF0
FFFFF00000000001FFFFF0
FFFFF00000000001FFFFF0
FFFFF00000000001FFFFF0
FFFFF00000000001FFFFF0
FFFFF00000000001FFFFF0
FFFFF00000000001FFFFF0
FFFFF00000000001FFFFF0
FFFFF00000000001FFFFF0
FFFFF00000000001FFFFF0
FFFFF00000000001FFFFF0
FFFFF00000000001FFFFF0
FFFFF00000000001FFFFF0
FFFFF00000000001FFFFF0
FFFFF00000000001FFFFF0
FFFFF00000000001FFFFF0
FFFFF00000000001FFFFF0
FFFFF00000000001FFFFF0
FFFFF00000000001FFFFF0
FFFFF00000000001FFFFF0
FFFFF00000000001FFFFF0
FFFFF00000000001FFFFF0
FFFFF00000000001FFFFF0
FFFFF00000000001FFFFF0
FFFFF00000000001FFFFF0
FFFFF00000000001FFFFF0
FFFFF00000000001FFFFF0
FFFFF00000000001FFFFF0
FFFFF00000000001FFFFF0
FFFFF00000000001FFFFF0
FFFFF00000000001FFFFF0
FFFFF00000000001FFFFF0
FFFFF00000000001FFFFF0
FFFFF00000000001FFFFF0
FFFFF00000000001FFFFF0
FFFFF00000000001FFFFF0
FFFFF00000000001FFFFF0
FFFFF00000000001FFFFF0
FFFFF00000000001FFFFF0
FFFFF00000000001FFFFF0
FFFFF00000000001FFFFF0
FFFFF00000000001FFFFF0
FFFFF00000000001FFFFF0
FFFFF00000000001FFFFF0
FFFFF00000000001FFFFF0
FFFFF00000000001FFFFF0
FFFFF00000000001FFFFF0
FFFFF00000000001FFFFF0
FFFFF00000000001FFFFF0
FFFFF00000000001FFFFF0
FFFFF00000000001FFFFF0
FFFFF00000000001FFFFF0
FFFFF00000000001FFFFF0
FFFFF00000000001FFFFF0
FFFFF00000000001FFFFF0
FFFFF00000000001FFFFF0
FFFFF00000000001FFFFF0
FFFFF00000000001FFFFF0
FFFFF00000000001FFFFF0
FFFFF00000000001FFFFF0
FFFFF00000000001FFFFF0
FFFFF00000000001FFFFF0
FFFFF00000000001FFFFF0
FFFFF00000000001FFFFF0
FFFFF00000000001FFFFF0
FFFFF00000000001FFFFF0
FFFFF00000000001FFFFF0
FFFFF00000000001FFFFF0
FFFFF00000000001FFFFF0
FFFFF00000000001FFFFF0
FFFFF00000000001FFFFF0
FFFFF00000000001FFFFF0
FFFFF00000000001FFFFF0
FFFFF00000000001FFFFF0
FFFFF00000000001FFFFF0
FFFFF00000000001FFFFF0
FFFFF00000000001FFFFF0
FFFFF00000000001FFFFF0
FFFFF00000000001FFFFF0
FFFFF00000000001FFFFF0
FFFFF00000000001FFFFF0
FFFFF00000000001FFFFF0
FFFFF00000000001FFFFF0
FFFFF00000000001FFFFF0
FFFFF00000000001FFFFF0
FFFFF00000000001FFFFF0
FFFFF00000000001FFFFF0
FFFFF00000000001FFFFF0
FFFFF00000000001FFFFF0
FFFFF00000000001FFFFF0
FFFFF00000000001FFFFF0
FFFFF00000000001FFFFF0
FFFFF00000000001FFFFF0
FFFFF00000000001FFFFF0
FFFFF00000000001FFFFF0
FFFFF00000000001FFFFF0
FFFFF00000000001FFFFF0
FFFFF00000000001FFFFF0
FFFFF00000000001FFFFF0
FFFFF00000000001FFFFF0
FFFFF00000000001FFFFF0
FFFFF00000000001FFFFF0
FFFFF00000000001FFFFF0
FFFFF00000000001FFFFF0
FFFFF00000000001FFFFF0
FFFFF00000000001FFFFF0
FFFFF00000000001FFFFF0
FFFFF00000000001FFFFF0
FFFFF00000000001FFFFF0
FFFFF00000000001FFFFF0
FFFFF00000000001FFFFF0
FFFFF00000000001FFFFF0
FFFFF00000000001FFFFF0
FFFFF00000000001FFFFF0
FFFFF00000000001FFFFF0
FFFFF00000000001FFFFF0
FFFFF00000000001FFFFF0
FFFFF00000000001FFFFF0
FFFFF00000000001FFFFF0
FFFFF00000000001FFFFF0
FFFFF00000000001FFFFF0
FFFFF00000000001FFFFF0
FFFFF00000000001FFFFE0
FFFFF00000000001FFFFE0
FFFFF00000000003FFFFE0
FFFFF00000000003FFFFE0
FFFFF00000000003FFFFE0
FFFFF00000000007FFFFE0
FFFFF0000000000FFFFFE0
FFFFF0000000007FFFFFE0
FFFFF003FFFFFFFFFFFFE0
FFFFF003FFFFFFFFFFFFC0
FFFFF003FFFFFFFFFFFFC0
FFFFF003FFFFFFFFFFFFC0
FFFFF003FFFFFFFFFFFF80
FFFFF003FFFFFFFFFFFF80
FFFFF003FFFFFFFFFFFF00
FFFFF003FFFFFFFFFFFF00
FFFFF003FFFFFFFFFFFE00
FFFFF003FFFFFFFFFFFC00
FFFFF003FFFFFFFFFFF800
FFFFF003FFFFFFFFFFF000
FFFFF001FFFFFFFFFFC000
FFFFF001FFFFFFFFFE0000
FFFFF0007FFFFFFFE00000
ENDCHAR
STARTCHAR 0045
ENCODING 69
SWIDTH 388 0
DWIDTH 97 0
BBX 68 175 18 0
BITMAP
1FFFFFFFFFFFFFFFF0
7FFFFFFFFFFFFFFFF0
7FFFFFFFFFFFFFFFF0
FFFFFFFFFFFFFFFFF0
FFFFFFFFFFFFFFFFF0
FFFFFFFFFFFFFFFFF0
FFFFFFFFFFFFFFFFF0
FFFFFFFFFFFFFFFFF0
FFFFFFFFFFFFFFFFF0
FFFFFFFFFFFFFFFFF0
FFFFFFFFFFFFFFFFF0
FFFFFFFFFFFFFFFFE0
FFFFFFFFFFFFFFFFE0
FFFFFFFFFFFFFFFFE0
FFFFFFFFFFFFFFFF80
FFFFF0000000000000
FFFFF0000000000000
FFFFF0000000000000
FFFFF0000000000000
FFFFF0000000000000
FFFFF0000000000000
FFFFF0000000000000
FFFFF0000000000000
FFFFF0000000000000
FFFFF0000000000000
FFFFF0000000000000
FFFFF0000000000000
FFFFF0000000000000
FFFFF0000000000000
FFFFF0000000000000
FFFFF0000000000000
FFFFF0000000000000
FFFFF0000000000000
FFFFF0000000000000
FFFFF0000000000000
FFFFF0000000000000
FFFFF0000000000000
FFFFF0000000000000
FFFFF0000000000000
FFFFF0000000000000
FFFFF0000000000000
FFFFF0000000000000
FFFFF0000000000000
FFFFF0000000000000
FFFFF0000000000000
FFFFF0000000000000
FFFFF0000000000000
FFFFF0000000000000
FFFFF0000000000000
FFFFF0000000000000
FFFFF0000000000000
FFFFF0000000000000
FFFFF0000000000000
FFFFF0000000000000
FFFFF0000000000000
FFFFF0000000000000
FFFFF0000000000000
FFFFF0000000000000
FFFFF0000000000000
FFFFF0000000000000
FFFFF0000000000000
FFFFF0000000000000
FFFFF0000000000000
FFFFF0000000000000
FFFFF0000000000000
FFFFF0000000000000
FFFFF0000000000000
FFFFF0000000000000
FFFFF0000000000000
FFFFF0000000000000
FFFFF0000000000000
FFFFF0000000000000
FFFFF0000000000000
FFFFF0000000000000
FFFFF0000000000000
FFFFF0000000000000
FFFFF0000000000000
FFFFFFFFFFFFFFF000
FFFFFFFFFFFFFFF000
FFFFFFFFFFFFFFF000
FFFFFFFFFFFFFFF000
FFFFFFFFFFFFFFF000
FFFFFFFFFFFFFFF000
FFFFFFFFFFFFFFF000
FFFFFFFFFFFFFFF000
FFFFFFFFFFFFFFF000
FFFFFFFFFFFFFFF000
FFFFFFFFFFFFFFF000
FFFFFFFFFFFFFFF000
FFFFFFFFFFFFFFF000
FFFFFFFFFFFFFFE000
FFFFFFFFFFFFFFC000
FFFFF0000000000000
FFFFF0000000000000
FFFFF0000000000000
FFFFF0000000000000
FFFFF0000000000000
FFFFF0000000000000
FFFFF0000000000000
FFFFF0000000000000
FFFFF0000000000000
FFFFF0000000000000
FFFFF0000000000000
FFFFF0000000000000
FFFFF0000000000000
FFFFF0000000000000
FFFFF0000000000000
FFFFF0000000000000
FFFFF0000000000000
FFFFF0000000000000
FFFFF0000000000000
FFFFF0000000000000
FFFFF0000000000000
FFFFF0000000000000
FFFFF0000000000000
FFFFF0000000000000
FFFFF0000000000000
FFFFF0000000000000
FFFFF0000000000000
FFFFF0000000000000
FFFFF0000000000000
FFFFF0000000000000
FFFFF0000000000000
FFFFF0000000000000
FFFFF0000000000000
FFFFF0000000000000
FFFFF0000000000000
FFFFF0000000000000
FFFFF0000000000000
FFFFF0000000000000
FFFFF0000000000000
FFFFF0000000000000
FFFFF0000000000000
FFFFF0000000000000
FFFFF0000000000000
FFFFF0000000000000
FFFFF0000000000000
FFFFF0000000000000
FFFFF0000000000000
FFFFF0000000000000
FFFFF0000000000000
FFFFF0000000000000
FFFFF0000000000000
FFFFF0000000000000
FFFFF0000000000000
FFFFF0000000000000
FFFFF0000000000000
FFFFF0000000000000
FFFFF0000000000000
FFFFF0000000000000
FFFFF0000000000000
FFFFF0000000000000
FFFFF0000000000000
FFFFF0000000000000
FFFFF0000000000000
FFFFF0000000000000
FFFFF0000000000000
FFFFF0000000000000
FFFFF0000000000000
FFFFF0000000000000
FFFFFFFFFFFFFFFFF0
FFFFFFFFFFFFFFFFF0
FFFFFFFFFFFFFFFFF0
FFFFFFFFFFFFFFFFF0
FFFFFFFFFFFFFFFFF0
FFFFFFFFFFFFFFFFF0
FFFFFFFFFFFFFFFFF0
FFFFFFFFFFFFFFFFF0
FFFFFFFFFFFFFFFFF0
FFFFFFFFFFFFFFFFF0
FFFFFFFFFFFFFFFFF0
FFFFFFFFFFFFFFFFE0
FFFFFFFFFFFFFFFFE0
FFFFFFFFFFFFFFFFC0
FFFFFFFFFFFFFFFF80
ENDCHAR
STARTCHAR 0046
ENCODING 70
SWIDTH 372 0
DWIDTH 93 0
BBX 68 175 18 0
BITMAP
1FFFFFFFFFFFFFFFF0
7FFFFFFFFFFFFFFFF0
7FFFFFFFFFFFFFFFF0
FFFFFFFFFFFFFFFFF0
FFFFFFFFFFFFFFFFF0
FFFFFFFFFFFFFFFFF0
FFFFFFFFFFFFFFFFF0
FFFFFFFFFFFFFFFFF0
FFFFFFFFFFFFFFFFF0
FFFFFFFFFFFFFFFFF0
FFFFFFFFFFFFFFFFF0
FFFFFFFFFFFFFFFFE0
FFFFFFFFFFFFFFFFE0
FFFFFFFFFFFFFFFFE0
FFFFFFFFFFFFFFFF80
FFFFF0000000000000
FFFFF0000000000000
FFFFF0000000000000
FFFFF0000000000000
FFFFF0000000000000
FFFFF0000000000000
FFFFF0000000000000
FFFFF0000000000000
FFFFF0000000000000
FFFFF0000000000000
FFFFF0000000000000
FFFFF0000000000000
FFFFF0000000000000
FFFFF0000000000000
FFFFF0000000000000
FFFFF0000000000000
FFFFF0000000000000
FFFFF0000000000000
FFFFF0000000000000
FFFFF0000000000000
FFFFF0000000000000
FFFFF0000000000000
FFFFF0000000000000
FFFFF0000000000000
FFFFF0000000000000
FFFFF0000000000000
FFFFF0000000000000
FFFFF0000000000000
FFFFF0000000000000
FFFFF0000000000000
FFFFF0000000000000
FFFFF0000000000000
FFFFF0000000000000
FFFFF0000000000000
FFFFF0000000000000
FFFFF0000000000000
FFFFF0000000000000
FFFFF0000000000000
FFFFF0000000000000
FFFFF0000000000000
FFFFF0000000000000
FFFFF0000000000000
FFFFF0000000000000
FFFFF0000000000000
FFFFF0000000000000
FFFFF0000000000000
FFFFF0000000000000
FFFFF0000000000000
FFFFF0000000000000
FFFFF0000000000000
FFFFF0000000000000
FFFFF0000000000000
FFFFF0000000000000
FFFFF0000000000000
FFFFF0000000000000
FFFFF0000000000000
FFFFF0000000000000
FFFFF0000000000000
FFFFF0000000000000
FFFFF0000000000000
FFFFF0000000000000
FFFFF0000000000000
FFFFFFFFFFFFFFF000
FFFFFFFFFFFFFFF000
FFFFFFFFFFFFFFF000
FFFFFFFFFFFFFFF000
FFFFFFFFFFFFFFF000
FFFFFFFFFFFFFFF000
FFFFFFFFFFFFFFF000
FFFFFFFFFFFFFFF000
FFFFFFFFFFFFFFF000
FFFFFFFFFFFFFFF000
FFFFFFFFFFFFFFF000
FFFFFFFFFFFFFFF000
FFFFFFFFFFFFFFF000
FFFFFFFFFFFFFFE000
FFFFFFFFFFFFFFC000
FFFFF0000000000000
FFFFF0000000000000
FFFFF0000000000000
FFFFF0000000000000
FFFFF0000000000000
FFFFF0000000000000
FFFFF0000000000000
FFFFF0000000000000
FFFFF0000000000000
FFFFF0000000000000
FFFFF0000000000000
FFFFF0000000000000
FFFFF0000000000000
FFFFF0000000000000
FFFFF0000000000000
FFFFF0000000000000
FFFFF0000000000000
FFFFF0000000000000
FFFFF0000000000000
FFFFF0000000000000
FFFFF0000000000000
FFFFF0000000000000
FFFFF0000000000000
FFFFF0000000000000
FFFFF0000000000000
FFFFF0000000000000
FFFFF0000000000000
FFFFF0000000000000
FFFFF0000000000000
FFFFF0000000000000
FFFFF0000000000000
FFFFF0000000000000
FFFFF0000000000000
FFFFF0000000000000
FFFFF0000000000000
FFFFF0000000000000
FFFFF0000000000000
FFFFF0000000000000
FFFFF0000000000000
FFFFF0000000000000
FFFFF0000000000000
FFFFF0000000000000
FFFFF0000000000000
FFFFF0000000000000
FFFFF0000000000000
FFFFF0000000000000
FFFFF0000000000000
FFFFF0000000000000
FFFFF0000000000000
FFFFF0000000000000
FFFFF0000000000000
FFFFF0000000000000
FFFFF0000000000000
FFFFF0000000000000
FFFFF0000000000000
FFFFF0000000000000
FFFFF0000000000000
FFFFF0000000000000
FFFFF0000000000000
FFFFF0000000000000
FFFFF0000000000000
FFFFF0000000000000
FFFFF0000000000000
FFFFF0000000000000
FFFFF0000000000000
FFFFF0000000000000
FFFFF0000000000000
FFFFF0000000000000
FFFFF0000000000000
FFFFF0000000000000
FFFFF0000000000000
FFFFF0000000000000
FFFFF0000000000000
FFFFF0000000000000
FFFFF0000000000000
FFFFF0000000000000
FFFFF0000000000000
FFFFF0000000000000
FFFFF0000000000000
FFFFF0000000000000
FFFFE0000000000000
FFFFE0000000000000
FFFF80000000000000
ENDCHAR
STARTCHAR 0047
ENCODING 71
SWIDTH 464 0
DWIDTH 116 0
BBX 84 175 17 0
BITMAP
00007FFFFFFFFFFFFFF800
0007FFFFFFFFFFFFFFFC00
003FFFFFFFFFFFFFFFFE00
00FFFFFFFFFFFFFFFFFE00
01FFFFFFFFFFFFFFFFFE00
03FFFFFFFFFFFFFFFFFE00
07FFFFFFFFFFFFFFFFFE00
0FFFFFFFFFFFFFFFFFFE00
0FFFFFFFFFFFFFFFFFFE00
1FFFFFFFFFFFFFFFFFFE00
1FFFFFFFFFFFFFFFFFFE00
3FFFFFFFFFFFFFFFFFFE00
3FFFFFFFFFFFFFFFFFFE00
3FFFFFFFFFFFFFFFFFFE00
7FFFFFFFFFFFFFFFFFFE00
7FFFFFE000000000000000
7FFFFF0000000000000000
7FFFFE0000000000000000
7FFFFC0000000000000000
7FFFFC0000000000000000
7FFFFC0000000000000000
7FFFF80000000000000000
FFFFF80000000000000000
FFFFF80000000000000000
FFFFF80000000000000000
FFFFF80000000000000000
FFFFF80000000000000000
FFFFF80000000000000000
FFFFF80000000000000000
FFFFF80000000000000000
FFFFF80000000000000000
FFFFF80000000000000000
FFFFF80000000000000000
FFFFF80000000000000000
FFFFF80000000000000000
FFFFF80000000000000000
FFFFF80000000000000000
FFFFF80000000000000000
FFFFF80000000000000000
FFFFF80000000000000000
FFFFF80000000000000000
FFFFF80000000000000000
FFFFF80000000000000000
FFFFF80000000000000000
FFFFF80000000000000000
FFFFF80000000000000000
FFFFF80000000000000000
FFFFF80000000000000000
FFFFF80000000000000000
FFFFF80000000000000000
FFFFF80000000000000000
FFFFF80000000000000000
FFFFF80000000000000000
FFFFF80000000000000000
FFFFF80000000000000000
FFFFF80000000000000000
FFFFF80000000000000000
FFFFF80000000000000000
FFFFF80000000000000000
FFFFF80000000000000000
FFFFF80000000000000000
FFFFF80000000000000000
FFFFF80000000000000000
FFFFF80000000000000000
FFFFF80000000000000000
FFFFF80000000000000000
FFFFF80000000000000000
FFFFF80000000000000000
FFFFF80000000000000000
FFFFF80000000000000000
FFFFF80000000000000000
FFFFF80000000000000000
FFFFF80000000000000000
FFFFF80000000000000000
FFFFF80000000000000000
FFFFF80000000000000000
FFFFF80000000000000000
FFFFF8000003FFFFFFFFF0
FFFFF800000FFFFFFFFFF0
FFFFF800001FFFFFFFFFF0
FFFFF800001FFFFFFFFFF0
FFFFF800001FFFFFFFFFF0
FFFFF800001FFFFFFFFFF0
FFFFF800003FFFFFFFFFF0
FFFFF800003FFFFFFFFFF0
FFFFF800003FFFFFFFFFF0
FFFFF800003FFFFFFFFFF0
FFFFF800003FFFFFFFFFF0
FFFFF800003FFFFFFFFFF0
FFFFF800003FFFFFFFFFF0
FFFFF800003FFFFFFFFFF0
FFFFF800003FFFFFFFFFF0
FFFFF80000000000FFFFF0
FFFFF80000000000FFFFF0
FFFFF80000000000FFFFF0
FFFFF80000000000FFFFF0
FFFFF80000000000FFFFF0
FFFFF80000000000FFFFF0
FFFFF80000000000FFFFF0
FFFFF80000000000FFFFF0
FFFFF80000000000FFFFF0
FFFFF80000000000FFFFF0
FFFFF80000000000FFFFF0
FFFFF80000000000FFFFF0
FFFFF80000000000FFFFF0
FFFFF80000000000FFFFF0
FFFFF80000000000FFFFF0
FFFFF80000000000FFFFF0
FFFFF80000000000FFFFF0
FFFFF80000000000FFFFF0
FFFFF80000000000FFFFF0
FFFFF80000000000FFFFF0
FFFFF80000000000FFFFF0
FFFFF80000000000FFFFF0
FFFFF80000000000FFFFF0
FFFFF80000000000FFFFF0
FFFFF80000000000FFFFF0
FFFFF80000000000FFFFF0
FFFFF80000000000FFFFF0
FFFFF80000000000FFFFF0
FFFFF80000000000FFFFF0
FFFFF80000000000FFFFF0
FFFFF80000000000FFFFF0
FFFFF80000000000FFFFF0
FFFFF80000000000FFFFF0
FFFFF80000000000FFFFF0
FFFFF80000000000FFFFF0
FFFFF80000000000FFFFF0
FFFFF80000000000FFFFF0
FFFFF80000000000FFFFF0
FFFFF80000000000FFFFF0
FFFFF80000000000FFFFF0
FFFFF80000000000FFFFF0
FFFFF80000000000FFFFF0
FFFFF80000000000FFFFF0
FFFFF80000000000FFFFF0
FFFFF80000000000FFFFF0
FFFFF80000000000FFFFF0
FFFFF80000000000FFFFF0
FFFFF80000000000FFFFF0
FFFFF80000000000FFFFF0
FFFFF80000000000FFFFF0
FFFFF80000000000FFFFF0
FFFFF80000000000FFFFF0
FFFFF80000000000FFFFF0
FFFFF80000000000FFFFF0
FFFFF80000000000FFFFF0
FFFFF80000000000FFFFF0
FFFFF80000000000FFFFF0
FFFFF80000000000FFFFF0
FFFFF80000000000FFFFF0
FFFFF80000000000FFFFF0
7FFFF80000000001FFFFF0
7FFFF80000000001FFFFF0
7FFFF80000000001FFFFF0
7FFFFC0000000001FFFFF0
7FFFFC0000000003FFFFF0
7FFFFE0000000007FFFFF0
7FFFFF000000000FFFFFE0
7FFFFFE00000007FFFFFE0
7FFFFFFFFFFFFFFFFFFFE0
3FFFFFFFFFFFFFFFFFFFE0
3FFFFFFFFFFFFFFFFFFFE0
3FFFFFFFFFFFFFFFFFFFC0
1FFFFFFFFFFFFFFFFFFFC0
1FFFFFFFFFFFFFFFFFFF80
0FFFFFFFFFFFFFFFFFFF80
0FFFFFFFFFFFFFFFFFFF00
07FFFFFFFFFFFFFFFFFF00
03FFFFFFFFFFFFFFFFFE00
01FFFFFFFFFFFFFFFFFC00
00FFFFFFFFFFFFFFFFF000
003FFFFFFFFFFFFFFFC000
0007FFFFFFFFFFFFFF0000
00007FFFFFFFFFFFE00000
ENDCHAR
STARTCHAR 0048
ENCODING 72
SWIDTH 500 0
DWIDTH 125 0
BBX 89 175 18 0
BITMAP
1FFFF0000000000001FFFF80
7FFFF0000000000003FFFF80
7FFFF0000000000007FFFF80
FFFFF0000000000007FFFF80
FFFFF0000000000007FFFF80
FFFFF0000000000007FFFF80
FFFFF000000000000FFFFF80
FFFFF000000000000FFFFF80
FFFFF000000000000FFFFF80
FFFFF000000000000FFFFF80
FFFFF000000000000FFFFF80
FFFFF000000000000FFFFF80
FFFFF000000000000FFFFF80
FFFFF000000000000FFFFF80
FFFFF000000000000FFFFF80
FFFFF000000000000FFFFF80
FFFFF000000000000FFFFF80
FFFFF000000000000FFFFF80
FFFFF000000000000FFFFF80
FFFFF000000000000FFFFF80
FFFFF000000000000FFFFF80
FFFFF000000000000FFFFF80
FFFFF000000000000FFFFF80
FFFFF000000000000FFFFF80
FFFFF000000000000FFFFF80
FFFFF000000000000FFFFF80
FFFFF000000000000FFFFF80
FFFFF000000000000FFFFF80
FFFFF000000000000FFFFF80
FFFFF000000000000FFFFF80
FFFFF000000000000FFFFF80
FFFFF000000000000FFFFF80
FFFFF000000000000FFFFF80
FFFFF000000000000FFFFF80
FFFFF000000000000FFFFF80
FFFFF000000000000FFFFF80
FFFFF000000000000FFFFF80
FFFFF000000000000FFFFF80
FFFFF000000000000FFFFF80
FFFFF000000000000FFFFF80
FFFFF000000000000FFFFF80
FFFFF000000000000FFFFF80
FFFFF000000000000FFFFF80
FFFFF000000000000FFFFF80
FFFFF000000000000FFFFF80
FFFFF000000000000FFFFF80
FFFFF000000000000FFFFF80
FFFFF000000000000FFFFF80
FFFFF000000000000FFFFF80
FFFFF000000000000FFFFF80
FFFFF000000000000FFFFF80
FFFFF000000000000FFFFF80
FFFFF000000000000FFFFF80
FFFFF000000000000FFFFF80
FFFFF000000000000FFFFF80
FFFFF000000000000FFFFF80
FFFFF000000000000FFFFF80
FFFFF000000000000FFFFF80
FFFFF000000000000FFFFF80
FFFFF000000000000FFFFF80
FFFFF000000000000FFFFF80
FFFFF000000000000FFFFF80
FFFFF000000000000FFFFF80
FFFFF000000000000FFFFF80
FFFFF000000000000FFFFF80
FFFFF000000000000FFFFF80
FFFFF000000000000FFFFF80
FFFFF000000000000FFFFF80
FFFFF000000000000FFFFF80
FFFFF000000000000FFFFF80
FFFFF000000000000FFFFF80
FFFFF000000000000FFFFF80
FFFFF000000000000FFFFF80
FFFFF000000000000FFFFF80
FFFFF000000000000FFFFF80
FFFFF000000000000FFFFF80
FFFFF000000000000FFFFF80
FFFFFFFFFFFFFFE00FFFFF80
FFFFFFFFFFFFFFE00FFFFF80
FFFFFFFFFFFFFFE00FFFFF80
FFFFFFFFFFFFFFE00FFFFF80
FFFFFFFFFFFFFFE00FFFFF80
FFFFFFFFFFFFFFE00FFFFF80
FFFFFFFFFFFFFFE00FFFFF80
FFFFFFFFFFFFFFE00FFFFF80
FFFFFFFFFFFFFFC00FFFFF80
FFFFFFFFFFFFFFC00FFFFF80
FFFFFFFFFFFFFFC00FFFFF80
FFFFFFFFFFFFFFC00FFFFF80
FFFFFFFFFFFFFFC00FFFFF80
FFFFFFFFFFFFFF800FFFFF80
FFFFFFFFFFFFFF000FFFFF80
FFFFF000000000000FFFFF80
FFFFF000000000000FFFFF80
FFFFF000000000000FFFFF80
FFFFF000000000000FFFFF80
FFFFF000000000000FFFFF80
FFFFF000000000000FFFFF80
FFFFF000000000000FFFFF80
FFFFF000000000000FFFFF80
FFFFF000000000000FFFFF80
FFFFF000000000000FFFFF80
FFFFF000000000000FFFFF80
FFFFF000000000000FFFFF80
FFFFF000000000000FFFFF80
FFFFF000000000000FFFFF80
FFFFF000000000000FFFFF80
FFFFF000000000000FFFFF80
FFFFF000000000000FFFFF80
FFFFF000000000000FFFFF80
FFFFF000000000000FFFFF80
FFFFF000000000000FFFFF80
FFFFF000000000000FFFFF80
FFFFF000000000000FFFFF80
FFFFF000000000000FFFFF80
FFFFF000000000000FFFFF80
FFFFF000000000000FFFFF80
FFFFF000000000000FFFFF80
FFFFF000000000000FFFFF80
FFFFF000000000000FFFFF80
FFFFF000000000000FFFFF80
FFFFF000000000000FFFFF80
FFFFF000000000000FFFFF80
FFFFF000000000000FFFFF80
FFFFF000000000000FFFFF80
FFFFF000000000000FFFFF80
FFFFF000000000000FFFFF80
FFFFF000000000000FFFFF80
FFFFF000000000000FFFFF80
FFFFF000000000000FFFFF80
FFFFF000000000000FFFFF80
FFFFF000000000000FFFFF80
FFFFF000000000000FFFFF80
FFFFF000000000000FFFFF80
FFFFF000000000000FFFFF80
FFFFF000000000000FFFFF80
FFFFF000000000000FFFFF80
FFFFF000000000000FFFFF80
FFFFF000000000000FFFFF80
FFFFF000000000000FFFFF80
FFFFF000000000000FFFFF80
FFFFF000000000000FFFFF80
FFFFF000000000000FFFFF80
FFFFF000000000000FFFFF80
FFFFF000000000000FFFFF80
FFFFF000000000000FFFFF80
FFFFF000000000000FFFFF80
FFFFF000000000000FFFFF80
FFFFF000000000000FFFFF80
FFFFF000000000000FFFFF80
FFFFF000000000000FFFFF80
FFFFF000000000000FFFFF80
FFFFF000000000000FFFFF80
FFFFF000000000000FFFFF80
FFFFF000000000000FFFFF80
FFFFF000000000000FFFFF80
FFFFF000000000000FFFFF80
FFFFF000000000000FFFFF80
FFFFF000000000000FFFFF80
FFFFF000000000000FFFFF80
FFFFF000000000000FFFFF80
FFFFF000000000000FFFFF80
FFFFF000000000000FFFFF80
FFFFF000000000000FFFFF80
FFFFF000000000000FFFFF80
FFFFF000000000000FFFFF80
FFFFF000000000000FFFFF80
FFFFF000000000000FFFFF80
FFFFF000000000000FFFFF00
FFFFF000000000000FFFFF00
FFFFF000000000000FFFFF00
FFFFF000000000000FFFFF00
FFFFE000000000000FFFFF00
FFFFE000000000000FFFFE00
FFFF8000000000000FFFFC00
ENDCHAR
STARTCHAR 0049
ENCODING 73
SWIDTH 224 0
DWIDTH 56 0
BBX 20 175 18 0
BITMAP
1FFFF0
7FFFF0
7FFFF0
FFFFF0
FFFFF0
FFFFF0
FFFFF0
FFFFF0
FFFFF0
FFFFF0
FFFFF0
FFFFF0
FFFFF0
FFFFF0
FFFFF0
FFFFF0
FFFFF0
FFFFF0
FFFFF0
FFFFF0
FFFFF0
FFFFF0
FFFFF0
FFFFF0
FFFFF0
FFFFF0
FFFFF0
FFFFF0
FFFFF0
FFFFF0
FFFFF0
FFFFF0
FFFFF0
FFFFF0
FFFFF0
FFFFF0
FFFFF0
FFFFF0
FFFFF0
FFFFF0
FFFFF0
FFFFF0
FFFFF0
FFFFF0
FFFFF0
FFFFF0
FFFFF0
FFFFF0
FFFFF0
FFFFF0
FFFFF0
FFFFF0
FFFFF0
FFFFF0
FFFFF0
FFFFF0
FFFFF0
FFFFF0
FFFFF0
FFFFF0
FFFFF0
FFFFF0
FFFFF0
FFFFF0
FFFFF0
FFFFF0
FFFFF0
FFFFF0
FFFFF0
FFFFF0
FFFFF0
FFFFF0
FFFFF0
FFFFF0
FFFFF0
FFFFF0
FFFFF0
FFFFF0
FFFFF0
FFFFF0
FFFFF0
FFFFF0
FFFFF0
FFFFF0
FFFFF0
FFFFF0
FFFFF0
FFFFF0
FFFFF0
FFFFF0
FFFFF0
FFFFF0
FFFFF0
FFFFF0
FFFFF0
FFFFF0
FFFFF0
FFFFF0
FFFFF0
FFFFF0
FFFFF0
FFFFF0
FFFFF0
FFFFF0
FFFFF0
FFFFF0
FFFFF0
FFFFF0
FFFFF0
FFFFF0
FFFFF0
FFFFF0
FFFFF0
FFFFF0
FFFFF0
FFFFF0
FFFFF0
FFFFF0
FFFFF0
FFFFF0
FFFFF0
FFFFF0
FFFFF0
FFFFF0
FFFFF0
FFFFF0
FFFFF0
FFFFF0
FFFFF0
FFFFF0
FFFFF0
FFFFF0
FFFFF0
FFFFF0
FFFFF0
FFFFF0
FFFFF0
FFFFF0
FFFFF0
FFFFF0
FFFFF0
FFFFF0
FFFFF0
FFFFF0
FFFFF0
FFFFF0
FFFFF0
FFFFF0
FFFFF0
FFFFF0
FFFFF0
FFFFF0
FFFFF0
FFFFF0
FFFFF0
FFFFF0
FFFFF0
FFFFF0
FFFFF0
FFFFF0
FFFFF0
FFFFF0
FFFFF0
FFFFF0
FFFFF0
FFFFF0
FFFFF0
FFFFF0
FFFFF0
FFFFF0
FFFFF0
FFFFF0
FFFFE0
FFFFE0
FFFF80
ENDCHAR
STARTCHAR 004A
ENCODING 74
SWIDTH 224 0
DWIDTH 56 0
BBX 46 204 -8 -29
BITMAP
00000007FFFC
0000001FFFFC
0000001FFFFC
0000003FFFFC
0000003FFFFC
0000003FFFFC
0000003FFFFC
0000003FFFFC
0000003FFFFC
0000003FFFFC
0000003FFFFC
0000003FFFFC
0000003FFFFC
0000003FFFFC
0000003FFFFC
0000003FFFFC
0000003FFFFC
0000003FFFFC
0000003FFFFC
0000003FFFFC
0000003FFFFC
0000003FFFFC
0000003FFFFC
0000003FFFFC
0000003FFFFC
0000003FFFFC
0000003FFFFC
0000003FFFFC
0000003FFFFC
0000003FFFFC
0000003FFFFC
0000003FFFFC
0000003FFFFC
0000003FFFFC
0000003FFFFC
0000003FFFFC
0000003FFFFC
0000003FFFFC
0000003FFFFC
0000003FFFFC
0000003FFFFC
0000003FFFFC
0000003FFFFC
0000003FFFFC
0000003FFFFC
0000003FFFFC
0000003FFFFC
0000003FFFFC
0000003FFFFC
0000003FFFFC
0000003FFFFC
0000003FFFFC
0000003FFFFC
0000003FFFFC
0000003FFFFC
0000003FFFFC
0000003FFFFC
0000003FFFFC
0000003FFFFC
0000003FFFFC
0000003FFFFC
0000003FFFFC
0000003FFFFC
0000003FFFFC
0000003FFFFC
0000003FFFFC
0000003FFFFC
0000003FFFFC
0000003FFFFC
0000003FFFFC
0000003FFFFC
0000003FFFFC
0000003FFFFC
0000003FFFFC
0000003FFFFC
0000003FFFFC
0000003FFFFC
0000003FFFFC
0000003FFFFC
0000003FFFFC
0000003FFFFC
0000003FFFFC
0000003FFFFC
0000003FFFFC
0000003FFFFC
0000003FFFFC
0000003FFFFC
0000003FFFFC
0000003FFFFC
0000003FFFFC
0000003FFFFC
0000003FFFFC
0000003FFFFC
0000003FFFFC
0000003FFFFC
0000003FFFFC
0000003FFFFC
0000003FFFFC
0000003FFFFC
0000003FFFFC
0000003FFFFC
0000003FFFFC
0000003FFFFC
0000003FFFFC
0000003FFFFC
0000003FFFFC
0000003FFFFC
0000003FFFFC
0000003FFFFC
0000003FFFFC
0000003FFFFC
0000003FFFFC
0000003FFFFC
0000003FFFFC
0000003FFFFC
0000003FFFFC
0000003FFFFC
0000003FFFFC
0000003FFFFC
0000003FFFFC
0000003FFFFC
0000003FFFFC
0000003FFFFC
0000003FFFFC
0000003FFFFC
0000003FFFFC
0000003FFFFC
0000003FFFFC
0000003FFFFC
0000003FFFFC
0000003FFFFC
0000003FFFFC
0000003FFFFC
0000003FFFFC
0000003FFFFC
0000003FFFFC
0000003FFFFC
0000003FFFFC
0000003FFFFC
0000003FFFFC
0000003FFFFC
0000003FFFFC
0000003FFFFC
0000003FFFFC
0000003FFFFC
0000003FFFFC
0000003FFFFC
0000003FFFFC
0000003FFFFC
0000003FFFFC
0000003FFFFC
0000003FFFFC
0000003FFFFC
0000003FFFFC
0000003FFFFC
0000003FFFFC
0000003FFFFC
0000003FFFFC
0000003FFFFC
0000003FFFFC
0000003FFFFC
0000003FFFFC
0000003FFFFC
0000003FFFFC
0000003FFFFC
0000003FFFFC
0000003FFFFC
0000003FFFFC
0000003FFFFC
0000003FFFFC
0000003FFFFC
0000003FFFFC
0000003FFFFC
0000003FFFFC
0000003FFFFC
0000003FFFFC
0000003FFFFC
0000003FFFFC
0000003FFFFC
0000003FFFFC
0000003FFFFC
0000007FFFFC
0000007FFFFC
0000007FFFFC
0000007FFFFC
000000FFFFFC
000001FFFFFC
000003FFFFF8
00001FFFFFF8
1FFFFFFFFFF8
7FFFFFFFFFF8
7FFFFFFFFFF8
FFFFFFFFFFF0
FFFFFFFFFFF0
FFFFFFFFFFE0
FFFFFFFFFFE0
FFFFFFFFFFC0
FFFFFFFFFFC0
FFFFFFFFFF80
FFFFFFFFFF00
FFFFFFFFFC00
FFFFFFFFF000
FFFFFFFFC000
FFFFFFF80000
ENDCHAR
STARTCHAR 004B
ENCODING 75
SWIDTH 456 0
DWIDTH 114 0
BBX 92 175 18 0
BITMAP
1FFFF00000000000003FFF00
7FFFF0000000000001FFFF00
7FFFF0000000000007FFFE00
FFFFF000000000000FFFFE00
FFFFF000000000001FFFFC00
FFFFF000000000003FFFFC00
FFFFF000000000007FFFF800
FFFFF000000000007FFFF800
FFFFF00000000000FFFFF000
FFFFF00000000000FFFFF000
FFFFF00000000001FFFFE000
FFFFF00000000001FFFFC000
FFFFF00000000003FFFFC000
FFFFF00000000003FFFF8000
FFFFF00000000007FFFF8000
FFFFF00000000007FFFF0000
FFFFF0000000000FFFFF0000
FFFFF0000000000FFFFE0000
FFFFF0000000001FFFFE0000
FFFFF0000000001FFFFC0000
FFFFF0000000003FFFFC0000
FFFFF0000000003FFFF80000
FFFFF0000000007FFFF80000
FFFFF0000000007FFFF00000
FFFFF000000000FFFFF00000
FFFFF000000000FFFFE00000
FFFFF000000001FFFFE00000
FFFFF000000001FFFFC00000
FFFFF000000003FFFFC00000
FFFFF000000003FFFF800000
FFFFF000000007FFFF000000
FFFFF00000000FFFFF000000
FFFFF00000000FFFFE000000
FFFFF00000001FFFFE000000
FFFFF00000001FFFFC000000
FFFFF00000003FFFFC000000
FFFFF00000003FFFF8000000
FFFFF00000007FFFF8000000
FFFFF00000007FFFF0000000
FFFFF0000000FFFFF0000000
FFFFF0000000FFFFE0000000
FFFFF0000001FFFFE0000000
FFFFF0000001FFFFC0000000
FFFFF0000003FFFFC0000000
FFFFF0000003FFFF80000000
FFFFF0000007FFFF80000000
FFFFF0000007FFFF00000000
FFFFF000000FFFFF00000000
FFFFF000000FFFFE00000000
FFFFF000001FFFFC00000000
FFFFF000001FFFFC00000000
FFFFF000003FFFF800000000
FFFFF000003FFFF800000000
FFFFF000007FFFF000000000
FFFFF000007FFFF000000000
FFFFF00000FFFFE000000000
FFFFF00000FFFFE000000000
FFFFF00001FFFFC000000000
FFFFF00001FFFFC000000000
FFFFF00003FFFF8000000000
FFFFF00003FFFF8000000000
FFFFF00007FFFF0000000000
FFFFF00007FFFF0000000000
FFFFF0000FFFFE0000000000
FFFFF0000FFFFE0000000000
FFFFF0001FFFFC0000000000
FFFFF0003FFFFC0000000000
FFFFF0003FFFF80000000000
FFFFF0007FFFF80000000000
FFFFF0007FFFF00000000000
FFFFF000FFFFE00000000000
FFFFF000FFFFE00000000000
FFFFF001FFFFC00000000000
FFFFF001FFFFC00000000000
FFFFF003FFFF800000000000
FFFFF003FFFF800000000000
FFFFF003FFFF000000000000
FFFFF003FFFF000000000000
FFFFF003FFFE000000000000
FFFFF003FFFE000000000000
FFFFF003FFFC000000000000
FFFFF003FFFC000000000000
FFFFF003FFF8000000000000
FFFFF003FFF8000000000000
FFFFF003FFFC000000000000
FFFFF003FFFC000000000000
FFFFF003FFFE000000000000
FFFFF003FFFE000000000000
FFFFF003FFFF000000000000
FFFFF003FFFF000000000000
FFFFF003FFFF800000000000
FFFFF003FFFF800000000000
FFFFF003FFFFC00000000000
FFFFF003FFFFE00000000000
FFFFF001FFFFE00000000000
FFFFF001FFFFF00000000000
FFFFF000FFFFF00000000000
FFFFF000FFFFF80000000000
FFFFF0007FFFF80000000000
FFFFF0007FFFFC0000000000
FFFFF0003FFFFC0000000000
FFFFF0003FFFFE0000000000
FFFFF0001FFFFE0000000000
FFFFF0001FFFFF0000000000
FFFFF0000FFFFF0000000000
FFFFF0000FFFFF8000000000
FFFFF00007FFFF8000000000
FFFFF00007FFFFC000000000
FFFFF00003FFFFC000000000
FFFFF00003FFFFE000000000
FFFFF00001FFFFE000000000
FFFFF00001FFFFF000000000
FFFFF00000FFFFF000000000
FFFFF00000FFFFF800000000
FFFFF000007FFFF800000000
FFFFF000007FFFFC00000000
FFFFF000003FFFFC00000000
FFFFF000003FFFFE00000000
FFFFF000001FFFFE00000000
FFFFF000001FFFFF00000000
FFFFF000000FFFFF00000000
FFFFF000000FFFFF80000000
FFFFF0000007FFFF80000000
FFFFF0000007FFFFC0000000
FFFFF0000003FFFFC0000000
FFFFF0000003FFFFE0000000
FFFFF0000001FFFFF0000000
FFFFF0000001FFFFF0000000
FFFFF0000000FFFFF8000000
FFFFF0000000FFFFF8000000
FFFFF00000007FFFFC000000
FFFFF00000007FFFFC000000
FFFFF00000003FFFFE000000
FFFFF00000003FFFFE000000
FFFFF00000001FFFFF000000
FFFFF00000001FFFFF000000
FFFFF00000000FFFFF800000
FFFFF00000000FFFFF800000
FFFFF000000007FFFFC00000
FFFFF000000007FFFFC00000
FFFFF000000003FFFFE00000
FFFFF000000003FFFFE00000
FFFFF000000001FFFFF00000
FFFFF000000001FFFFF00000
FFFFF000000000FFFFF80000
FFFFF000000000FFFFF80000
FFFFF000000000FFFFFC0000
FFFFF0000000007FFFFC0000
FFFFF0000000007FFFFE0000
FFFFF0000000003FFFFE0000
FFFFF0000000003FFFFF0000
FFFFF0000000001FFFFF0000
FFFFF0000000001FFFFF8000
FFFFF0000000000FFFFF8000
FFFFF0000000000FFFFFC000
FFFFF00000000007FFFFC000
FFFFF00000000007FFFFE000
FFFFF00000000003FFFFE000
FFFFF00000000003FFFFF000
FFFFF00000000001FFFFF800
FFFFF00000000001FFFFF800
FFFFF00000000000FFFFFC00
FFFFF00000000000FFFFFC00
FFFFF000000000007FFFFE00
FFFFF000000000007FFFFE00
FFFFF000000000003FFFFF00
FFFFF000000000003FFFFF00
FFFFF000000000001FFFFF80
FFFFF000000000001FFFFF80
FFFFF000000000000FFFFFC0
FFFFF0000000000007FFFFC0
FFFFF0000000000003FFFFE0
FFFFE0000000000001FFFFE0
FFFFE00000000000007FFFF0
FFFF800000000000000FFFF0
ENDCHAR
STARTCHAR 004C
ENCODING 76
SWIDTH 388 0
DWIDTH 97 0
BBX 73 175 18 0
BITMAP
1FFFF000000000000000
7FFFF000000000000000
7FFFF000000000000000
FFFFF000000000000000
FFFFF000000000000000
FFFFF000000000000000
FFFFF000000000000000
FFFFF000000000000000
FFFFF000000000000000
FFFFF000000000000000
FFFFF000000000000000
FFFFF000000000000000
FFFFF000000000000000
FFFFF000000000000000
FFFFF000000000000000
FFFFF000000000000000
FFFFF000000000000000
FFFFF000000000000000
FFFFF000000000000000
FFFFF000000000000000
FFFFF000000000000000
FFFFF000000000000000
FFFFF000000000000000
FFFFF000000000000000
FFFFF000000000000000
FFFFF000000000000000
FFFFF000000000000000
FFFFF000000000000000
FFFFF000000000000000
FFFFF000000000000000
FFFFF000000000000000
FFFFF000000000000000
FFFFF000000000000000
FFFFF000000000000000
FFFFF000000000000000
FFFFF000000000000000
FFFFF000000000000000
FFFFF000000000000000
FFFFF000000000000000
FFFFF000000000000000
FFFFF000000000000000
FFFFF000000000000000
FFFFF000000000000000
FFFFF000000000000000
FFFFF000000000000000
FFFFF000000000000000
FFFFF000000000000000
FFFFF000000000000000
FFFFF000000000000000
FFFFF000000000000000
FFFFF000000000000000
FFFFF000000000000000
FFFFF000000000000000
FFFFF000000000000000
FFFFF000000000000000
FFFFF000000000000000
FFFFF000000000000000
FFFFF000000000000000
FFFFF000000000000000
FFFFF000000000000000
FFFFF000000000000000
FFFFF000000000000000
FFFFF000000000000000
FFFFF000000000000000
FFFFF000000000000000
FFFFF000000000000000
FFFFF000000000000000
FFFFF000000000000000
FFFFF000000000000000
FFFFF000000000000000
FFFFF000000000000000
FFFFF000000000000000
FFFFF000000000000000
FFFFF000000000000000
FFFFF000000000000000
FFFFF000000000000000
FFFFF000000000000000
FFFFF000000000000000
FFFFF000000000000000
FFFFF000000000000000
FFFFF000000000000000
FFFFF000000000000000
FFFFF000000000000000
FFFFF000000000000000
FFFFF000000000000000
FFFFF000000000000000
FFFFF000000000000000
FFFFF000000000000000
FFFFF000000000000000
FFFFF000000000000000
FFFFF000000000000000
FFFFF000000000000000
FFFFF000000000000000
FFFFF000000000000000
FFFFF000000000000000
FFFFF000000000000000
FFFFF000000000000000
FFFFF000000000000000
FFFFF000000000000000
FFFFF000000000000000
FFFFF000000000000000
FFFFF000000000000000
FFFFF000000000000000
FFFFF000000000000000
FFFFF000000000000000
FFFFF000000000000000
FFFFF000000000000000
FFFFF000000000000000
FFFFF000000000000000
FFFFF000000000000000
FFFFF000000000000000
FFFFF000000000000000
FFFFF000000000000000
FFFFF000000000000000
FFFFF000000000000000
FFFFF000000000000000
FFFFF000000000000000
FFFFF000000000000000
FFFFF000000000000000
FFFFF000000000000000
FFFFF000000000000000
FFFFF000000000000000
FFFFF000000000000000
FFFFF000000000000000
FFFFF000000000000000
FFFFF000000000000000
FFFFF000000000000000
FFFFF000000000000000
FFFFF000000000000000
FFFFF000000000000000
FFFFF000000000000000
FFFFF000000000000000
FFFFF000000000000000
FFFFF000000000000000
FFFFF000000000000000
FFFFF000000000000000
FFFFF000000000000000
FFFFF000000000000000
FFFFF000000000000000
FFFFF000000000000000
FFFFF000000000000000
FFFFF000000000000000
FFFFF000000000000000
FFFFF000000000000000
FFFFF000000000000000
FFFFF000000000000000
FFFFF000000000000000
FFFFF000000000000000
FFFFF000000000000000
FFFFF000000000000000
FFFFF000000000000000
FFFFF000000000000000
FFFFF000000000000000
FFFFF000000000000000
FFFFF000000000000000
FFFFF000000000000000
FFFFF000000000000000
FFFFF000000000000000
FFFFF000000000000000
FFFFF000000000000000
FFFFFFFFFFFFFFFFFF80
FFFFFFFFFFFFFFFFFF80
FFFFFFFFFFFFFFFFFF80
FFFFFFFFFFFFFFFFFF80
FFFFFFFFFFFFFFFFFF80
FFFFFFFFFFFFFFFFFF80
FFFFFFFFFFFFFFFFFF80
FFFFFFFFFFFFFFFFFF80
FFFFFFFFFFFFFFFFFF80
FFFFFFFFFFFFFFFFFF80
FFFFFFFFFFFFFFFFFF80
FFFFFFFFFFFFFFFFFF00
FFFFFFFFFFFFFFFFFF00
FFFFFFFFFFFFFFFFFE00
FFFFFFFFFFFFFFFFFC00
ENDCHAR
STARTCHAR 004D
ENCODING 77
SWIDTH 640 0
DWIDTH 160 0
BBX 124 175 18 0
BITMAP
1FFFFF000000000000000000007FFFF0
7FFFFF00000000000000000001FFFFF0
7FFFFF00000000000000000003FFFFF0
FFFFFF80000000000000000003FFFFF0
FFFFFF80000000000000000007FFFFF0
FFFFFFC000000000000000000FFFFFF0
FFFFFFC000000000000000000FFFFFF0
FFFFFFC000000000000000001FFFFFF0
FFFFFFE000000000000000001FFFFFF0
FFFFFFE000000000000000001FFFFFF0
FFFFFFF000000000000000003FFFFFF0
FFFFFFF000000000000000003FFFFFF0
FFFFFFF000000000000000007FFFFFF0
FFFFFFF800000000000000007FFFFFF0
FFFFFFF80000000000000000FFFFFFF0
FFFFFFFC0000000000000000FFFFFFF0
FFFFFFFC0000000000000000FFFFFFF0
FFFFFFFC0000000000000001FFFFFFF0
FFFFFFFE0000000000000001FFFFFFF0
FFFFFFFE0000000000000003FFFFFFF0
FFFFFFFF0000000000000003FFFFFFF0
FFFFFFFF0000000000000003FFFFFFF0
FFFFFFFF0000000000000007FFFFFFF0
FFFFFFFF8000000000000007FFFFFFF0
FFFFFFFF800000000000000FFFFFFFF0
FFFFFFFFC00000000000000FFFFFFFF0
FFFFFFFFC00000000000001FFFFFFFF0
FFFFFFFFC00000000000001FFFFFFFF0
FFFFFFFFE00000000000001FFFFFFFF0
FFFF9FFFE00000000000003FFFBFFFF0
FFFF9FFFE00000000000003FFF3FFFF0
FFFF8FFFF00000000000007FFF3FFFF0
FFFF8FFFF00000000000007FFF3FFFF0
FFFFCFFFF8000000000000FFFE3FFFF0
FFFFC7FFF8000000000000FFFE3FFFF0
FFFFC7FFF8000000000000FFFC3FFFF0
FFFFC7FFFC000000000001FFFC3FFFF0
FFFFC3FFFC000000000001FFF83FFFF0
FFFFC3FFFE000000000003FFF83FFFF0
FFFFC1FFFE000000000003FFF87FFFF0
FFFFC1FFFE000000000003FFF07FFFF0
FFFFC1FFFF000000000007FFF07FFFF0
FFFFC0FFFF000000000007FFE07FFFF0
FFFFC0FFFF80000000000FFFE07FFFF0
FFFFC0FFFF80000000000FFFE07FFFF0
FFFFC07FFF80000000001FFFC07FFFF0
FFFFC07FFFC0000000001FFFC07FFFF0
FFFFC03FFFC0000000001FFF807FFFF0
FFFFE03FFFE0000000003FFF807FFFF0
FFFFE03FFFE0000000003FFF807FFFF0
FFFFE01FFFE0000000007FFF007FFFF0
FFFFE01FFFF0000000007FFF007FFFF0
FFFFE01FFFF000000000FFFE007FFFF0
FFFFE00FFFF800000000FFFE00FFFFF0
FFFFE00FFFF800000000FFFC00FFFFF0
FFFFE007FFF800000001FFFC00FFFFF0
FFFFE007FFFC00000001FFFC00FFFFF0
FFFFE007FFFC00000003FFF800FFFFF0
FFFFE003FFFC00000003FFF800FFFFF0
FFFFE003FFFE00000003FFF000FFFFF0
FFFFE001FFFE00000007FFF000FFFFF0
FFFFE001FFFF00000007FFF000FFFFF0
FFFFE001FFFF0000000FFFE000FFFFF0
FFFFE000FFFF0000000FFFE000FFFFF0
FFFFE000FFFF8000001FFFC000FFFFF0
FFFFE000FFFF8000001FFFC000FFFFF0
FFFFE0007FFFC000001FFF8000FFFFF0
FFFFE0007FFFC000003FFF8000FFFFF0
FFFFE0003FFFC000003FFF8000FFFFF0
FFFFE0003FFFE000007FFF0000FFFFF0
FFFFE0003FFFE000007FFF0000FFFFF0
FFFFE0001FFFF00000FFFE0000FFFFF0
FFFFE0001FFFF00000FFFE0000FFFFF0
FFFFE0001FFFF00000FFFE0000FFFFF0
FFFFE0000FFFF80001FFFC0000FFFFF0
FFFFE0000FFFF80001FFFC0000FFFFF0
FFFFE00007FFFC0003FFF80000FFFFF0
FFFFE00007FFFC0003FFF80000FFFFF0
FFFFE00007FFFC0007FFF80000FFFFF0
FFFFE00003FFFE0007FFF00000FFFFF0
FFFFE00003FFFE0007FFF00000FFFFF0
FFFFE00001FFFF000FFFE00000FFFFF0
FFFFF00001FFFF000FFFE00000FFFFF0
FFFFF00001FFFF000FFFC00000FFFFF0
FFFFF00000FFFF001FFFC00000FFFFF0
FFFFF00000FFFF801FFFC00000FFFFF0
FFFFF00000FFFF801FFF800000FFFFF0
FFFFF000007FFF801FFF800000FFFFF0
FFFFF000007FFF803FFF000000FFFFF0
FFFFF000003FFFC03FFF000000FFFFF0
FFFFF000003FFFC03FFF000000FFFFF0
FFFFF000003FFFC07FFE000000FFFFF0
FFFFF000001FFFC07FFE000000FFFFF0
FFFFF000001FFFE07FFC000000FFFFF0
FFFFF000001FFFE07FFC000000FFFFF0
FFFFF000000FFFE0FFFC000000FFFFF0
FFFFF000000FFFE0FFF8000000FFFFF0
FFFFF0000007FFF0FFF8000000FFFFF0
FFFFF0000007FFF0FFF0000000FFFFF0
FFFFF0000007FFF1FFF0000000FFFFF0
FFFFF0000003FFF9FFE0000000FFFFF0
FFFFF0000003FFF9FFE0000000FFFFF0
FFFFF0000003FFFFFFE0000000FFFFF0
FFFFF0000001FFFFFFC0000000FFFFF0
FFFFF0000001FFFFFFC0000000FFFFF0
FFFFF0000000FFFFFF80000000FFFFF0
FFFFF0000000FFFFFF80000000FFFFF0
FFFFF0000000FFFFFF80000000FFFFF0
FFFFF00000007FFFFF00000000FFFFF0
FFFFF00000007FFFFF00000000FFFFF0
FFFFF00000003FFFFE00000000FFFFF0
FFFFF00000003FFFFE00000000FFFFF0
FFFFF00000003FFFFC00000000FFFFF0
FFFFF00000001FFFFC00000000FFFFF0
FFFFF00000001FFFFC00000000FFFFF0
FFFFF00000001FFFF800000000FFFFF0
FFFFF00000000FFFF800000000FFFFF0
FFFFF00000000FFFF000000000FFFFF0
FFFFF000000007FFE000000000FFFFF0
FFFFF000000007FFC000000000FFFFF0
FFFFF000000007FF8000000000FFFFF0
FFFFF000000000000000000000FFFFF0
FFFFF000000000000000000000FFFFF0
FFFFF000000000000000000000FFFFF0
FFFFF000000000000000000000FFFFF0
FFFFF000000000000000000000FFFFF0
FFFFF000000000000000000000FFFFF0
FFFFF000000000000000000000FFFFF0
FFFFF000000000000000000000FFFFF0
FFFFF000000000000000000000FFFFF0
FFFFF000000000000000000000FFFFF0
FFFFF000000000000000000000FFFFF0
FFFFF000000000000000000000FFFFF0
FFFFF000000000000000000000FFFFF0
FFFFF000000000000000000000FFFFF0
FFFFF000000000000000000000FFFFF0
FFFFF000000000000000000000FFFFF0
FFFFF000000000000000000000FFFFF0
FFFFF000000000000000000000FFFFF0
FFFFF000000000000000000000FFFFF0
FFFFF000000000000000000000FFFFF0
FFFFF000000000000000000000FFFFF0
FFFFF000000000000000000000FFFFF0
FFFFF000000000000000000000FFFFF0
FFFFF000000000000000000000FFFFF0
FFFFF000000000000000000000FFFFF0
FFFFF000000000000000000000FFFFF0
FFFFF000000000000000000000FFFFF0
FFFFF000000000000000000000FFFFF0
FFFFF000000000000000000000FFFFF0
FFFFF000000000000000000000FFFFF0
FFFFF000000000000000000000FFFFF0
FFFFF000000000000000000000FFFFF0
FFFFF000000000000000000000FFFFF0
FFFFF000000000000000000000FFFFF0
FFFFF000000000000000000000FFFFF0
FFFFF000000000000000000000FFFFF0
FFFFF000000000000000000000FFFFF0
FFFFF000000000000000000000FFFFF0
FFFFF000000000000000000000FFFFF0
FFFFF000000000000000000000FFFFF0
FFFFF000000000000000000000FFFFF0
FFFFF000000000000000000000FFFFF0
FFFFF000000000000000000000FFFFF0
FFFFF000000000000000000000FFFFF0
FFFFF000000000000000000000FFFFF0
FFFFF000000000000000000000FFFFF0
FFFFF000000000000000000000FFFFF0
FFFFF000000000000000000000FFFFF0
FFFFF000000000000000000000FFFFF0
FFFFF000000000000000000000FFFFF0
FFFFF000000000000000000000FFFFF0
FFFFF000000000000000000000FFFFE0
FFFFE000000000000000000000FFFFE0
FFFFC000000000000000000000FFFF80
ENDCHAR
STARTCHAR 004E
ENCODING 78
SWIDTH 536 0
DWIDTH 134 0
BBX 98 175 18 0
BITMAP
1FFFF0000000000000007FFFC0
7FFFF800000000000001FFFFC0
7FFFF800000000000003FFFFC0
FFFFFC00000000000003FFFFC0
FFFFFC00000000000003FFFFC0
FFFFFE00000000000003FFFFC0
FFFFFE00000000000003FFFFC0
FFFFFE00000000000003FFFFC0
FFFFFF00000000000003FFFFC0
FFFFFF00000000000003FFFFC0
FFFFFF80000000000003FFFFC0
FFFFFF80000000000003FFFFC0
FFFFFFC0000000000003FFFFC0
FFFFFFC0000000000003FFFFC0
FFFFFFE0000000000003FFFFC0
FFFFFFE0000000000003FFFFC0
FFFFFFE0000000000003FFFFC0
FFFFFFF0000000000003FFFFC0
FFFFFFF0000000000003FFFFC0
FFFFFFF8000000000003FFFFC0
FFFFFFF8000000000003FFFFC0
FFFFFFFC000000000003FFFFC0
FFFFFFFC000000000003FFFFC0
FFFFFFFC000000000003FFFFC0
FFFFFFFE000000000003FFFFC0
FFFFFFFE000000000003FFFFC0
FFFFFFFF000000000003FFFFC0
FFFFFFFF000000000003FFFFC0
FFFFFFFF800000000003FFFFC0
FFFFFFFF800000000003FFFFC0
FFFF3FFF800000000003FFFFC0
FFFF3FFFC00000000003FFFFC0
FFFF9FFFC00000000003FFFFC0
FFFF9FFFE00000000003FFFFC0
FFFF9FFFE00000000003FFFFC0
FFFF8FFFF00000000003FFFFC0
FFFF8FFFF00000000003FFFFC0
FFFF8FFFF00000000003FFFFC0
FFFF87FFF80000000003FFFFC0
FFFF87FFF80000000003FFFFC0
FFFF87FFFC0000000003FFFFC0
FFFFC3FFFC0000000003FFFFC0
FFFFC3FFFE0000000003FFFFC0
FFFFC1FFFE0000000003FFFFC0
FFFFC1FFFE0000000003FFFFC0
FFFFC1FFFF0000000003FFFFC0
FFFFC0FFFF0000000003FFFFC0
FFFFC0FFFF8000000003FFFFC0
FFFFC0FFFF8000000003FFFFC0
FFFFC07FFFC000000003FFFFC0
FFFFC07FFFC000000003FFFFC0
FFFFE07FFFE000000003FFFFC0
FFFFE03FFFE000000003FFFFC0
FFFFE03FFFE000000003FFFFC0
FFFFE03FFFF000000003FFFFC0
FFFFE01FFFF000000003FFFFC0
FFFFE01FFFF800000003FFFFC0
FFFFE01FFFF800000003FFFFC0
FFFFE00FFFFC00000003FFFFC0
FFFFE00FFFFC00000003FFFFC0
FFFFF00FFFFC00000003FFFFC0
FFFFF007FFFE00000003FFFFC0
FFFFF007FFFE00000003FFFFC0
FFFFF007FFFF00000003FFFFC0
FFFFF003FFFF00000003FFFFC0
FFFFF003FFFF80000003FFFFC0
FFFFF001FFFF80000003FFFFC0
FFFFF001FFFF80000003FFFFC0
FFFFF001FFFFC0000003FFFFC0
FFFFF000FFFFC0000003FFFFC0
FFFFF000FFFFE0000003FFFFC0
FFFFF000FFFFE0000003FFFFC0
FFFFF0007FFFF0000003FFFFC0
FFFFF0007FFFF0000003FFFFC0
FFFFF0003FFFF0000003FFFFC0
FFFFF0003FFFF8000003FFFFC0
FFFFF0001FFFF8000003FFFFC0
FFFFF0001FFFFC000003FFFFC0
FFFFF0001FFFFC000003FFFFC0
FFFFF0000FFFFE000003FFFFC0
FFFFF0000FFFFE000003FFFFC0
FFFFF00007FFFE000003FFFFC0
FFFFF00007FFFF000003FFFFC0
FFFFF00003FFFF000003FFFFC0
FFFFF00003FFFF800003FFFFC0
FFFFF00001FFFF800003FFFFC0
FFFFF00001FFFFC00003FFFFC0
FFFFF00001FFFFC00003FFFFC0
FFFFF00000FFFFE00003FFFFC0
FFFFF00000FFFFE00003FFFFC0
FFFFF000007FFFE00003FFFFC0
FFFFF000007FFFF00003FFFFC0
FFFFF000003FFFF00003FFFFC0
FFFFF000003FFFF80003FFFFC0
FFFFF000001FFFF80003FFFFC0
FFFFF000001FFFFC0003FFFFC0
FFFFF000001FFFFC0003FFFFC0
FFFFF000000FFFFC0003FFFFC0
FFFFF000000FFFFE0003FFFFC0
FFFFF0000007FFFE0003FFFFC0
FFFFF0000007FFFF0003FFFFC0
FFFFF0000003FFFF0003FFFFC0
FFFFF0000003FFFF8003FFFFC0
FFFFF0000001FFFF8003FFFFC0
FFFFF0000001FFFF8003FFFFC0
FFFFF0000001FFFFC003FFFFC0
FFFFF0000000FFFFC003FFFFC0
FFFFF0000000FFFFE003FFFFC0
FFFFF00000007FFFE003FFFFC0
FFFFF00000007FFFE003FFFFC0
FFFFF00000003FFFF003FFFFC0
FFFFF00000003FFFF003FFFFC0
FFFFF00000003FFFF803FFFFC0
FFFFF00000001FFFF801FFFFC0
FFFFF00000001FFFF801FFFFC0
FFFFF00000000FFFFC01FFFFC0
FFFFF00000000FFFFC01FFFFC0
FFFFF000000007FFFC01FFFFC0
FFFFF000000007FFFE01FFFFC0
FFFFF000000003FFFE01FFFFC0
FFFFF000000003FFFE01FFFFC0
FFFFF000000003FFFF01FFFFC0
FFFFF000000001FFFF01FFFFC0
FFFFF000000001FFFF80FFFFC0
FFFFF000000000FFFF80FFFFC0
FFFFF000000000FFFF80FFFFC0
FFFFF0000000007FFFC0FFFFC0
FFFFF0000000007FFFC0FFFFC0
FFFFF0000000003FFFC0FFFFC0
FFFFF0000000003FFFE0FFFFC0
FFFFF0000000003FFFE0FFFFC0
FFFFF0000000001FFFF0FFFFC0
FFFFF0000000001FFFF07FFFC0
FFFFF0000000000FFFF07FFFC0
FFFFF0000000000FFFF87FFFC0
FFFFF00000000007FFF87FFFC0
FFFFF00000000007FFF87FFFC0
FFFFF00000000007FFFC7FFFC0
FFFFF00000000003FFFC7FFFC0
FFFFF00000000003FFFC7FFFC0
FFFFF00000000001FFFE7FFFC0
FFFFF00000000001FFFE7FFFC0
FFFFF00000000000FFFF3FFFC0
FFFFF00000000000FFFF3FFFC0
FFFFF000000000007FFFFFFFC0
FFFFF000000000007FFFFFFFC0
FFFFF000000000007FFFFFFFC0
FFFFF000000000003FFFFFFFC0
FFFFF000000000003FFFFFFFC0
FFFFF000000000001FFFFFFFC0
FFFFF000000000001FFFFFFFC0
FFFFF000000000000FFFFFFFC0
FFFFF000000000000FFFFFFFC0
FFFFF0000000000007FFFFFFC0
FFFFF0000000000007FFFFFFC0
FFFFF0000000000007FFFFFFC0
FFFFF0000000000003FFFFFFC0
FFFFF0000000000003FFFFFFC0
FFFFF0000000000001FFFFFFC0
FFFFF0000000000001FFFFFFC0
FFFFF0000000000000FFFFFFC0
FFFFF0000000000000FFFFFFC0
FFFFF0000000000000FFFFFFC0
FFFFF00000000000007FFFFFC0
FFFFF00000000000007FFFFFC0
FFFFF00000000000003FFFFFC0
FFFFF00000000000003FFFFFC0
FFFFF00000000000001FFFFFC0
FFFFF00000000000001FFFFFC0
FFFFF00000000000000FFFFFC0
FFFFF00000000000000FFFFFC0
FFFFF00000000000000FFFFF80
FFFFE000000000000007FFFF80
FFFFE000000000000007FFFF00
FFFF8000000000000003FFFE00
ENDCHAR
STARTCHAR 004F
ENCODING 79
SWIDTH 484 0
DWIDTH 121 0
BBX 87 175 17 0
BITMAP
00007FFFFFFFFFFFFC0000
0007FFFFFFFFFFFFFFC000
003FFFFFFFFFFFFFFFF800
00FFFFFFFFFFFFFFFFFE00
01FFFFFFFFFFFFFFFFFF00
03FFFFFFFFFFFFFFFFFF80
07FFFFFFFFFFFFFFFFFFC0
0FFFFFFFFFFFFFFFFFFFE0
0FFFFFFFFFFFFFFFFFFFE0
1FFFFFFFFFFFFFFFFFFFF0
1FFFFFFFFFFFFFFFFFFFF0
3FFFFFFFFFFFFFFFFFFFF8
3FFFFFFFFFFFFFFFFFFFF8
3FFFFFFFFFFFFFFFFFFFF8
7FFFFFFFFFFFFFFFFFFFFC
7FFFFFE00000000FFFFFFC
7FFFFF0000000001FFFFFC
7FFFFE0000000000FFFFFC
7FFFFC00000000007FFFFC
7FFFFC00000000007FFFFC
7FFFFC00000000007FFFFC
7FFFF800000000003FFFFC
FFFFF800000000003FFFFC
FFFFF800000000003FFFFC
FFFFF800000000003FFFFE
FFFFF800000000003FFFFE
FFFFF800000000003FFFFE
FFFFF800000000003FFFFE
FFFFF800000000003FFFFE
FFFFF800000000003FFFFE
FFFFF800000000003FFFFE
FFFFF800000000003FFFFE
FFFFF800000000003FFFFE
FFFFF800000000003FFFFE
FFFFF800000000003FFFFE
FFFFF800000000003FFFFE
FFFFF800000000003FFFFE
FFFFF800000000003FFFFE
FFFFF800000000003FFFFE
FFFFF800000000003FFFFE
FFFFF800000000003FFFFE
FFFFF800000000003FFFFE
FFFFF800000000003FFFFE
FFFFF800000000003FFFFE
FFFFF800000000003FFFFE
FFFFF800000000003FFFFE
FFFFF800000000003FFFFE
FFFFF800000000003FFFFE
FFFFF800000000003FFFFE
FFFFF800000000003FFFFE
FFFFF800000000003FFFFE
FFFFF800000000003FFFFE
FFFFF800000000003FFFFE
FFFFF800000000003FFFFE
FFFFF800000000003FFFFE
FFFFF800000000003FFFFE
FFFFF800000000003FFFFE
FFFFF800000000003FFFFE
FFFFF800000000003FFFFE
FFFFF800000000003FFFFE
FFFFF800000000003FFFFE
FFFFF800000000003FFFFE
FFFFF800000000003FFFFE
FFFFF800000000003FFFFE
FFFFF800000000003FFFFE
FFFFF800000000003FFFFE
FFFFF800000000003FFFFE
FFFFF800000000003FFFFE
FFFFF800000000003FFFFE
FFFFF800000000003FFFFE
FFFFF800000000003FFFFE
FFFFF800000000003FFFFE
FFFFF800000000003FFFFE
FFFFF800000000003FFFFE
FFFFF800000000003FFFFE
FFFFF800000000003FFFFE
FFFFF800000000003FFFFE
FFFFF800000000003FFFFE
FFFFF800000000003FFFFE
FFFFF800000000003FFFFE
FFFFF800000000003FFFFE
FFFFF800000000003FFFFE
FFFFF800000000003FFFFE
FFFFF800000000003FFFFE
FFFFF800000000003FFFFE
FFFFF800000000003FFFFE
FFFFF800000000003FFFFE
FFFFF800000000003FFFFE
FFFFF800000000003FFFFE
FFFFF800000000003FFFFE
FFFFF800000000003FFFFE
FFFFF800000000003FFFFE
FFFFF800000000003FFFFE
FFFFF800000000003FFFFE
FFFFF800000000003FFFFE
FFFFF800000000003FFFFE
FFFFF800000000003FFFFE
FFFFF800000000003FFFFE
FFFFF800000000003FFFFE
FFFFF800000000003FFFFE
FFFFF800000000003FFFFE
FFFFF800000000003FFFFE
FFFFF800000000003FFFFE
FFFFF800000000003FFFFE
FFFFF800000000003FFFFE
FFFFF800000000003FFFFE
FFFFF800000000003FFFFE
FFFFF800000000003FFFFE
FFFFF800000000003FFFFE
FFFFF800000000003FFFFE
FFFFF800000000003FFFFE
FFFFF800000000003FFFFE
FFFFF800000000003FFFFE
FFFFF800000000003FFFFE
FFFFF800000000003FFFFE
FFFFF800000000003FFFFE
FFFFF800000000003FFFFE
FFFFF800000000003FFFFE
FFFFF800000000003FFFFE
FFFFF800000000003FFFFE
FFFFF800000000003FFFFE
FFFFF800000000003FFFFE
FFFFF800000000003FFFFE
FFFFF800000000003FFFFE
FFFFF800000000003FFFFE
FFFFF800000000003FFFFE
FFFFF800000000003FFFFE
FFFFF800000000003FFFFE
FFFFF800000000003FFFFE
FFFFF800000000003FFFFE
FFFFF800000000003FFFFE
FFFFF800000000003FFFFE
FFFFF800000000003FFFFE
FFFFF800000000003FFFFE
FFFFF800000000003FFFFE
FFFFF800000000003FFFFE
FFFFF800000000003FFFFE
FFFFF800000000003FFFFE
FFFFF800000000003FFFFE
FFFFF800000000003FFFFE
FFFFF800000000003FFFFE
FFFFF800000000003FFFFE
FFFFF800000000003FFFFE
FFFFF800000000003FFFFE
FFFFF800000000003FFFFE
FFFFF800000000003FFFFE
FFFFF800000000003FFFFE
FFFFF800000000003FFFFE
FFFFF800000000003FFFFE
FFFFF800000000003FFFFE
FFFFF800000000003FFFFE
FFFFF800000000003FFFFE
7FFFF800000000003FFFFC
7FFFF800000000003FFFFC
7FFFF800000000007FFFFC
7FFFFC00000000007FFFFC
7FFFFC00000000007FFFFC
7FFFFE0000000000FFFFFC
7FFFFF0000000001FFFFFC
7FFFFFE00000000FFFFFFC
7FFFFFFFFFFFFFFFFFFFFC
3FFFFFFFFFFFFFFFFFFFF8
3FFFFFFFFFFFFFFFFFFFF8
3FFFFFFFFFFFFFFFFFFFF8
1FFFFFFFFFFFFFFFFFFFF0
1FFFFFFFFFFFFFFFFFFFF0
0FFFFFFFFFFFFFFFFFFFE0
0FFFFFFFFFFFFFFFFFFFE0
07FFFFFFFFFFFFFFFFFFC0
03FFFFFFFFFFFFFFFFFF80
01FFFFFFFFFFFFFFFFFF00
00FFFFFFFFFFFFFFFFFE00
003FFFFFFFFFFFFFFFF800
0007FFFFFFFFFFFFFFC000
00007FFFFFFFFFFFFC0000
ENDCHAR
STARTCHAR 0050
ENCODING 80
SWIDTH 444 0
DWIDTH 111 0
BBX 81 175 18 0
BITMAP
1FFFFFFFFFFFFFFF000000
7FFFFFFFFFFFFFFFF80000
7FFFFFFFFFFFFFFFFE0000
FFFFFFFFFFFFFFFFFF8000
FFFFFFFFFFFFFFFFFFE000
FFFFFFFFFFFFFFFFFFF000
FFFFFFFFFFFFFFFFFFF800
FFFFFFFFFFFFFFFFFFF800
FFFFFFFFFFFFFFFFFFFC00
FFFFFFFFFFFFFFFFFFFC00
FFFFFFFFFFFFFFFFFFFE00
FFFFFFFFFFFFFFFFFFFE00
FFFFFFFFFFFFFFFFFFFF00
FFFFFFFFFFFFFFFFFFFF00
FFFFFFFFFFFFFFFFFFFF00
FFFFF000000003FFFFFF00
FFFFF0000000007FFFFF00
FFFFF0000000003FFFFF80
FFFFF0000000001FFFFF80
FFFFF0000000000FFFFF80
FFFFF0000000000FFFFF80
FFFFF0000000000FFFFF80
FFFFF00000000007FFFF80
FFFFF00000000007FFFF80
FFFFF00000000007FFFF80
FFFFF00000000007FFFF80
FFFFF00000000007FFFF80
FFFFF00000000007FFFF80
FFFFF00000000007FFFF80
FFFFF00000000007FFFF80
FFFFF00000000007FFFF80
FFFFF00000000007FFFF80
FFFFF00000000007FFFF80
FFFFF00000000007FFFF80
FFFFF00000000007FFFF80
FFFFF00000000007FFFF80
FFFFF00000000007FFFF80
FFFFF00000000007FFFF80
FFFFF00000000007FFFF80
FFFFF00000000007FFFF80
FFFFF00000000007FFFF80
FFFFF00000000007FFFF80
FFFFF00000000007FFFF80
FFFFF00000000007FFFF80
FFFFF00000000007FFFF80
FFFFF00000000007FFFF80
FFFFF00000000007FFFF80
FFFFF00000000007FFFF80
FFFFF00000000007FFFF80
FFFFF00000000007FFFF80
FFFFF00000000007FFFF80
FFFFF00000000007FFFF80
FFFFF00000000007FFFF80
FFFFF00000000007FFFF80
FFFFF00000000007FFFF80
FFFFF00000000007FFFF80
FFFFF00000000007FFFF80
FFFFF00000000007FFFF80
FFFFF00000000007FFFF80
FFFFF00000000007FFFF80
FFFFF00000000007FFFF80
FFFFF00000000007FFFF80
FFFFF00000000007FFFF80
FFFFF00000000007FFFF80
FFFFF00000000007FFFF80
FFFFF00000000007FFFF80
FFFFF00000000007FFFF80
FFFFF00000000007FFFF80
FFFFF00000000007FFFF80
FFFFF00000000007FFFF80
FFFFF00000000007FFFF80
FFFFF00000000007FFFF80
FFFFF00000000007FFFF80
FFFFF00000000007FFFF80
FFFFF00000000007FFFF80
FFFFF00000000007FFFF80
FFFFF00000000007FFFF80
FFFFF00000000007FFFF80
FFFFF0000000000FFFFF80
FFFFF0000000000FFFFF80
FFFFF0000000000FFFFF80
FFFFF0000000000FFFFF80
FFFFF0000000001FFFFF80
FFFFF0000000003FFFFF80
FFFFF0000000007FFFFF00
FFFFF000000001FFFFFF00
FFFFF003FFFFFFFFFFFF00
FFFFF003FFFFFFFFFFFF00
FFFFF003FFFFFFFFFFFF00
FFFFF003FFFFFFFFFFFE00
FFFFF003FFFFFFFFFFFE00
FFFFF003FFFFFFFFFFFC00
FFFFF003FFFFFFFFFFFC00
FFFFF003FFFFFFFFFFF800
FFFFF003FFFFFFFFFFF800
FFFFF003FFFFFFFFFFF000
FFFFF003FFFFFFFFFFE000
FFFFF003FFFFFFFFFF8000
FFFFF001FFFFFFFFFE0000
FFFFF001FFFFFFFFF80000
FFFFF0007FFFFFFF000000
FFFFF00000000000000000
FFFFF00000000000000000
FFFFF00000000000000000
FFFFF00000000000000000
FFFFF00000000000000000
FFFFF00000000000000000
FFFFF00000000000000000
FFFFF00000000000000000
FFFFF00000000000000000
FFFFF00000000000000000
FFFFF00000000000000000
FFFFF00000000000000000
FFFFF00000000000000000
FFFFF00000000000000000
FFFFF00000000000000000
FFFFF00000000000000000
FFFFF00000000000000000
FFFFF00000000000000000
FFFFF00000000000000000
FFFFF00000000000000000
FFFFF00000000000000000
FFFFF00000000000000000
FFFFF00000000000000000
FFFFF00000000000000000
FFFFF00000000000000000
FFFFF00000000000000000
FFFFF00000000000000000
FFFFF00000000000000000
FFFFF00000000000000000
FFFFF00000000000000000
FFFFF00000000000000000
FFFFF00000000000000000
FFFFF00000000000000000
FFFFF00000000000000000
FFFFF00000000000000000
FFFFF00000000000000000
FFFFF00000000000000000
FFFFF00000000000000000
FFFFF00000000000000000
FFFFF00000000000000000
FFFFF00000000000000000
FFFFF00000000000000000
FFFFF00000000000000000
FFFFF00000000000000000
FFFFF00000000000000000
FFFFF00000000000000000
FFFFF00000000000000000
FFFFF00000000000000000
FFFFF00000000000000000
FFFFF00000000000000000
FFFFF00000000000000000
FFFFF00000000000000000
FFFFF00000000000000000
FFFFF00000000000000000
FFFFF00000000000000000
FFFFF00000000000000000
FFFFF00000000000000000
FFFFF00000000000000000
FFFFF00000000000000000
FFFFF00000000000000000
FFFFF00000000000000000
FFFFF00000000000000000
FFFFF00000000000000000
FFFFF00000000000000000
FFFFF00000000000000000
FFFFF00000000000000000
FFFFF00000000000000000
FFFFF00000000000000000
FFFFF00000000000000000
FFFFF00000000000000000
FFFFF00000000000000000
FFFFE00000000000000000
FFFFE00000000000000000
FFFF800000000000000000
ENDCHAR
STARTCHAR 0051
ENCODING 81
SWIDTH 484 0
DWIDTH 121 0
BBX 87 206 17 -31
BITMAP
00007FFFFFFFFFFFFC0000
0007FFFFFFFFFFFFFFC000
003FFFFFFFFFFFFFFFF800
00FFFFFFFFFFFFFFFFFE00
01FFFFFFFFFFFFFFFFFF00
03FFFFFFFFFFFFFFFFFF80
07FFFFFFFFFFFFFFFFFFC0
0FFFFFFFFFFFFFFFFFFFE0
0FFFFFFFFFFFFFFFFFFFE0
1FFFFFFFFFFFFFFFFFFFF0
1FFFFFFFFFFFFFFFFFFFF0
3FFFFFFFFFFFFFFFFFFFF8
3FFFFFFFFFFFFFFFFFFFF8
3FFFFFFFFFFFFFFFFFFFF8
7FFFFFFFFFFFFFFFFFFFFC
7FFFFFE00000000FFFFFFC
7FFFFF0000000001FFFFFC
7FFFFE0000000000FFFFFC
7FFFFC00000000007FFFFC
7FFFFC00000000007FFFFC
7FFFFC00000000007FFFFC
7FFFF800000000003FFFFC
FFFFF800000000003FFFFC
FFFFF800000000003FFFFC
FFFFF800000000003FFFFE
FFFFF800000000003FFFFE
FFFFF800000000003FFFFE
FFFFF800000000003FFFFE
FFFFF800000000003FFFFE
FFFFF800000000003FFFFE
FFFFF800000000003FFFFE
FFFFF800000000003FFFFE
FFFFF800000000003FFFFE
FFFFF800000000003FFFFE
FFFFF800000000003FFFFE
FFFFF800000000003FFFFE
FFFFF800000000003FFFFE
FFFFF800000000003FFFFE
FFFFF800000000003FFFFE
FFFFF800000000003FFFFE
FFFFF800000000003FFFFE
FFFFF800000000003FFFFE
FFFFF800000000003FFFFE
FFFFF800000000003FFFFE
FFFFF800000000003FFFFE
FFFFF800000000003FFFFE
FFFFF800000000003FFFFE
FFFFF800000000003FFFFE
FFFFF800000000003FFFFE
FFFFF800000000003FFFFE
FFFFF800000000003FFFFE
FFFFF800000000003FFFFE
FFFFF800000000003FFFFE
FFFFF800000000003FFFFE
FFFFF800000000003FFFFE
FFFFF800000000003FFFFE
FFFFF800000000003FFFFE
FFFFF800000000003FFFFE
FFFFF800000000003FFFFE
FFFFF800000000003FFFFE
FFFFF800000000003FFFFE
FFFFF800000000003FFFFE
FFFFF800000000003FFFFE
FFFFF800000000003FFFFE
FFFFF800000000003FFFFE
FFFFF800000000003FFFFE
FFFFF800000000003FFFFE
FFFFF800000000003FFFFE
FFFFF800000000003FFFFE
FFFFF800000000003FFFFE
FFFFF800000000003FFFFE
FFFFF800000000003FFFFE
FFFFF800000000003FFFFE
FFFFF800000000003FFFFE
FFFFF800000000003FFFFE
FFFFF800000000003FFFFE
FFFFF800000000003FFFFE
FFFFF800000000003FFFFE
FFFFF800000000003FFFFE
FFFFF800000000003FFFFE
FFFFF800000000003FFFFE
FFFFF800000000003FFFFE
FFFFF800000000003FFFFE
FFFFF800000000003FFFFE
FFFFF800000000003FFFFE
FFFFF800000000003FFFFE
FFFFF800000000003FFFFE
FFFFF800000000003FFFFE
FFFFF800000000003FFFFE
FFFFF800000000003FFFFE
FFFFF800000000003FFFFE
FFFFF800000000003FFFFE
FFFFF800000000003FFFFE
FFFFF800000000003FFFFE
FFFFF800000000003FFFFE
FFFFF800000000003FFFFE
FFFFF800000000003FFFFE
FFFFF800000000003FFFFE
FFFFF800000000003FFFFE
FFFFF800000000003FFFFE
FFFFF800000000003FFFFE
FFFFF800000000003FFFFE
FFFFF800000000003FFFFE
FFFFF800000000003FFFFE
FFFFF800000000003FFFFE
FFFFF800000000003FFFFE
FFFFF800000000003FFFFE
FFFFF800000000003FFFFE
FFFFF800000000003FFFFE
FFFFF800000000003FFFFE
FFFFF800000000003FFFFE
FFFFF800000000003FFFFE
FFFFF800000000003FFFFE
FFFFF800000000003FFFFE
FFFFF800000000003FFFFE
FFFFF800000000003FFFFE
FFFFF800000000003FFFFE
FFFFF800000000003FFFFE
FFFFF800000000003FFFFE
FFFFF800000000003FFFFE
FFFFF800000000003FFFFE
FFFFF800000000003FFFFE
FFFFF800000000003FFFFE
FFFFF800000000003FFFFE
FFFFF800000000003FFFFE
FFFFF800000000003FFFFE
FFFFF800000000003FFFFE
FFFFF800000000003FFFFE
FFFFF800000000003FFFFE
FFFFF800000000003FFFFE
FFFFF800000000003FFFFE
FFFFF800000000003FFFFE
FFFFF800000000003FFFFE
FFFFF800000000003FFFFE
FFFFF800000000003FFFFE
FFFFF800000000003FFFFE
FFFFF800000000003FFFFE
FFFFF800000000003FFFFE
FFFFF800000000003FFFFE
FFFFF800000000003FFFFE
FFFFF800000000003FFFFE
FFFFF800000000003FFFFE
FFFFF800000000003FFFFE
FFFFF800000000003FFFFE
FFFFF800000000003FFFFE
FFFFF800000000003FFFFE
FFFFF800000000003FFFFE
FFFFF800000000003FFFFE
FFFFF800000000003FFFFE
FFFFF800000000003FFFFE
FFFFF800000000003FFFFE
FFFFF800000000003FFFFE
7FFFF800000000003FFFFC
7FFFF800000000003FFFFC
7FFFF800000000007FFFFC
7FFFFC00000000007FFFFC
7FFFFC00000000007FFFFC
7FFFFE0000000000FFFFFC
7FFFFF0000000001FFFFFC
7FFFFFE00000000FFFFFFC
7FFFFFFFFFFFFFFFFFFFFC
3FFFFFFFFFFFFFFFFFFFF8
3FFFFFFFFFFFFFFFFFFFF8
3FFFFFFFFFFFFFFFFFFFF8
1FFFFFFFFFFFFFFFFFFFF0
1FFFFFFFFFFFFFFFFFFFF0
0FFFFFFFFFFFFFFFFFFFE0
0FFFFFFFFFFFFFFFFFFFE0
07FFFFFFFFFFFFFFFFFFC0
03FFFFFFFFFFFFFFFFFF80
01FFFFFFFFFFFFFFFFFF00
00FFFFFFFFFFFFFFFFFE00
003FFFFFFFFFFFFFFFF800
0007FFFFFFFFFFFFFFC000
00007FFFFFFFFFFFFC0000
000000003FFF8000000000
000000003FFF8000000000
000000003FFF8000000000
000000003FFF8000000000
000000003FFF8000000000
000000003FFF8000000000
000000003FFF8000000000
000000003FFF8000000000
000000003FFF8000000000
000000003FFF8000000000
000000003FFFC000000000
000000003FFFC000000000
000000003FFFC000000000
000000001FFFE000000000
000000001FFFF000000000
000000001FFFFE00000000
000000001FFFFFFFFE0000
000000001FFFFFFFFE0000
000000000FFFFFFFFE0000
000000000FFFFFFFFE0000
000000000FFFFFFFFE0000
0000000007FFFFFFFE0000
0000000007FFFFFFFE0000
0000000003FFFFFFFE0000
0000000001FFFFFFFE0000
0000000000FFFFFFFE0000
00000000007FFFFFFE0000
00000000003FFFFFFE0000
00000000001FFFFFFE0000
000000000003FFFFFC0000
0000000000003FFFF80000
ENDCHAR
STARTCHAR 0052
ENCODING 82
SWIDTH 468 0
DWIDTH 117 0
BBX 89 175 18 0
BITMAP
1FFFFFFFFFFFFFFF80000000
7FFFFFFFFFFFFFFFFC000000
7FFFFFFFFFFFFFFFFF800000
FFFFFFFFFFFFFFFFFFE00000
FFFFFFFFFFFFFFFFFFF00000
FFFFFFFFFFFFFFFFFFF80000
FFFFFFFFFFFFFFFFFFFC0000
FFFFFFFFFFFFFFFFFFFE0000
FFFFFFFFFFFFFFFFFFFE0000
FFFFFFFFFFFFFFFFFFFF0000
FFFFFFFFFFFFFFFFFFFF0000
FFFFFFFFFFFFFFFFFFFF8000
FFFFFFFFFFFFFFFFFFFF8000
FFFFFFFFFFFFFFFFFFFF8000
FFFFFFFFFFFFFFFFFFFF8000
FFFFF000000000FFFFFFC000
FFFFF0000000003FFFFFC000
FFFFF0000000000FFFFFC000
FFFFF0000000000FFFFFC000
FFFFF00000000007FFFFC000
FFFFF00000000007FFFFC000
FFFFF00000000003FFFFC000
FFFFF00000000003FFFFC000
FFFFF00000000003FFFFC000
FFFFF00000000003FFFFC000
FFFFF00000000003FFFFC000
FFFFF00000000003FFFFC000
FFFFF00000000003FFFFC000
FFFFF00000000003FFFFC000
FFFFF00000000003FFFFC000
FFFFF00000000003FFFFC000
FFFFF00000000003FFFFC000
FFFFF00000000003FFFFC000
FFFFF00000000003FFFFC000
FFFFF00000000003FFFFC000
FFFFF00000000003FFFFC000
FFFFF00000000003FFFFC000
FFFFF00000000003FFFFC000
FFFFF00000000003FFFFC000
FFFFF00000000003FFFFC000
FFFFF00000000003FFFFC000
FFFFF00000000003FFFFC000
FFFFF00000000003FFFFC000
FFFFF00000000003FFFFC000
FFFFF00000000003FFFFC000
FFFFF00000000003FFFFC000
FFFFF00000000003FFFFC000
FFFFF00000000003FFFFC000
FFFFF00000000003FFFFC000
FFFFF00000000003FFFFC000
FFFFF00000000003FFFFC000
FFFFF00000000003FFFFC000
FFFFF00000000003FFFFC000
FFFFF00000000003FFFFC000
FFFFF00000000003FFFFC000
FFFFF00000000003FFFFC000
FFFFF00000000003FFFFC000
FFFFF00000000003FFFFC000
FFFFF00000000003FFFFC000
FFFFF00000000003FFFFC000
FFFFF00000000003FFFFC000
FFFFF00000000003FFFFC000
FFFFF00000000003FFFFC000
FFFFF00000000003FFFFC000
FFFFF00000000003FFFFC000
FFFFF00000000003FFFFC000
FFFFF00000000003FFFFC000
FFFFF00000000003FFFFC000
FFFFF00000000003FFFFC000
FFFFF00000000003FFFFC000
FFFFF00000000007FFFFC000
FFFFF00000000007FFFFC000
FFFFF0000000000FFFFFC000
FFFFF0000000000FFFFFC000
FFFFF0000000003FFFFFC000
FFFFF000000000FFFFFFC000
FFFFF003FFFFFFFFFFFF8000
FFFFF003FFFFFFFFFFFF8000
FFFFF003FFFFFFFFFFFF8000
FFFFF003FFFFFFFFFFFF8000
FFFFF003FFFFFFFFFFFF0000
FFFFF003FFFFFFFFFFFF0000
FFFFF003FFFFFFFFFFFE0000
FFFFF003FFFFFFFFFFFE0000
FFFFF003FFFFFFFFFFFC0000
FFFFF003FFFFFFFFFFF80000
FFFFF003FFFFFFFFFFF00000
FFFFF003FFFFFFFFFFC00000
FFFFF001FFFFFFFFFF800000
FFFFF001FFFFFFFFFC000000
FFFFF0007FFFFFFF80000000
FFFFF000000FFFFF00000000
FFFFF000000FFFFF00000000
FFFFF0000007FFFF00000000
FFFFF0000007FFFF80000000
FFFFF0000007FFFF80000000
FFFFF0000007FFFF80000000
FFFFF0000003FFFFC0000000
FFFFF0000003FFFFC0000000
FFFFF0000003FFFFC0000000
FFFFF0000001FFFFC0000000
FFFFF0000001FFFFE0000000
FFFFF0000001FFFFE0000000
FFFFF0000000FFFFE0000000
FFFFF0000000FFFFF0000000
FFFFF0000000FFFFF0000000
FFFFF0000000FFFFF0000000
FFFFF00000007FFFF8000000
FFFFF00000007FFFF8000000
FFFFF00000007FFFF8000000
FFFFF00000003FFFF8000000
FFFFF00000003FFFFC000000
FFFFF00000003FFFFC000000
FFFFF00000001FFFFC000000
FFFFF00000001FFFFE000000
FFFFF00000001FFFFE000000
FFFFF00000001FFFFE000000
FFFFF00000000FFFFF000000
FFFFF00000000FFFFF000000
FFFFF00000000FFFFF000000
FFFFF000000007FFFF000000
FFFFF000000007FFFF800000
FFFFF000000007FFFF800000
FFFFF000000003FFFF800000
FFFFF000000003FFFFC00000
FFFFF000000003FFFFC00000
FFFFF000000003FFFFC00000
FFFFF000000001FFFFE00000
FFFFF000000001FFFFE00000
FFFFF000000001FFFFE00000
FFFFF000000000FFFFE00000
FFFFF000000000FFFFF00000
FFFFF000000000FFFFF00000
FFFFF0000000007FFFF00000
FFFFF0000000007FFFF80000
FFFFF0000000007FFFF80000
FFFFF0000000007FFFF80000
FFFFF0000000003FFFFC0000
FFFFF0000000003FFFFC0000
FFFFF0000000003FFFFC0000
FFFFF0000000001FFFFC0000
FFFFF0000000001FFFFE0000
FFFFF0000000001FFFFE0000
FFFFF0000000000FFFFE0000
FFFFF0000000000FFFFF0000
FFFFF0000000000FFFFF0000
FFFFF0000000000FFFFF0000
FFFFF00000000007FFFF8000
FFFFF00000000007FFFF8000
FFFFF00000000007FFFF8000
FFFFF00000000003FFFF8000
FFFFF00000000003FFFFC000
FFFFF00000000003FFFFC000
FFFFF00000000001FFFFC000
FFFFF00000000001FFFFE000
FFFFF00000000001FFFFE000
FFFFF00000000001FFFFE000
FFFFF00000000000FFFFE000
FFFFF00000000000FFFFF000
FFFFF00000000000FFFFF000
FFFFF000000000007FFFF000
FFFFF000000000007FFFF800
FFFFF000000000007FFFF800
FFFFF000000000003FFFF800
FFFFF000000000003FFFFC00
FFFFF000000000003FFFFC00
FFFFF000000000003FFFFC00
FFFFF000000000001FFFFC00
FFFFF000000000001FFFFE00
FFFFF000000000001FFFFE00
FFFFF000000000000FFFFE00
FFFFF000000000000FFFFF00
FFFFE0000000000007FFFF00
FFFFE0000000000003FFFF00
FFFF80000000000000FFFF80
ENDCHAR
STARTCHAR 0053
ENCODING 83
SWIDTH 396 0
DWIDTH 99 0
BBX 69 175 15 0
BITMAP
00007FFFFFFFFFC000
000FFFFFFFFFFFF800
007FFFFFFFFFFFFC00
00FFFFFFFFFFFFFE00
03FFFFFFFFFFFFFF00
07FFFFFFFFFFFFFF80
0FFFFFFFFFFFFFFF80
1FFFFFFFFFFFFFFFC0
1FFFFFFFFFFFFFFFC0
3FFFFFFFFFFFFFFFE0
3FFFFFFFFFFFFFFFE0
7FFFFFFFFFFFFFFFE0
7FFFFFFFFFFFFFFFF0
7FFFFFFFFFFFFFFFF0
7FFFFFFFFFFFFFFFF0
FFFFFFC00000000000
FFFFFF000000000000
FFFFFC000000000000
FFFFFC000000000000
FFFFF8000000000000
FFFFF8000000000000
FFFFF0000000000000
FFFFF0000000000000
FFFFF0000000000000
FFFFF0000000000000
FFFFF0000000000000
FFFFF0000000000000
FFFFF0000000000000
FFFFF0000000000000
FFFFF0000000000000
FFFFF0000000000000
FFFFF0000000000000
FFFFF0000000000000
FFFFF0000000000000
FFFFF0000000000000
FFFFF0000000000000
FFFFF0000000000000
FFFFF0000000000000
FFFFF0000000000000
FFFFF0000000000000
FFFFF0000000000000
FFFFF0000000000000
FFFFF0000000000000
FFFFF0000000000000
FFFFF0000000000000
FFFFF0000000000000
FFFFF0000000000000
FFFFF0000000000000
FFFFF0000000000000
FFFFF0000000000000
FFFFF0000000000000
FFFFF0000000000000
FFFFF0000000000000
FFFFF0000000000000
FFFFF0000000000000
FFFFF0000000000000
FFFFF0000000000000
FFFFF0000000000000
FFFFF0000000000000
FFFFF0000000000000
FFFFF0000000000000
FFFFF0000000000000
FFFFF0000000000000
FFFFF0000000000000
FFFFF0000000000000
FFFFF0000000000000
FFFFF0000000000000
FFFFF0000000000000
FFFFF0000000000000
FFFFF0000000000000
FFFFF0000000000000
FFFFF8000000000000
FFFFF8000000000000
FFFFFC000000000000
FFFFFC000000000000
FFFFFF000000000000
FFFFFFC00000000000
7FFFFFFFFFFFF00000
7FFFFFFFFFFFFF8000
7FFFFFFFFFFFFFE000
7FFFFFFFFFFFFFF800
3FFFFFFFFFFFFFFE00
3FFFFFFFFFFFFFFF00
1FFFFFFFFFFFFFFF80
1FFFFFFFFFFFFFFF80
0FFFFFFFFFFFFFFFC0
07FFFFFFFFFFFFFFC0
03FFFFFFFFFFFFFFE0
01FFFFFFFFFFFFFFE0
007FFFFFFFFFFFFFF0
000FFFFFFFFFFFFFF0
0000FFFFFFFFFFFFF0
00000000003FFFFFF0
000000000007FFFFF0
000000000003FFFFF8
000000000001FFFFF8
000000000000FFFFF8
000000000000FFFFF8
000000000000FFFFF8
000000000000FFFFF8
0000000000007FFFF8
0000000000007FFFF8
0000000000007FFFF8
0000000000007FFFF8
0000000000007FFFF8
0000000000007FFFF8
0000000000007FFFF8
0000000000007FFFF8
0000000000007FFFF8
0000000000007FFFF8
0000000000007FFFF8
0000000000007FFFF8
0000000000007FFFF8
0000000000007FFFF8
0000000000007FFFF8
0000000000007FFFF8
0000000000007FFFF8
0000000000007FFFF8
0000000000007FFFF8
0000000000007FFFF8
0000000000007FFFF8
0000000000007FFFF8
0000000000007FFFF8
0000000000007FFFF8
0000000000007FFFF8
0000000000007FFFF8
0000000000007FFFF8
0000000000007FFFF8
0000000000007FFFF8
0000000000007FFFF8
0000000000007FFFF8
0000000000007FFFF8
0000000000007FFFF8
0000000000007FFFF8
0000000000007FFFF8
0000000000007FFFF8
0000000000007FFFF8
0000000000007FFFF8
0000000000007FFFF8
0000000000007FFFF8
0000000000007FFFF8
0000000000007FFFF8
0000000000007FFFF8
0000000000007FFFF8
0000000000007FFFF8
0000000000007FFFF8
0000000000007FFFF8
0000000000007FFFF8
0000000000007FFFF8
0000000000007FFFF8
0000000000007FFFF8
0000000000007FFFF8
000000000000FFFFF8
000000000000FFFFF8
000000000000FFFFF8
000000000000FFFFF8
000000000001FFFFF8
000000000003FFFFF8
000000000007FFFFF0
00000000003FFFFFF0
FFFFFFFFFFFFFFFFF0
FFFFFFFFFFFFFFFFF0
FFFFFFFFFFFFFFFFF0
7FFFFFFFFFFFFFFFE0
7FFFFFFFFFFFFFFFE0
7FFFFFFFFFFFFFFFC0
3FFFFFFFFFFFFFFFC0
3FFFFFFFFFFFFFFF80
1FFFFFFFFFFFFFFF80
1FFFFFFFFFFFFFFF00
0FFFFFFFFFFFFFFE00
07FFFFFFFFFFFFF800
03FFFFFFFFFFFFE000
01FFFFFFFFFFFF8000
003FFFFFFFFFF00000
ENDCHAR
STARTCHAR 0054
ENCODING 84
SWIDTH 424 0
DWIDTH 106 0
BBX 94 175 6 0
BITMAP
0FFFFFFFFFFFFFFFFFFFFFFC
3FFFFFFFFFFFFFFFFFFFFFFC
7FFFFFFFFFFFFFFFFFFFFFFC
7FFFFFFFFFFFFFFFFFFFFFFC
7FFFFFFFFFFFFFFFFFFFFFFC
7FFFFFFFFFFFFFFFFFFFFFFC
FFFFFFFFFFFFFFFFFFFFFFFC
FFFFFFFFFFFFFFFFFFFFFFFC
FFFFFFFFFFFFFFFFFFFFFFF8
FFFFFFFFFFFFFFFFFFFFFFF8
FFFFFFFFFFFFFFFFFFFFFFF8
FFFFFFFFFFFFFFFFFFFFFFF8
FFFFFFFFFFFFFFFFFFFFFFF8
FFFFFFFFFFFFFFFFFFFFFFF0
FFFFFFFFFFFFFFFFFFFFFFE0
0000000007FFFF8000000000
0000000007FFFF8000000000
0000000007FFFF8000000000
0000000007FFFF8000000000
0000000007FFFF8000000000
0000000007FFFF8000000000
0000000007FFFF8000000000
0000000007FFFF8000000000
0000000007FFFF8000000000
0000000007FFFF8000000000
0000000007FFFF8000000000
0000000007FFFF8000000000
0000000007FFFF8000000000
0000000007FFFF8000000000
0000000007FFFF8000000000
0000000007FFFF8000000000
0000000007FFFF8000000000
0000000007FFFF8000000000
0000000007FFFF8000000000
0000000007FFFF8000000000
0000000007FFFF8000000000
0000000007FFFF8000000000
0000000007FFFF8000000000
0000000007FFFF8000000000
0000000007FFFF8000000000
0000000007FFFF8000000000
0000000007FFFF8000000000
0000000007FFFF8000000000
0000000007FFFF8000000000
0000000007FFFF8000000000
0000000007FFFF8000000000
0000000007FFFF8000000000
0000000007FFFF8000000000
0000000007FFFF8000000000
0000000007FFFF8000000000
0000000007FFFF8000000000
0000000007FFFF8000000000
0000000007FFFF8000000000
0000000007FFFF8000000000
0000000007FFFF8000000000
0000000007FFFF8000000000
0000000007FFFF8000000000
0000000007FFFF8000000000
0000000007FFFF8000000000
0000000007FFFF8000000000
0000000007FFFF8000000000
0000000007FFFF8000000000
0000000007FFFF8000000000
0000000007FFFF8000000000
0000000007FFFF8000000000
0000000007FFFF8000000000
0000000007FFFF8000000000
0000000007FFFF8000000000
0000000007FFFF8000000000
0000000007FFFF8000000000
0000000007FFFF8000000000
0000000007FFFF8000000000
0000000007FFFF8000000000
0000000007FFFF8000000000
0000000007FFFF8000000000
0000000007FFFF8000000000
0000000007FFFF8000000000
0000000007FFFF8000000000
0000000007FFFF8000000000
0000000007FFFF8000000000
0000000007FFFF8000000000
0000000007FFFF8000000000
0000000007FFFF8000000000
0000000007FFFF8000000000
0000000007FFFF8000000000
0000000007FFFF8000000000
0000000007FFFF8000000000
0000000007FFFF8000000000
0000000007FFFF8000000000
0000000007FFFF8000000000
0000000007FFFF8000000000
0000000007FFFF8000000000
0000000007FFFF8000000000
0000000007FFFF8000000000
0000000007FFFF8000000000
0000000007FFFF8000000000
0000000007FFFF8000000000
0000000007FFFF8000000000
0000000007FFFF8000000000
0000000007FFFF8000000000
0000000007FFFF8000000000
0000000007FFFF8000000000
0000000007FFFF8000000000
0000000007FFFF8000000000
0000000007FFFF8000000000
0000000007FFFF8000000000
0000000007FFFF8000000000
0000000007FFFF8000000000
0000000007FFFF8000000000
0000000007FFFF8000000000
0000000007FFFF8000000000
0000000007FFFF8000000000
0000000007FFFF8000000000
0000000007FFFF8000000000
0000000007FFFF8000000000
0000000007FFFF8000000000
0000000007FFFF8000000000
0000000007FFFF8000000000
0000000007FFFF8000000000
0000000007FFFF8000000000
0000000007FFFF8000000000
0000000007FFFF8000000000
0000000007FFFF8000000000
0000000007FFFF8000000000
0000000007FFFF8000000000
0000000007FFFF8000000000
0000000007FFFF8000000000
0000000007FFFF8000000000
0000000007FFFF8000000000
0000000007FFFF8000000000
0000000007FFFF8000000000
0000000007FFFF8000000000
0000000007FFFF8000000000
0000000007FFFF8000000000
0000000007FFFF8000000000
0000000007FFFF8000000000
0000000007FFFF8000000000
0000000007FFFF8000000000
0000000007FFFF8000000000
0000000007FFFF8000000000
0000000007FFFF8000000000
0000000007FFFF8000000000
0000000007FFFF8000000000
0000000007FFFF8000000000
0000000007FFFF8000000000
0000000007FFFF8000000000
0000000007FFFF8000000000
0000000007FFFF8000000000
0000000007FFFF8000000000
0000000007FFFF8000000000
0000000007FFFF8000000000
0000000007FFFF8000000000
0000000007FFFF8000000000
0000000007FFFF8000000000
0000000007FFFF8000000000
0000000007FFFF8000000000
0000000007FFFF8000000000
0000000007FFFF8000000000
0000000007FFFF8000000000
0000000007FFFF8000000000
0000000007FFFF8000000000
0000000007FFFF8000000000
0000000007FFFF8000000000
0000000007FFFF8000000000
0000000007FFFF8000000000
0000000007FFFF8000000000
0000000007FFFF8000000000
0000000007FFFF8000000000
0000000007FFFF8000000000
0000000007FFFF8000000000
0000000007FFFF8000000000
0000000007FFFF0000000000
0000000007FFFF0000000000
0000000007FFFF0000000000
0000000007FFFC0000000000
ENDCHAR
STARTCHAR 0055
ENCODING 85
SWIDTH 492 0
DWIDTH 123 0
BBX 87 175 18 0
BITMAP
1FFFF0000000000003FFFE
7FFFF000000000000FFFFE
FFFFF000000000000FFFFE
FFFFF000000000001FFFFE
FFFFF000000000001FFFFE
FFFFF000000000001FFFFE
FFFFF000000000001FFFFE
FFFFF000000000001FFFFE
FFFFF000000000001FFFFE
FFFFF000000000001FFFFE
FFFFF000000000001FFFFE
FFFFF000000000001FFFFE
FFFFF000000000001FFFFE
FFFFF000000000001FFFFE
FFFFF000000000001FFFFE
FFFFF000000000001FFFFE
FFFFF000000000001FFFFE
FFFFF000000000001FFFFE
FFFFF000000000001FFFFE
FFFFF000000000001FFFFE
FFFFF000000000001FFFFE
FFFFF000000000001FFFFE
FFFFF000000000001FFFFE
FFFFF000000000001FFFFE
FFFFF000000000001FFFFE
FFFFF000000000001FFFFE
FFFFF000000000001FFFFE
FFFFF000000000001FFFFE
FFFFF000000000001FFFFE
FFFFF000000000001FFFFE
FFFFF000000000001FFFFE
FFFFF000000000001FFFFE
FFFFF000000000001FFFFE
FFFFF000000000001FFFFE
FFFFF000000000001FFFFE
FFFFF000000000001FFFFE
FFFFF000000000001FFFFE
FFFFF000000000001FFFFE
FFFFF000000000001FFFFE
FFFFF000000000001FFFFE
FFFFF000000000001FFFFE
FFFFF000000000001FFFFE
FFFFF000000000001FFFFE
FFFFF000000000001FFFFE
FFFFF000000000001FFFFE
FFFFF000000000001FFFFE
FFFFF000000000001FFFFE
FFFFF000000000001FFFFE
FFFFF000000000001FFFFE
FFFFF000000000001FFFFE
FFFFF000000000001FFFFE
FFFFF000000000001FFFFE
FFFFF000000000001FFFFE
FFFFF000000000001FFFFE
FFFFF000000000001FFFFE
FFFFF000000000001FFFFE
FFFFF000000000001FFFFE
FFFFF000000000001FFFFE
FFFFF000000000001FFFFE
FFFFF000000000001FFFFE
FFFFF000000000001FFFFE
FFFFF000000000001FFFFE
FFFFF000000000001FFFFE
FFFFF000000000001FFFFE
FFFFF000000000001FFFFE
FFFFF000000000001FFFFE
FFFFF000000000001FFFFE
FFFFF000000000001FFFFE
FFFFF000000000001FFFFE
FFFFF000000000001FFFFE
FFFFF000000000001FFFFE
FFFFF000000000001FFFFE
FFFFF000000000001FFFFE
FFFFF000000000001FFFFE
FFFFF000000000001FFFFE
FFFFF000000000001FFFFE
FFFFF000000000001FFFFE
FFFFF000000000001FFFFE
FFFFF000000000001FFFFE
FFFFF000000000001FFFFE
FFFFF000000000001FFFFE
FFFFF000000000001FFFFE
FFFFF000000000001FFFFE
FFFFF000000000001FFFFE
FFFFF000000000001FFFFE
FFFFF000000000001FFFFE
FFFFF000000000001FFFFE
FFFFF000000000001FFFFE
FFFFF000000000001FFFFE
FFFFF000000000001FFFFE
FFFFF000000000001FFFFE
FFFFF000000000001FFFFE
FFFFF000000000001FFFFE
FFFFF000000000001FFFFE
FFFFF000000000001FFFFE
FFFFF000000000001FFFFE
FFFFF000000000001FFFFE
FFFFF000000000001FFFFE
FFFFF000000000001FFFFE
FFFFF000000000001FFFFE
FFFFF000000000001FFFFE
FFFFF000000000001FFFFE
FFFFF000000000001FFFFE
FFFFF000000000001FFFFE
FFFFF000000000001FFFFE
FFFFF000000000001FFFFE
FFFFF000000000001FFFFE
FFFFF000000000001FFFFE
FFFFF000000000001FFFFE
FFFFF000000000001FFFFE
FFFFF000000000001FFFFE
FFFFF000000000001FFFFE
FFFFF000000000001FFFFE
FFFFF000000000001FFFFE
FFFFF000000000001FFFFE
FFFFF000000000001FFFFE
FFFFF000000000001FFFFE
FFFFF000000000001FFFFE
FFFFF000000000001FFFFE
FFFFF000000000001FFFFE
FFFFF000000000001FFFFE
FFFFF000000000001FFFFE
FFFFF000000000001FFFFE
FFFFF000000000001FFFFE
FFFFF000000000001FFFFE
FFFFF000000000001FFFFE
FFFFF000000000001FFFFE
FFFFF000000000001FFFFE
FFFFF000000000001FFFFE
FFFFF000000000001FFFFE
FFFFF000000000001FFFFE
FFFFF000000000001FFFFE
FFFFF000000000001FFFFE
FFFFF000000000001FFFFE
FFFFF000000000001FFFFE
FFFFF000000000001FFFFE
FFFFF000000000001FFFFE
FFFFF000000000001FFFFE
FFFFF000000000001FFFFE
FFFFF000000000001FFFFE
FFFFF000000000001FFFFE
FFFFF000000000001FFFFE
FFFFF000000000001FFFFE
FFFFF000000000001FFFFE
FFFFF000000000001FFFFE
FFFFF000000000001FFFFE
FFFFF000000000001FFFFE
FFFFF000000000001FFFFE
FFFFF000000000001FFFFE
FFFFF000000000001FFFFE
FFFFF000000000001FFFFE
FFFFF000000000001FFFFE
FFFFF000000000003FFFFE
FFFFF000000000003FFFFE
FFFFF800000000003FFFFE
FFFFF800000000003FFFFE
FFFFFC00000000007FFFFE
FFFFFC0000000000FFFFFE
FFFFFF0000000001FFFFFC
FFFFFFC00000000FFFFFFC
7FFFFFFFFFFFFFFFFFFFFC
7FFFFFFFFFFFFFFFFFFFFC
7FFFFFFFFFFFFFFFFFFFFC
7FFFFFFFFFFFFFFFFFFFF8
3FFFFFFFFFFFFFFFFFFFF8
3FFFFFFFFFFFFFFFFFFFF0
1FFFFFFFFFFFFFFFFFFFF0
1FFFFFFFFFFFFFFFFFFFE0
0FFFFFFFFFFFFFFFFFFFE0
07FFFFFFFFFFFFFFFFFFC0
03FFFFFFFFFFFFFFFFFF80
01FFFFFFFFFFFFFFFFFE00
007FFFFFFFFFFFFFFFF800
000FFFFFFFFFFFFFFFE000
0000FFFFFFFFFFFFFC0000
ENDCHAR
STARTCHAR 0056
ENCODING 86
SWIDTH 452 0
DWIDTH 113 0
BBX 99 175 7 0
BITMAP
1FFFF0000000000000001FFFE0
7FFFF0000000000000007FFFE0
7FFFF000000000000000FFFFE0
7FFFF000000000000000FFFFE0
FFFFF000000000000001FFFFE0
7FFFF800000000000001FFFFC0
7FFFF800000000000001FFFFC0
7FFFF800000000000003FFFFC0
7FFFF800000000000003FFFFC0
7FFFFC00000000000003FFFF80
3FFFFC00000000000003FFFF80
3FFFFC00000000000003FFFF80
3FFFFC00000000000007FFFF80
3FFFFC00000000000007FFFF80
3FFFFE00000000000007FFFF00
1FFFFE00000000000007FFFF00
1FFFFE00000000000007FFFF00
1FFFFE0000000000000FFFFF00
1FFFFE0000000000000FFFFF00
1FFFFF0000000000000FFFFE00
0FFFFF0000000000000FFFFE00
0FFFFF0000000000001FFFFE00
0FFFFF0000000000001FFFFE00
0FFFFF8000000000001FFFFC00
07FFFF8000000000001FFFFC00
07FFFF8000000000001FFFFC00
07FFFF8000000000003FFFFC00
07FFFF8000000000003FFFFC00
07FFFFC000000000003FFFF800
03FFFFC000000000003FFFF800
03FFFFC000000000003FFFF800
03FFFFC000000000007FFFF800
03FFFFC000000000007FFFF800
03FFFFE000000000007FFFF000
01FFFFE000000000007FFFF000
01FFFFE000000000007FFFF000
01FFFFE00000000000FFFFF000
01FFFFF00000000000FFFFE000
00FFFFF00000000000FFFFE000
00FFFFF00000000000FFFFE000
00FFFFF00000000000FFFFE000
00FFFFF00000000001FFFFE000
00FFFFF80000000001FFFFC000
007FFFF80000000001FFFFC000
007FFFF80000000001FFFFC000
007FFFF80000000001FFFFC000
007FFFFC0000000003FFFFC000
007FFFFC0000000003FFFF8000
003FFFFC0000000003FFFF8000
003FFFFC0000000003FFFF8000
003FFFFC0000000003FFFF8000
003FFFFE0000000007FFFF0000
001FFFFE0000000007FFFF0000
001FFFFE0000000007FFFF0000
001FFFFE0000000007FFFF0000
001FFFFE0000000007FFFF0000
001FFFFF000000000FFFFE0000
000FFFFF000000000FFFFE0000
000FFFFF000000000FFFFE0000
000FFFFF000000000FFFFE0000
000FFFFF800000000FFFFE0000
000FFFFF800000001FFFFC0000
0007FFFF800000001FFFFC0000
0007FFFF800000001FFFFC0000
0007FFFF800000001FFFFC0000
0007FFFFC00000001FFFF80000
0003FFFFC00000003FFFF80000
0003FFFFC00000003FFFF80000
0003FFFFC00000003FFFF80000
0003FFFFC00000003FFFF80000
0003FFFFE00000003FFFF00000
0001FFFFE00000007FFFF00000
0001FFFFE00000007FFFF00000
0001FFFFE00000007FFFF00000
0001FFFFF00000007FFFF00000
0001FFFFF00000007FFFE00000
0000FFFFF0000000FFFFE00000
0000FFFFF0000000FFFFE00000
0000FFFFF0000000FFFFE00000
0000FFFFF8000000FFFFE00000
00007FFFF8000000FFFFC00000
00007FFFF8000001FFFFC00000
00007FFFF8000001FFFFC00000
00007FFFF8000001FFFFC00000
00007FFFFC000001FFFF800000
00003FFFFC000001FFFF800000
00003FFFFC000003FFFF800000
00003FFFFC000003FFFF800000
00003FFFFE000003FFFF800000
00003FFFFE000003FFFF000000
00001FFFFE000003FFFF000000
00001FFFFE000007FFFF000000
00001FFFFE000007FFFF000000
00001FFFFF000007FFFF000000
00000FFFFF000007FFFE000000
00000FFFFF000007FFFE000000
00000FFFFF00000FFFFE000000
00000FFFFF00000FFFFE000000
00000FFFFF80000FFFFC000000
000007FFFF80000FFFFC000000
000007FFFF80000FFFFC000000
000007FFFF80001FFFFC000000
000007FFFFC0001FFFFC000000
000007FFFFC0001FFFF8000000
000003FFFFC0001FFFF8000000
000003FFFFC0001FFFF8000000
000003FFFFC0003FFFF8000000
000003FFFFE0003FFFF8000000
000001FFFFE0003FFFF0000000
000001FFFFE0003FFFF0000000
000001FFFFE0003FFFF0000000
000001FFFFF0007FFFF0000000
000001FFFFF0007FFFE0000000
000000FFFFF0007FFFE0000000
000000FFFFF0007FFFE0000000
000000FFFFF000FFFFE0000000
000000FFFFF800FFFFE0000000
000000FFFFF800FFFFC0000000
0000007FFFF800FFFFC0000000
0000007FFFF800FFFFC0000000
0000007FFFF801FFFFC0000000
0000007FFFFC01FFFFC0000000
0000003FFFFC01FFFF80000000
0000003FFFFC01FFFF80000000
0000003FFFFC01FFFF80000000
0000003FFFFC01FFFF80000000
0000003FFFFE03FFFF00000000
0000001FFFFE03FFFF00000000
0000001FFFFE03FFFF00000000
0000001FFFFE03FFFF00000000
0000001FFFFE03FFFF00000000
0000001FFFFE03FFFE00000000
0000000FFFFE03FFFE00000000
0000000FFFFE03FFFE00000000
0000000FFFFF07FFFE00000000
0000000FFFFF07FFFE00000000
00000007FFFF07FFFC00000000
00000007FFFF07FFFC00000000
00000007FFFF07FFFC00000000
00000007FFFF07FFFC00000000
00000007FFFF07FFF800000000
00000003FFFF07FFF800000000
00000003FFFF8FFFF800000000
00000003FFFF8FFFF800000000
00000003FFFF8FFFF800000000
00000003FFFF8FFFF000000000
00000001FFFF8FFFF000000000
00000001FFFF8FFFF000000000
00000001FFFF8FFFF000000000
00000001FFFF8FFFF000000000
00000000FFFFDFFFE000000000
00000000FFFFDFFFE000000000
00000000FFFFFFFFE000000000
00000000FFFFFFFFE000000000
00000000FFFFFFFFC000000000
000000007FFFFFFFC000000000
000000007FFFFFFFC000000000
000000007FFFFFFFC000000000
000000007FFFFFFFC000000000
000000007FFFFFFF8000000000
000000003FFFFFFF8000000000
000000003FFFFFFF8000000000
000000003FFFFFFF8000000000
000000003FFFFFFF8000000000
000000001FFFFFFF0000000000
000000001FFFFFFF0000000000
000000001FFFFFFF0000000000
000000001FFFFFFF0000000000
000000001FFFFFFE0000000000
000000000FFFFFFE0000000000
000000000FFFFFFE0000000000
000000000FFFFFFC0000000000
000000000FFFFFFC0000000000
000000000FFFFFF80000000000
0000000007FFFFE00000000000
ENDCHAR
STARTCHAR 0057
ENCODING 87
SWIDTH 712 0
DWIDTH 178 0
BBX 161 175 9 -1
BITMAP
1FFFE00000000000000000000000000000007FFF80
7FFFE0000000000000000000000000000003FFFF00
7FFFE0000000000000000000000000000003FFFF00
FFFFF0000000000000000000000000000007FFFF00
FFFFF0000000000000000000000000000007FFFF00
FFFFF000000000000000000000000000000FFFFF00
FFFFF000000000000000000000000000000FFFFF00
7FFFF000000000000000000000000000000FFFFE00
7FFFF000000000000000000000000000000FFFFE00
7FFFF800000000000000000000000000000FFFFE00
7FFFF800000000000000000000000000001FFFFE00
7FFFF800000000000000000000000000001FFFFE00
3FFFF800000000000000000000000000001FFFFE00
3FFFF800000000000000000000000000001FFFFC00
3FFFFC00000000000000000000000000001FFFFC00
3FFFFC00000000000000000000000000001FFFFC00
3FFFFC00000000000000000000000000003FFFFC00
3FFFFC00000000000000000000000000003FFFFC00
1FFFFC00000000000000000000000000003FFFF800
1FFFFC00000000000000000000000000003FFFF800
1FFFFE00000000000000000000000000003FFFF800
1FFFFE00000000000000000000000000003FFFF800
1FFFFE00000000000000000000000000007FFFF800
0FFFFE00000000000000000000000000007FFFF800
0FFFFE00000000000000000000000000007FFFF000
0FFFFE00000000000000000000000000007FFFF000
0FFFFF00000000000000000000000000007FFFF000
0FFFFF00000000000000000000000000007FFFF000
0FFFFF0000000000000000000000000000FFFFF000
07FFFF0000000000000000000000000000FFFFF000
07FFFF0000000000000000000000000000FFFFE000
07FFFF0000000000000000000000000000FFFFE000
07FFFF8000000000000000000000000000FFFFE000
07FFFF8000000000000000000000000000FFFFE000
03FFFF8000000000000000000000000001FFFFE000
03FFFF8000000000000000000000000001FFFFC000
03FFFF8000000000000000000000000001FFFFC000
03FFFF8000000000000000000000000001FFFFC000
03FFFFC000000000000000000000000001FFFFC000
03FFFFC000000000000000000000000001FFFFC000
01FFFFC000000000000000000000000003FFFFC000
01FFFFC000000000000000000000000003FFFF8000
01FFFFC000000000000000000000000003FFFF8000
01FFFFC000000000000000000000000003FFFF8000
01FFFFE000000000000000000000000003FFFF8000
00FFFFE000000000000000000000000003FFFF8000
00FFFFE000000000000000000000000007FFFF0000
00FFFFE000000000001FFFE00000000007FFFF0000
00FFFFE000000000003FFFE00000000007FFFF0000
00FFFFF000000000007FFFE00000000007FFFF0000
00FFFFF00000000000FFFFF00000000007FFFF0000
007FFFF00000000000FFFFF00000000007FFFF0000
007FFFF00000000000FFFFF0000000000FFFFE0000
007FFFF00000000001FFFFF0000000000FFFFE0000
007FFFF00000000001FFFFF8000000000FFFFE0000
007FFFF80000000001FFFFF8000000000FFFFE0000
003FFFF80000000003FFFFF8000000000FFFFE0000
003FFFF80000000003FFFFF8000000000FFFFE0000
003FFFF80000000003FFFFF8000000001FFFFC0000
003FFFF80000000003FFFFFC000000001FFFFC0000
003FFFF80000000007FFFFFC000000001FFFFC0000
003FFFFC0000000007FFFFFC000000001FFFFC0000
001FFFFC0000000007FFFFFC000000001FFFFC0000
001FFFFC000000000FFFFFFE000000001FFFF80000
001FFFFC000000000FFFFFFE000000003FFFF80000
001FFFFC000000000FFFFFFE000000003FFFF80000
001FFFFC000000000FFFFFFE000000003FFFF80000
000FFFFE000000001FFFFFFF000000003FFFF80000
000FFFFE000000001FFFFFFF000000003FFFF80000
000FFFFE000000001FFFFFFF000000003FFFF00000
000FFFFE000000001FFFFFFF000000007FFFF00000
000FFFFE000000003FFFFFFF800000007FFFF00000
000FFFFE000000003FFF7FFF800000007FFFF00000
0007FFFF000000003FFF7FFF800000007FFFF00000
0007FFFF000000007FFE3FFF800000007FFFE00000
0007FFFF000000007FFE3FFF800000007FFFE00000
0007FFFF000000007FFE3FFFC0000000FFFFE00000
0007FFFF000000007FFE3FFFC0000000FFFFE00000
0003FFFF80000000FFFE3FFFC0000000FFFFE00000
0003FFFF80000000FFFE1FFFC0000000FFFFE00000
0003FFFF80000000FFFC1FFFE0000000FFFFC00000
0003FFFF80000000FFFC1FFFE0000000FFFFC00000
0003FFFF80000001FFFC1FFFE0000001FFFFC00000
0003FFFF80000001FFFC1FFFE0000001FFFFC00000
0001FFFFC0000001FFFC1FFFF0000001FFFFC00000
0001FFFFC0000003FFFC0FFFF0000001FFFFC00000
0001FFFFC0000003FFF80FFFF0000001FFFF800000
0001FFFFC0000003FFF80FFFF0000001FFFF800000
0001FFFFC0000003FFF80FFFF8000001FFFF800000
0000FFFFC0000007FFF80FFFF8000003FFFF800000
0000FFFFE0000007FFF80FFFF8000003FFFF800000
0000FFFFE0000007FFF807FFF8000003FFFF000000
0000FFFFE0000007FFF007FFF8000003FFFF000000
0000FFFFE000000FFFF007FFFC000003FFFF000000
0000FFFFE000000FFFF007FFFC000003FFFF000000
00007FFFE000000FFFF007FFFC000007FFFF000000
00007FFFF000001FFFF007FFFC000007FFFF000000
00007FFFF000001FFFF003FFFE000007FFFE000000
00007FFFF000001FFFE003FFFE000007FFFE000000
00007FFFF000001FFFE003FFFE000007FFFE000000
00003FFFF000003FFFE003FFFE000007FFFE000000
00003FFFF000003FFFE001FFFF00000FFFFE000000
00003FFFF800003FFFC001FFFF00000FFFFC000000
00003FFFF800003FFFC001FFFF00000FFFFC000000
00003FFFF800007FFFC001FFFF00000FFFFC000000
00003FFFF800007FFF8000FFFF80000FFFFC000000
00001FFFF800007FFF8000FFFF80000FFFFC000000
00001FFFFC0000FFFF8000FFFF80001FFFFC000000
00001FFFFC0000FFFF8000FFFF80001FFFF8000000
00001FFFFC0000FFFF00007FFFC0001FFFF8000000
00001FFFFC0000FFFF00007FFFC0001FFFF8000000
00000FFFFC0001FFFF00007FFFC0001FFFF8000000
00000FFFFC0001FFFE00007FFFC0001FFFF8000000
00000FFFFE0001FFFE00003FFFC0003FFFF8000000
00000FFFFE0001FFFE00003FFFE0003FFFF0000000
00000FFFFE0003FFFE00003FFFE0003FFFF0000000
00000FFFFE0003FFFC00003FFFE0003FFFF0000000
000007FFFE0003FFFC00001FFFE0003FFFF0000000
000007FFFE0007FFFC00001FFFF0003FFFF0000000
000007FFFF0007FFFC00001FFFF0007FFFE0000000
000007FFFF0007FFF800001FFFF0007FFFE0000000
000007FFFF0007FFF800000FFFF0007FFFE0000000
000007FFFF000FFFF800000FFFF8007FFFE0000000
000003FFFF000FFFF000000FFFF8007FFFE0000000
000003FFFF000FFFF000000FFFF8007FFFE0000000
000003FFFF800FFFF0000007FFF800FFFFC0000000
000003FFFF800FFFF0000007FFF800FFFFC0000000
000003FFFF801FFFE0000007FFFC00FFFFC0000000
000001FFFF801FFFE0000007FFFC00FFFFC0000000
000001FFFF801FFFE0000003FFFC00FFFFC0000000
000001FFFF801FFFC0000003FFFC00FFFF80000000
000001FFFFC01FFFC0000003FFFC01FFFF80000000
000001FFFFC03FFFC0000003FFFE01FFFF80000000
000001FFFFC03FFFC0000003FFFE01FFFF80000000
000000FFFFC03FFF80000001FFFE01FFFF80000000
000000FFFFC03FFF80000001FFFE01FFFF80000000
000000FFFFC03FFF80000001FFFF01FFFF00000000
000000FFFFE07FFF80000001FFFF01FFFF00000000
000000FFFFE07FFF00000000FFFF03FFFF00000000
0000007FFFE07FFF00000000FFFF03FFFF00000000
0000007FFFE07FFF00000000FFFF03FFFF00000000
0000007FFFE07FFE00000000FFFF83FFFF00000000
0000007FFFE0FFFE000000007FFF83FFFE00000000
0000007FFFF0FFFE000000007FFF83FFFE00000000
0000007FFFF0FFFE000000007FFF87FFFE00000000
0000003FFFF0FFFC000000007FFF87FFFE00000000
0000003FFFF0FFFC000000003FFFC7FFFE00000000
0000003FFFF1FFFC000000003FFFC7FFFC00000000
0000003FFFF1FFFC000000003FFFC7FFFC00000000
0000003FFFF9FFF8000000003FFFC7FFFC00000000
0000001FFFF9FFF8000000001FFFCFFFFC00000000
0000001FFFF9FFF8000000001FFFEFFFFC00000000
0000001FFFFFFFF0000000001FFFFFFFFC00000000
0000001FFFFFFFF0000000001FFFFFFFF800000000
0000001FFFFFFFF0000000000FFFFFFFF800000000
0000001FFFFFFFF0000000000FFFFFFFF800000000
0000000FFFFFFFE0000000000FFFFFFFF800000000
0000000FFFFFFFE0000000000FFFFFFFF800000000
0000000FFFFFFFE00000000007FFFFFFF000000000
0000000FFFFFFFC00000000007FFFFFFF000000000
0000000FFFFFFFC00000000007FFFFFFF000000000
00000007FFFFFFC00000000007FFFFFFF000000000
00000007FFFFFFC00000000003FFFFFFF000000000
00000007FFFFFF800000000003FFFFFFF000000000
00000007FFFFFF800000000003FFFFFFE000000000
00000007FFFFFF800000000003FFFFFFE000000000
00000007FFFFFF800000000001FFFFFFE000000000
00000003FFFFFF000000000001FFFFFFE000000000
00000003FFFFFF000000000001FFFFFFE000000000
00000003FFFFFF000000000001FFFFFFC000000000
00000003FFFFFE000000000000FFFFFFC000000000
00000003FFFFFE000000000000FFFFFFC000000000
00000001FFFFFC000000000000FFFFFF8000000000
00000001FFFFFC000000000000FFFFFF0000000000
00000001FFFFF00000000000007FFFFE0000000000
ENDCHAR
STARTCHAR 0058
ENCODING 88
SWIDTH 436 0
DWIDTH 109 0
BBX 93 175 8 0
BITMAP
1FFFC00000000000000FFFC0
3FFFC00000000000001FFFF0
7FFFE00000000000001FFFF0
7FFFE00000000000003FFFF0
7FFFE00000000000003FFFF8
7FFFF00000000000007FFFF8
FFFFF00000000000007FFFF8
7FFFF80000000000007FFFF0
7FFFF8000000000000FFFFF0
3FFFFC000000000000FFFFF0
3FFFFC000000000001FFFFE0
1FFFFC000000000001FFFFE0
1FFFFE000000000003FFFFC0
1FFFFE000000000003FFFFC0
0FFFFF000000000003FFFF80
0FFFFF000000000007FFFF80
07FFFF800000000007FFFF80
07FFFF80000000000FFFFF00
03FFFF80000000000FFFFF00
03FFFFC0000000001FFFFE00
03FFFFC0000000001FFFFE00
01FFFFE0000000001FFFFC00
01FFFFE0000000003FFFFC00
00FFFFE0000000003FFFFC00
00FFFFF0000000007FFFF800
007FFFF0000000007FFFF800
007FFFF800000000FFFFF000
007FFFF800000000FFFFF000
003FFFFC00000000FFFFE000
003FFFFC00000001FFFFE000
001FFFFC00000001FFFFE000
001FFFFE00000003FFFFC000
000FFFFE00000003FFFFC000
000FFFFF00000003FFFF8000
000FFFFF00000007FFFF8000
0007FFFF80000007FFFF0000
0007FFFF8000000FFFFF0000
0003FFFF8000000FFFFF0000
0003FFFFC000001FFFFE0000
0001FFFFC000001FFFFE0000
0001FFFFE000001FFFFC0000
0001FFFFE000003FFFFC0000
0000FFFFF000003FFFF80000
0000FFFFF000007FFFF80000
00007FFFF000007FFFF80000
00007FFFF80000FFFFF00000
00003FFFF80000FFFFF00000
00003FFFFC0000FFFFE00000
00003FFFFC0001FFFFE00000
00001FFFFE0001FFFFC00000
00001FFFFE0003FFFFC00000
00000FFFFE0003FFFFC00000
00000FFFFF0007FFFF800000
000007FFFF0007FFFF800000
000007FFFF8007FFFF000000
000007FFFF800FFFFF000000
000003FFFF800FFFFE000000
000003FFFFC00FFFFE000000
000001FFFFC01FFFFE000000
000001FFFFC01FFFFC000000
000001FFFFC01FFFFC000000
000000FFFFE01FFFF8000000
000000FFFFE03FFFF8000000
0000007FFFE03FFFF8000000
0000007FFFE03FFFF0000000
0000003FFFF03FFFF0000000
0000003FFFF07FFFE0000000
0000003FFFF07FFFE0000000
0000001FFFF07FFFC0000000
0000001FFFF87FFFC0000000
0000000FFFF8FFFFC0000000
0000000FFFF8FFFF80000000
00000007FFF8FFFF80000000
00000007FFFCFFFF00000000
00000007FFFDFFFF00000000
00000003FFFFFFFE00000000
00000003FFFFFFFE00000000
00000001FFFFFFFE00000000
00000001FFFFFFFC00000000
00000000FFFFFFFC00000000
00000000FFFFFFF800000000
00000000FFFFFFF800000000
000000007FFFFFF000000000
000000007FFFFFF000000000
000000003FFFFFF000000000
000000003FFFFFE000000000
000000001FFFFFE000000000
000000001FFFFFC000000000
000000001FFFFFC000000000
000000001FFFFFE000000000
000000003FFFFFE000000000
000000003FFFFFE000000000
000000007FFFFFF000000000
000000007FFFFFF000000000
00000000FFFFFFF800000000
00000000FFFFFFF800000000
00000000FFFFFFFC00000000
00000001FFFFFFFC00000000
00000001FFFFFFFE00000000
00000003FFFFFFFE00000000
00000003FFFFFFFE00000000
00000007FFFFFFFF00000000
00000007FFFDFFFF00000000
00000007FFF8FFFF80000000
0000000FFFF8FFFF80000000
0000000FFFF8FFFFC0000000
0000001FFFF07FFFC0000000
0000001FFFF07FFFC0000000
0000003FFFF07FFFE0000000
0000003FFFF03FFFE0000000
0000003FFFE03FFFF0000000
0000007FFFE03FFFF0000000
0000007FFFE01FFFF8000000
000000FFFFC01FFFF8000000
000000FFFFC01FFFF8000000
000001FFFFC01FFFFC000000
000001FFFFC00FFFFC000000
000001FFFF800FFFFE000000
000003FFFF800FFFFE000000
000003FFFF8007FFFF000000
000007FFFF0007FFFF000000
000007FFFF0003FFFF000000
00000FFFFE0003FFFF800000
00000FFFFE0003FFFF800000
00000FFFFE0001FFFFC00000
00001FFFFC0001FFFFC00000
00001FFFFC0000FFFFE00000
00003FFFF80000FFFFE00000
00003FFFF80000FFFFE00000
00007FFFF000007FFFF00000
00007FFFF000007FFFF00000
00007FFFF000003FFFF80000
0000FFFFE000003FFFF80000
0000FFFFE000003FFFFC0000
0001FFFFC000001FFFFC0000
0001FFFFC000001FFFFC0000
0003FFFFC000000FFFFE0000
0003FFFF8000000FFFFE0000
0003FFFF80000007FFFF0000
0007FFFF00000007FFFF0000
0007FFFF00000007FFFF8000
000FFFFF00000003FFFF8000
000FFFFE00000003FFFF8000
001FFFFE00000001FFFFC000
001FFFFC00000001FFFFC000
001FFFFC00000001FFFFE000
003FFFF800000000FFFFE000
003FFFF800000000FFFFF000
007FFFF8000000007FFFF000
007FFFF0000000007FFFF000
00FFFFF0000000007FFFF800
00FFFFE0000000003FFFF800
01FFFFE0000000003FFFFC00
01FFFFE0000000001FFFFC00
01FFFFC0000000001FFFFE00
03FFFFC0000000001FFFFE00
03FFFF80000000000FFFFE00
07FFFF80000000000FFFFF00
07FFFF800000000007FFFF00
0FFFFF000000000007FFFF80
0FFFFF000000000003FFFF80
0FFFFE000000000003FFFFC0
1FFFFE000000000003FFFFC0
1FFFFC000000000001FFFFC0
3FFFFC000000000001FFFFE0
3FFFFC000000000000FFFFE0
7FFFF8000000000000FFFFF0
7FFFF8000000000000FFFFF0
7FFFF00000000000007FFFF0
7FFFF00000000000007FFFF0
7FFFF00000000000003FFFF0
7FFFE00000000000003FFFF0
7FFFE00000000000003FFFF0
3FFFC00000000000001FFFE0
1FFFC00000000000001FFFC0
ENDCHAR
STARTCHAR 0059
ENCODING 89
SWIDTH 420 0
DWIDTH 105 0
BBX 98 175 4 0
BITMAP
1FFFC0000000000000001FFFC0
7FFFC0000000000000007FFFC0
FFFFC000000000000000FFFF80
FFFFE000000000000001FFFF80
FFFFE000000000000001FFFF00
FFFFF000000000000003FFFF00
FFFFF000000000000003FFFF00
7FFFF000000000000003FFFE00
7FFFF800000000000007FFFE00
3FFFF800000000000007FFFE00
3FFFFC00000000000007FFFC00
3FFFFC0000000000000FFFFC00
1FFFFC0000000000000FFFF800
1FFFFE0000000000001FFFF800
0FFFFE0000000000001FFFF800
0FFFFF0000000000001FFFF000
0FFFFF0000000000003FFFF000
07FFFF0000000000003FFFE000
07FFFF8000000000003FFFE000
03FFFF8000000000007FFFE000
03FFFF8000000000007FFFC000
03FFFFC00000000000FFFFC000
01FFFFC00000000000FFFF8000
01FFFFE00000000000FFFF8000
00FFFFE00000000001FFFF8000
00FFFFE00000000001FFFF0000
00FFFFF00000000001FFFF0000
007FFFF00000000003FFFE0000
007FFFF80000000003FFFE0000
003FFFF80000000007FFFE0000
003FFFF80000000007FFFC0000
003FFFFC0000000007FFFC0000
001FFFFC000000000FFFF80000
001FFFFE000000000FFFF80000
000FFFFE000000000FFFF80000
000FFFFE000000001FFFF00000
000FFFFF000000001FFFF00000
0007FFFF000000003FFFE00000
0007FFFF800000003FFFE00000
0003FFFF800000003FFFE00000
0003FFFF800000007FFFC00000
0003FFFFC00000007FFFC00000
0001FFFFC0000000FFFFC00000
0001FFFFC0000000FFFF800000
0000FFFFE0000000FFFF800000
0000FFFFE0000001FFFF000000
0000FFFFF0000001FFFF000000
00007FFFF0000001FFFF000000
00007FFFF0000003FFFE000000
00003FFFF8000003FFFE000000
00003FFFF8000007FFFC000000
00003FFFFC000007FFFC000000
00001FFFFC000007FFFC000000
00001FFFFC00000FFFF8000000
00000FFFFE00000FFFF8000000
00000FFFFE00000FFFF0000000
00000FFFFE00001FFFF0000000
000007FFFF00001FFFF0000000
000007FFFF00001FFFE0000000
000003FFFF00003FFFE0000000
000003FFFF80003FFFC0000000
000003FFFF80003FFFC0000000
000001FFFF80007FFFC0000000
000001FFFFC0007FFF80000000
000000FFFFC0007FFF80000000
000000FFFFC000FFFF00000000
000000FFFFE000FFFF00000000
0000007FFFE000FFFF00000000
0000007FFFE001FFFE00000000
0000003FFFF001FFFE00000000
0000003FFFF001FFFC00000000
0000003FFFF001FFFC00000000
0000001FFFF803FFFC00000000
0000001FFFF803FFF800000000
0000001FFFF803FFF800000000
0000000FFFFC07FFF800000000
0000000FFFFC07FFF000000000
00000007FFFC07FFF000000000
00000007FFFE0FFFE000000000
00000007FFFE0FFFE000000000
00000003FFFE0FFFE000000000
00000003FFFF1FFFC000000000
00000001FFFF1FFFC000000000
00000001FFFF1FFF8000000000
00000001FFFFBFFF8000000000
00000000FFFFFFFF8000000000
00000000FFFFFFFF0000000000
000000007FFFFFFF0000000000
000000007FFFFFFE0000000000
000000007FFFFFFE0000000000
000000003FFFFFFE0000000000
000000003FFFFFFC0000000000
000000001FFFFFFC0000000000
000000001FFFFFF80000000000
000000001FFFFFF80000000000
000000000FFFFFF80000000000
000000000FFFFFF00000000000
0000000007FFFFF00000000000
0000000007FFFFE00000000000
0000000007FFFFE00000000000
0000000003FFFFE00000000000
0000000003FFFFC00000000000
0000000003FFFFC00000000000
0000000003FFFFC00000000000
0000000003FFFFC00000000000
0000000003FFFFC00000000000
0000000003FFFFC00000000000
0000000003FFFFC00000000000
0000000003FFFFC00000000000
0000000003FFFFC00000000000
0000000003FFFFC00000000000
0000000003FFFFC00000000000
0000000003FFFFC00000000000
0000000003FFFFC00000000000
0000000003FFFFC00000000000
0000000003FFFFC00000000000
0000000003FFFFC00000000000
0000000003FFFFC00000000000
0000000003FFFFC00000000000
0000000003FFFFC00000000000
0000000003FFFFC00000000000
0000000003FFFFC00000000000
0000000003FFFFC00000000000
0000000003FFFFC00000000000
0000000003FFFFC00000000000
0000000003FFFFC00000000000
0000000003FFFFC00000000000
0000000003FFFFC00000000000
0000000003FFFFC00000000000
0000000003FFFFC00000000000
0000000003FFFFC00000000000
0000000003FFFFC00000000000
0000000003FFFFC00000000000
0000000003FFFFC00000000000
0000000003FFFFC00000000000
0000000003FFFFC00000000000
0000000003FFFFC00000000000
0000000003FFFFC00000000000
0000000003FFFFC00000000000
0000000003FFFFC00000000000
0000000003FFFFC00000000000
0000000003FFFFC00000000000
0000000003FFFFC00000000000
0000000003FFFFC00000000000
0000000003FFFFC00000000000
0000000003FFFFC00000000000
0000000003FFFFC00000000000
0000000003FFFFC00000000000
0000000003FFFFC00000000000
0000000003FFFFC00000000000
0000000003FFFFC00000000000
0000000003FFFFC00000000000
0000000003FFFFC00000000000
0000000003FFFFC00000000000
0000000003FFFFC00000000000
0000000003FFFFC00000000000
0000000003FFFFC00000000000
0000000003FFFFC00000000000
0000000003FFFFC00000000000
0000000003FFFFC00000000000
0000000003FFFFC00000000000
0000000003FFFFC00000000000
0000000003FFFFC00000000000
0000000003FFFFC00000000000
0000000003FFFFC00000000000
0000000003FFFFC00000000000
0000000003FFFFC00000000000
0000000003FFFFC00000000000
0000000003FFFFC00000000000
0000000003FFFFC00000000000
0000000003FFFFC00000000000
0000000003FFFFC00000000000
0000000003FFFFC00000000000
0000000003FFFF800000000000
0000000003FFFE000000000000
ENDCHAR
STARTCHAR 005A
ENCODING 90
SWIDTH 408 0
DWIDTH 102 0
BBX 83 175 9 0
BITMAP
01FFFFFFFFFFFFFFFFFF00
07FFFFFFFFFFFFFFFFFF80
07FFFFFFFFFFFFFFFFFFC0
0FFFFFFFFFFFFFFFFFFFC0
0FFFFFFFFFFFFFFFFFFFC0
0FFFFFFFFFFFFFFFFFFFC0
0FFFFFFFFFFFFFFFFFFFC0
0FFFFFFFFFFFFFFFFFFFE0
0FFFFFFFFFFFFFFFFFFFE0
0FFFFFFFFFFFFFFFFFFFE0
0FFFFFFFFFFFFFFFFFFFE0
0FFFFFFFFFFFFFFFFFFFE0
0FFFFFFFFFFFFFFFFFFFE0
0FFFFFFFFFFFFFFFFFFFE0
0FFFFFFFFFFFFFFFFFFFE0
0000000000000003FFFFC0
0000000000000003FFFFC0
0000000000000007FFFF80
0000000000000007FFFF80
0000000000000007FFFF80
000000000000000FFFFF00
000000000000000FFFFF00
000000000000001FFFFE00
000000000000001FFFFE00
000000000000003FFFFC00
000000000000003FFFFC00
000000000000003FFFFC00
000000000000007FFFF800
000000000000007FFFF800
00000000000000FFFFF000
00000000000000FFFFF000
00000000000001FFFFE000
00000000000001FFFFE000
00000000000001FFFFE000
00000000000003FFFFC000
00000000000003FFFFC000
00000000000007FFFF8000
00000000000007FFFF8000
0000000000000FFFFF0000
0000000000000FFFFF0000
0000000000000FFFFF0000
0000000000001FFFFE0000
0000000000001FFFFE0000
0000000000003FFFFC0000
0000000000003FFFFC0000
0000000000007FFFF80000
0000000000007FFFF80000
0000000000007FFFF80000
000000000000FFFFF00000
000000000000FFFFF00000
000000000001FFFFE00000
000000000001FFFFE00000
000000000003FFFFC00000
000000000003FFFFC00000
000000000003FFFFC00000
000000000007FFFF800000
000000000007FFFF800000
00000000000FFFFF000000
00000000000FFFFF000000
00000000001FFFFE000000
00000000001FFFFE000000
00000000001FFFFE000000
00000000003FFFFC000000
00000000003FFFFC000000
00000000007FFFF8000000
00000000007FFFF8000000
0000000000FFFFF0000000
0000000000FFFFF0000000
0000000000FFFFF0000000
0000000001FFFFE0000000
0000000001FFFFE0000000
0000000003FFFFC0000000
0000000003FFFFC0000000
0000000007FFFF80000000
0000000007FFFF80000000
0000000007FFFF80000000
000000000FFFFF00000000
000000000FFFFF00000000
000000001FFFFE00000000
000000001FFFFE00000000
000000003FFFFC00000000
000000003FFFFC00000000
000000003FFFFC00000000
000000007FFFF800000000
000000007FFFF800000000
00000000FFFFF000000000
00000000FFFFF000000000
00000001FFFFE000000000
00000001FFFFE000000000
00000001FFFFE000000000
00000003FFFFC000000000
00000003FFFFC000000000
00000007FFFF8000000000
00000007FFFF8000000000
0000000FFFFF0000000000
0000000FFFFF0000000000
0000000FFFFF0000000000
0000001FFFFE0000000000
0000001FFFFE0000000000
0000003FFFFC0000000000
0000003FFFFC0000000000
0000007FFFF80000000000
0000007FFFF80000000000
0000007FFFF80000000000
000000FFFFF00000000000
000000FFFFF00000000000
000001FFFFE00000000000
000001FFFFE00000000000
000003FFFFC00000000000
000003FFFFC00000000000
000003FFFFC00000000000
000007FFFF800000000000
000007FFFF800000000000
00000FFFFF000000000000
00000FFFFF000000000000
00000FFFFE000000000000
00001FFFFE000000000000
00001FFFFE000000000000
00003FFFFC000000000000
00003FFFFC000000000000
00007FFFF8000000000000
00007FFFF8000000000000
00007FFFF0000000000000
0000FFFFF0000000000000
0000FFFFF0000000000000
0001FFFFE0000000000000
0001FFFFE0000000000000
0003FFFFC0000000000000
0003FFFFC0000000000000
0003FFFF80000000000000
0007FFFF80000000000000
0007FFFF80000000000000
000FFFFF00000000000000
000FFFFF00000000000000
001FFFFE00000000000000
001FFFFE00000000000000
001FFFFC00000000000000
003FFFFC00000000000000
003FFFFC00000000000000
007FFFF800000000000000
007FFFF800000000000000
00FFFFF000000000000000
00FFFFF000000000000000
00FFFFE000000000000000
01FFFFE000000000000000
01FFFFE000000000000000
03FFFFC000000000000000
03FFFFC000000000000000
07FFFF8000000000000000
07FFFF8000000000000000
07FFFF0000000000000000
0FFFFF0000000000000000
0FFFFE0000000000000000
1FFFFE0000000000000000
1FFFFE0000000000000000
3FFFFC0000000000000000
3FFFFC0000000000000000
3FFFF80000000000000000
7FFFF80000000000000000
7FFFF00000000000000000
FFFFFFFFFFFFFFFFFFFFC0
FFFFFFFFFFFFFFFFFFFFC0
FFFFFFFFFFFFFFFFFFFFC0
FFFFFFFFFFFFFFFFFFFFC0
FFFFFFFFFFFFFFFFFFFFC0
FFFFFFFFFFFFFFFFFFFFC0
FFFFFFFFFFFFFFFFFFFFC0
FFFFFFFFFFFFFFFFFFFFC0
FFFFFFFFFFFFFFFFFFFFC0
7FFFFFFFFFFFFFFFFFFFC0
7FFFFFFFFFFFFFFFFFFFC0
7FFFFFFFFFFFFFFFFFFF80
7FFFFFFFFFFFFFFFFFFF80
3FFFFFFFFFFFFFFFFFFF80
1FFFFFFFFFFFFFFFFFFE00
ENDCHAR
ENDFONT
